%TF.GenerationSoftware,KiCad,Pcbnew,7.0.7-7.0.7~ubuntu20.04.1*%
%TF.CreationDate,2023-08-31T00:29:58-07:00*%
%TF.ProjectId,v2_controller,76325f63-6f6e-4747-926f-6c6c65722e6b,rev?*%
%TF.SameCoordinates,Original*%
%TF.FileFunction,Profile,NP*%
%FSLAX46Y46*%
G04 Gerber Fmt 4.6, Leading zero omitted, Abs format (unit mm)*
G04 Created by KiCad (PCBNEW 7.0.7-7.0.7~ubuntu20.04.1) date 2023-08-31 00:29:58*
%MOMM*%
%LPD*%
G01*
G04 APERTURE LIST*
%TA.AperFunction,Profile*%
%ADD10C,0.100000*%
%TD*%
%TA.AperFunction,Profile*%
%ADD11C,0.120000*%
%TD*%
G04 APERTURE END LIST*
D10*
X46000000Y-39000000D02*
X134000000Y-39000000D01*
X134000000Y-39000000D02*
X143000000Y-65000000D01*
X143000000Y-65000000D02*
X143000000Y-114000000D01*
X43000000Y-48000000D02*
X46000000Y-39000000D01*
X143000000Y-114000000D02*
X106000000Y-155000000D01*
X106000000Y-155000000D02*
X74000000Y-155000000D01*
X74000000Y-155000000D02*
X43000000Y-120000000D01*
X43000000Y-48000000D02*
X43000000Y-120000000D01*
D11*
%TO.C,D41*%
X100200000Y-151200000D02*
X100200000Y-148800000D01*
X100600000Y-148400000D02*
X103400000Y-148400000D01*
X103400000Y-151600000D02*
X100600000Y-151600000D01*
X103800000Y-148800000D02*
X103800000Y-151200000D01*
X100600000Y-148400000D02*
G75*
G03*
X100200000Y-148800000I2J-400002D01*
G01*
X100200000Y-151200000D02*
G75*
G03*
X100600000Y-151600000I400002J2D01*
G01*
X103800000Y-148800000D02*
G75*
G03*
X103400000Y-148400000I-400000J0D01*
G01*
X103400000Y-151600000D02*
G75*
G03*
X103800000Y-151200000I0J400000D01*
G01*
%TO.C,D39*%
X84200000Y-151200000D02*
X84200000Y-148800000D01*
X84600000Y-148400000D02*
X87400000Y-148400000D01*
X87400000Y-151600000D02*
X84600000Y-151600000D01*
X87800000Y-148800000D02*
X87800000Y-151200000D01*
X84600000Y-148400000D02*
G75*
G03*
X84200000Y-148800000I2J-400002D01*
G01*
X84200000Y-151200000D02*
G75*
G03*
X84600000Y-151600000I400002J2D01*
G01*
X87800000Y-148800000D02*
G75*
G03*
X87400000Y-148400000I-400000J0D01*
G01*
X87400000Y-151600000D02*
G75*
G03*
X87800000Y-151200000I0J400000D01*
G01*
%TO.C,D17*%
X63300000Y-51880000D02*
X63300000Y-54280000D01*
X62900000Y-54680000D02*
X60100000Y-54680000D01*
X60100000Y-51480000D02*
X62900000Y-51480000D01*
X59700000Y-54280000D02*
X59700000Y-51880000D01*
X62900000Y-54680000D02*
G75*
G03*
X63300000Y-54280000I-2J400002D01*
G01*
X63300000Y-51880000D02*
G75*
G03*
X62900000Y-51480000I-400002J-2D01*
G01*
X59700000Y-54280000D02*
G75*
G03*
X60100000Y-54680000I400000J0D01*
G01*
X60100000Y-51480000D02*
G75*
G03*
X59700000Y-51880000I0J-400000D01*
G01*
%TO.C,D8*%
X101300000Y-89880000D02*
X101300000Y-92280000D01*
X100900000Y-92680000D02*
X98100000Y-92680000D01*
X98100000Y-89480000D02*
X100900000Y-89480000D01*
X97700000Y-92280000D02*
X97700000Y-89880000D01*
X100900000Y-92680000D02*
G75*
G03*
X101300000Y-92280000I-2J400002D01*
G01*
X101300000Y-89880000D02*
G75*
G03*
X100900000Y-89480000I-400002J-2D01*
G01*
X97700000Y-92280000D02*
G75*
G03*
X98100000Y-92680000I400000J0D01*
G01*
X98100000Y-89480000D02*
G75*
G03*
X97700000Y-89880000I0J-400000D01*
G01*
%TO.C,D7*%
X120300000Y-89880000D02*
X120300000Y-92280000D01*
X119900000Y-92680000D02*
X117100000Y-92680000D01*
X117100000Y-89480000D02*
X119900000Y-89480000D01*
X116700000Y-92280000D02*
X116700000Y-89880000D01*
X119900000Y-92680000D02*
G75*
G03*
X120300000Y-92280000I-2J400002D01*
G01*
X120300000Y-89880000D02*
G75*
G03*
X119900000Y-89480000I-400002J-2D01*
G01*
X116700000Y-92280000D02*
G75*
G03*
X117100000Y-92680000I400000J0D01*
G01*
X117100000Y-89480000D02*
G75*
G03*
X116700000Y-89880000I0J-400000D01*
G01*
%TO.C,D12*%
X82300000Y-70880000D02*
X82300000Y-73280000D01*
X81900000Y-73680000D02*
X79100000Y-73680000D01*
X79100000Y-70480000D02*
X81900000Y-70480000D01*
X78700000Y-73280000D02*
X78700000Y-70880000D01*
X81900000Y-73680000D02*
G75*
G03*
X82300000Y-73280000I-2J400002D01*
G01*
X82300000Y-70880000D02*
G75*
G03*
X81900000Y-70480000I-400002J-2D01*
G01*
X78700000Y-73280000D02*
G75*
G03*
X79100000Y-73680000I400000J0D01*
G01*
X79100000Y-70480000D02*
G75*
G03*
X78700000Y-70880000I0J-400000D01*
G01*
%TO.C,D38*%
X76200000Y-151200000D02*
X76200000Y-148800000D01*
X76600000Y-148400000D02*
X79400000Y-148400000D01*
X79400000Y-151600000D02*
X76600000Y-151600000D01*
X79800000Y-148800000D02*
X79800000Y-151200000D01*
X76600000Y-148400000D02*
G75*
G03*
X76200000Y-148800000I2J-400002D01*
G01*
X76200000Y-151200000D02*
G75*
G03*
X76600000Y-151600000I400002J2D01*
G01*
X79800000Y-148800000D02*
G75*
G03*
X79400000Y-148400000I-400000J0D01*
G01*
X79400000Y-151600000D02*
G75*
G03*
X79800000Y-151200000I0J400000D01*
G01*
%TO.C,D15*%
X101300000Y-51880000D02*
X101300000Y-54280000D01*
X100900000Y-54680000D02*
X98100000Y-54680000D01*
X98100000Y-51480000D02*
X100900000Y-51480000D01*
X97700000Y-54280000D02*
X97700000Y-51880000D01*
X100900000Y-54680000D02*
G75*
G03*
X101300000Y-54280000I-2J400002D01*
G01*
X101300000Y-51880000D02*
G75*
G03*
X100900000Y-51480000I-400002J-2D01*
G01*
X97700000Y-54280000D02*
G75*
G03*
X98100000Y-54680000I400000J0D01*
G01*
X98100000Y-51480000D02*
G75*
G03*
X97700000Y-51880000I0J-400000D01*
G01*
%TO.C,D9*%
X82300000Y-89880000D02*
X82300000Y-92280000D01*
X81900000Y-92680000D02*
X79100000Y-92680000D01*
X79100000Y-89480000D02*
X81900000Y-89480000D01*
X78700000Y-92280000D02*
X78700000Y-89880000D01*
X81900000Y-92680000D02*
G75*
G03*
X82300000Y-92280000I-2J400002D01*
G01*
X82300000Y-89880000D02*
G75*
G03*
X81900000Y-89480000I-400002J-2D01*
G01*
X78700000Y-92280000D02*
G75*
G03*
X79100000Y-92680000I400000J0D01*
G01*
X79100000Y-89480000D02*
G75*
G03*
X78700000Y-89880000I0J-400000D01*
G01*
%TO.C,D2*%
X82300000Y-127879999D02*
X82300000Y-130279999D01*
X81900000Y-130679999D02*
X79100000Y-130679999D01*
X79100000Y-127479999D02*
X81900000Y-127479999D01*
X78700000Y-130279999D02*
X78700000Y-127879999D01*
X81900000Y-130679999D02*
G75*
G03*
X82300000Y-130279999I-2J400002D01*
G01*
X82300000Y-127879999D02*
G75*
G03*
X81900000Y-127479999I-400002J-2D01*
G01*
X78700000Y-130279999D02*
G75*
G03*
X79100000Y-130679999I400000J0D01*
G01*
X79100000Y-127479999D02*
G75*
G03*
X78700000Y-127879999I0J-400000D01*
G01*
%TO.C,D13*%
X63300000Y-80380000D02*
X63300000Y-82780000D01*
X62900000Y-83180000D02*
X60100000Y-83180000D01*
X60100000Y-79980000D02*
X62900000Y-79980000D01*
X59700000Y-82780000D02*
X59700000Y-80380000D01*
X62900000Y-83180000D02*
G75*
G03*
X63300000Y-82780000I-2J400002D01*
G01*
X63300000Y-80380000D02*
G75*
G03*
X62900000Y-79980000I-400002J-2D01*
G01*
X59700000Y-82780000D02*
G75*
G03*
X60100000Y-83180000I400000J0D01*
G01*
X60100000Y-79980000D02*
G75*
G03*
X59700000Y-80380000I0J-400000D01*
G01*
%TO.C,D6*%
X63300000Y-118380000D02*
X63300000Y-120780000D01*
X62900000Y-121180000D02*
X60100000Y-121180000D01*
X60100000Y-117980000D02*
X62900000Y-117980000D01*
X59700000Y-120780000D02*
X59700000Y-118380000D01*
X62900000Y-121180000D02*
G75*
G03*
X63300000Y-120780000I-2J400002D01*
G01*
X63300000Y-118380000D02*
G75*
G03*
X62900000Y-117980000I-400002J-2D01*
G01*
X59700000Y-120780000D02*
G75*
G03*
X60100000Y-121180000I400000J0D01*
G01*
X60100000Y-117980000D02*
G75*
G03*
X59700000Y-118380000I0J-400000D01*
G01*
%TO.C,D10*%
X120300000Y-70880000D02*
X120300000Y-73280000D01*
X119900000Y-73680000D02*
X117100000Y-73680000D01*
X117100000Y-70480000D02*
X119900000Y-70480000D01*
X116700000Y-73280000D02*
X116700000Y-70880000D01*
X119900000Y-73680000D02*
G75*
G03*
X120300000Y-73280000I-2J400002D01*
G01*
X120300000Y-70880000D02*
G75*
G03*
X119900000Y-70480000I-400002J-2D01*
G01*
X116700000Y-73280000D02*
G75*
G03*
X117100000Y-73680000I400000J0D01*
G01*
X117100000Y-70480000D02*
G75*
G03*
X116700000Y-70880000I0J-400000D01*
G01*
%TO.C,D1*%
X110800000Y-127879999D02*
X110800000Y-130279999D01*
X110400000Y-130679999D02*
X107600000Y-130679999D01*
X107600000Y-127479999D02*
X110400000Y-127479999D01*
X107200000Y-130279999D02*
X107200000Y-127879999D01*
X110400000Y-130679999D02*
G75*
G03*
X110800000Y-130279999I-2J400002D01*
G01*
X110800000Y-127879999D02*
G75*
G03*
X110400000Y-127479999I-400002J-2D01*
G01*
X107200000Y-130279999D02*
G75*
G03*
X107600000Y-130679999I400000J0D01*
G01*
X107600000Y-127479999D02*
G75*
G03*
X107200000Y-127879999I0J-400000D01*
G01*
%TO.C,D14*%
X120300000Y-51880000D02*
X120300000Y-54280000D01*
X119900000Y-54680000D02*
X117100000Y-54680000D01*
X117100000Y-51480000D02*
X119900000Y-51480000D01*
X116700000Y-54280000D02*
X116700000Y-51880000D01*
X119900000Y-54680000D02*
G75*
G03*
X120300000Y-54280000I-2J400002D01*
G01*
X120300000Y-51880000D02*
G75*
G03*
X119900000Y-51480000I-400002J-2D01*
G01*
X116700000Y-54280000D02*
G75*
G03*
X117100000Y-54680000I400000J0D01*
G01*
X117100000Y-51480000D02*
G75*
G03*
X116700000Y-51880000I0J-400000D01*
G01*
%TO.C,D11*%
X101300000Y-70880000D02*
X101300000Y-73280000D01*
X100900000Y-73680000D02*
X98100000Y-73680000D01*
X98100000Y-70480000D02*
X100900000Y-70480000D01*
X97700000Y-73280000D02*
X97700000Y-70880000D01*
X100900000Y-73680000D02*
G75*
G03*
X101300000Y-73280000I-2J400002D01*
G01*
X101300000Y-70880000D02*
G75*
G03*
X100900000Y-70480000I-400002J-2D01*
G01*
X97700000Y-73280000D02*
G75*
G03*
X98100000Y-73680000I400000J0D01*
G01*
X98100000Y-70480000D02*
G75*
G03*
X97700000Y-70880000I0J-400000D01*
G01*
%TO.C,D16*%
X82300000Y-51880000D02*
X82300000Y-54280000D01*
X81900000Y-54680000D02*
X79100000Y-54680000D01*
X79100000Y-51480000D02*
X81900000Y-51480000D01*
X78700000Y-54280000D02*
X78700000Y-51880000D01*
X81900000Y-54680000D02*
G75*
G03*
X82300000Y-54280000I-2J400002D01*
G01*
X82300000Y-51880000D02*
G75*
G03*
X81900000Y-51480000I-400002J-2D01*
G01*
X78700000Y-54280000D02*
G75*
G03*
X79100000Y-54680000I400000J0D01*
G01*
X79100000Y-51480000D02*
G75*
G03*
X78700000Y-51880000I0J-400000D01*
G01*
%TO.C,D4*%
X101300000Y-108880000D02*
X101300000Y-111280000D01*
X100900000Y-111680000D02*
X98100000Y-111680000D01*
X98100000Y-108480000D02*
X100900000Y-108480000D01*
X97700000Y-111280000D02*
X97700000Y-108880000D01*
X100900000Y-111680000D02*
G75*
G03*
X101300000Y-111280000I-2J400002D01*
G01*
X101300000Y-108880000D02*
G75*
G03*
X100900000Y-108480000I-400002J-2D01*
G01*
X97700000Y-111280000D02*
G75*
G03*
X98100000Y-111680000I400000J0D01*
G01*
X98100000Y-108480000D02*
G75*
G03*
X97700000Y-108880000I0J-400000D01*
G01*
%TO.C,D5*%
X82300000Y-108880000D02*
X82300000Y-111280000D01*
X81900000Y-111680000D02*
X79100000Y-111680000D01*
X79100000Y-108480000D02*
X81900000Y-108480000D01*
X78700000Y-111280000D02*
X78700000Y-108880000D01*
X81900000Y-111680000D02*
G75*
G03*
X82300000Y-111280000I-2J400002D01*
G01*
X82300000Y-108880000D02*
G75*
G03*
X81900000Y-108480000I-400002J-2D01*
G01*
X78700000Y-111280000D02*
G75*
G03*
X79100000Y-111680000I400000J0D01*
G01*
X79100000Y-108480000D02*
G75*
G03*
X78700000Y-108880000I0J-400000D01*
G01*
%TO.C,D3*%
X120300000Y-108880000D02*
X120300000Y-111280000D01*
X119900000Y-111680000D02*
X117100000Y-111680000D01*
X117100000Y-108480000D02*
X119900000Y-108480000D01*
X116700000Y-111280000D02*
X116700000Y-108880000D01*
X119900000Y-111680000D02*
G75*
G03*
X120300000Y-111280000I-2J400002D01*
G01*
X120300000Y-108880000D02*
G75*
G03*
X119900000Y-108480000I-400002J-2D01*
G01*
X116700000Y-111280000D02*
G75*
G03*
X117100000Y-111680000I400000J0D01*
G01*
X117100000Y-108480000D02*
G75*
G03*
X116700000Y-108880000I0J-400000D01*
G01*
%TO.C,D40*%
X92200000Y-151200000D02*
X92200000Y-148800000D01*
X92600000Y-148400000D02*
X95400000Y-148400000D01*
X95400000Y-151600000D02*
X92600000Y-151600000D01*
X95800000Y-148800000D02*
X95800000Y-151200000D01*
X92600000Y-148400000D02*
G75*
G03*
X92200000Y-148800000I2J-400002D01*
G01*
X92200000Y-151200000D02*
G75*
G03*
X92600000Y-151600000I400002J2D01*
G01*
X95800000Y-148800000D02*
G75*
G03*
X95400000Y-148400000I-400000J0D01*
G01*
X95400000Y-151600000D02*
G75*
G03*
X95800000Y-151200000I0J400000D01*
G01*
%TD*%
M02*
