%TF.GenerationSoftware,KiCad,Pcbnew,7.0.7-7.0.7~ubuntu20.04.1*%
%TF.CreationDate,2023-08-30T14:12:52-07:00*%
%TF.ProjectId,v2_controller,76325f63-6f6e-4747-926f-6c6c65722e6b,rev?*%
%TF.SameCoordinates,Original*%
%TF.FileFunction,Profile,NP*%
%FSLAX46Y46*%
G04 Gerber Fmt 4.6, Leading zero omitted, Abs format (unit mm)*
G04 Created by KiCad (PCBNEW 7.0.7-7.0.7~ubuntu20.04.1) date 2023-08-30 14:12:52*
%MOMM*%
%LPD*%
G01*
G04 APERTURE LIST*
%TA.AperFunction,Profile*%
%ADD10C,0.100000*%
%TD*%
%TA.AperFunction,Profile*%
%ADD11C,0.120000*%
%TD*%
G04 APERTURE END LIST*
D10*
X46000000Y-39000000D02*
X134000000Y-39000000D01*
X134000000Y-39000000D02*
X143000000Y-65000000D01*
X143000000Y-65000000D02*
X143000000Y-114000000D01*
X43000000Y-48000000D02*
X46000000Y-39000000D01*
X143000000Y-114000000D02*
X106000000Y-155000000D01*
X106000000Y-155000000D02*
X74000000Y-155000000D01*
X74000000Y-155000000D02*
X43000000Y-120000000D01*
X43000000Y-48000000D02*
X43000000Y-120000000D01*
D11*
%TO.C,D41*%
X103700000Y-151500000D02*
X100300000Y-151500000D01*
X103700000Y-148500000D02*
X103700000Y-151500000D01*
X100300000Y-151500000D02*
X100300000Y-148500000D01*
X100300000Y-148500000D02*
X103700000Y-148500000D01*
%TO.C,D39*%
X87700000Y-151500000D02*
X84300000Y-151500000D01*
X87700000Y-148500000D02*
X87700000Y-151500000D01*
X84300000Y-151500000D02*
X84300000Y-148500000D01*
X84300000Y-148500000D02*
X87700000Y-148500000D01*
%TO.C,D17*%
X59800000Y-51580000D02*
X63200000Y-51580000D01*
X59800000Y-54580000D02*
X59800000Y-51580000D01*
X63200000Y-51580000D02*
X63200000Y-54580000D01*
X63200000Y-54580000D02*
X59800000Y-54580000D01*
%TO.C,D8*%
X97800000Y-89580000D02*
X101200000Y-89580000D01*
X97800000Y-92580000D02*
X97800000Y-89580000D01*
X101200000Y-89580000D02*
X101200000Y-92580000D01*
X101200000Y-92580000D02*
X97800000Y-92580000D01*
%TO.C,D7*%
X116800000Y-89580000D02*
X120200000Y-89580000D01*
X116800000Y-92580000D02*
X116800000Y-89580000D01*
X120200000Y-89580000D02*
X120200000Y-92580000D01*
X120200000Y-92580000D02*
X116800000Y-92580000D01*
%TO.C,D12*%
X78800000Y-70580000D02*
X82200000Y-70580000D01*
X78800000Y-73580000D02*
X78800000Y-70580000D01*
X82200000Y-70580000D02*
X82200000Y-73580000D01*
X82200000Y-73580000D02*
X78800000Y-73580000D01*
%TO.C,D38*%
X79700000Y-151500000D02*
X76300000Y-151500000D01*
X79700000Y-148500000D02*
X79700000Y-151500000D01*
X76300000Y-151500000D02*
X76300000Y-148500000D01*
X76300000Y-148500000D02*
X79700000Y-148500000D01*
%TO.C,D15*%
X97800000Y-51580000D02*
X101200000Y-51580000D01*
X97800000Y-54580000D02*
X97800000Y-51580000D01*
X101200000Y-51580000D02*
X101200000Y-54580000D01*
X101200000Y-54580000D02*
X97800000Y-54580000D01*
%TO.C,D9*%
X78800000Y-89580000D02*
X82200000Y-89580000D01*
X78800000Y-92580000D02*
X78800000Y-89580000D01*
X82200000Y-89580000D02*
X82200000Y-92580000D01*
X82200000Y-92580000D02*
X78800000Y-92580000D01*
%TO.C,D2*%
X78800000Y-127579999D02*
X82200000Y-127579999D01*
X78800000Y-130579999D02*
X78800000Y-127579999D01*
X82200000Y-127579999D02*
X82200000Y-130579999D01*
X82200000Y-130579999D02*
X78800000Y-130579999D01*
%TO.C,D13*%
X59800000Y-80080000D02*
X63200000Y-80080000D01*
X59800000Y-83080000D02*
X59800000Y-80080000D01*
X63200000Y-80080000D02*
X63200000Y-83080000D01*
X63200000Y-83080000D02*
X59800000Y-83080000D01*
%TO.C,D6*%
X59800000Y-118080000D02*
X63200000Y-118080000D01*
X59800000Y-121080000D02*
X59800000Y-118080000D01*
X63200000Y-118080000D02*
X63200000Y-121080000D01*
X63200000Y-121080000D02*
X59800000Y-121080000D01*
%TO.C,D10*%
X116800000Y-70580000D02*
X120200000Y-70580000D01*
X116800000Y-73580000D02*
X116800000Y-70580000D01*
X120200000Y-70580000D02*
X120200000Y-73580000D01*
X120200000Y-73580000D02*
X116800000Y-73580000D01*
%TO.C,D1*%
X107300000Y-127579999D02*
X110700000Y-127579999D01*
X107300000Y-130579999D02*
X107300000Y-127579999D01*
X110700000Y-127579999D02*
X110700000Y-130579999D01*
X110700000Y-130579999D02*
X107300000Y-130579999D01*
%TO.C,D14*%
X116800000Y-51580000D02*
X120200000Y-51580000D01*
X116800000Y-54580000D02*
X116800000Y-51580000D01*
X120200000Y-51580000D02*
X120200000Y-54580000D01*
X120200000Y-54580000D02*
X116800000Y-54580000D01*
%TO.C,D11*%
X97800000Y-70580000D02*
X101200000Y-70580000D01*
X97800000Y-73580000D02*
X97800000Y-70580000D01*
X101200000Y-70580000D02*
X101200000Y-73580000D01*
X101200000Y-73580000D02*
X97800000Y-73580000D01*
%TO.C,D16*%
X78800000Y-51580000D02*
X82200000Y-51580000D01*
X78800000Y-54580000D02*
X78800000Y-51580000D01*
X82200000Y-51580000D02*
X82200000Y-54580000D01*
X82200000Y-54580000D02*
X78800000Y-54580000D01*
%TO.C,D4*%
X97800000Y-108580000D02*
X101200000Y-108580000D01*
X97800000Y-111580000D02*
X97800000Y-108580000D01*
X101200000Y-108580000D02*
X101200000Y-111580000D01*
X101200000Y-111580000D02*
X97800000Y-111580000D01*
%TO.C,D5*%
X78800000Y-108580000D02*
X82200000Y-108580000D01*
X78800000Y-111580000D02*
X78800000Y-108580000D01*
X82200000Y-108580000D02*
X82200000Y-111580000D01*
X82200000Y-111580000D02*
X78800000Y-111580000D01*
%TO.C,D3*%
X116800000Y-108580000D02*
X120200000Y-108580000D01*
X116800000Y-111580000D02*
X116800000Y-108580000D01*
X120200000Y-108580000D02*
X120200000Y-111580000D01*
X120200000Y-111580000D02*
X116800000Y-111580000D01*
%TO.C,D40*%
X95700000Y-151500000D02*
X92300000Y-151500000D01*
X95700000Y-148500000D02*
X95700000Y-151500000D01*
X92300000Y-151500000D02*
X92300000Y-148500000D01*
X92300000Y-148500000D02*
X95700000Y-148500000D01*
%TD*%
M02*
