%TF.GenerationSoftware,KiCad,Pcbnew,7.0.7-7.0.7~ubuntu20.04.1*%
%TF.CreationDate,2023-08-30T15:25:16-07:00*%
%TF.ProjectId,v2_controller,76325f63-6f6e-4747-926f-6c6c65722e6b,rev?*%
%TF.SameCoordinates,Original*%
%TF.FileFunction,Soldermask,Bot*%
%TF.FilePolarity,Negative*%
%FSLAX46Y46*%
G04 Gerber Fmt 4.6, Leading zero omitted, Abs format (unit mm)*
G04 Created by KiCad (PCBNEW 7.0.7-7.0.7~ubuntu20.04.1) date 2023-08-30 15:25:16*
%MOMM*%
%LPD*%
G01*
G04 APERTURE LIST*
G04 Aperture macros list*
%AMRoundRect*
0 Rectangle with rounded corners*
0 $1 Rounding radius*
0 $2 $3 $4 $5 $6 $7 $8 $9 X,Y pos of 4 corners*
0 Add a 4 corners polygon primitive as box body*
4,1,4,$2,$3,$4,$5,$6,$7,$8,$9,$2,$3,0*
0 Add four circle primitives for the rounded corners*
1,1,$1+$1,$2,$3*
1,1,$1+$1,$4,$5*
1,1,$1+$1,$6,$7*
1,1,$1+$1,$8,$9*
0 Add four rect primitives between the rounded corners*
20,1,$1+$1,$2,$3,$4,$5,0*
20,1,$1+$1,$4,$5,$6,$7,0*
20,1,$1+$1,$6,$7,$8,$9,0*
20,1,$1+$1,$8,$9,$2,$3,0*%
G04 Aperture macros list end*
%ADD10C,0.700000*%
%ADD11O,1.400000X0.900000*%
%ADD12O,0.900000X1.400000*%
%ADD13RoundRect,0.250000X0.600000X0.600000X-0.600000X0.600000X-0.600000X-0.600000X0.600000X-0.600000X0*%
%ADD14C,1.700000*%
%ADD15RoundRect,0.250000X-0.600000X-0.600000X0.600000X-0.600000X0.600000X0.600000X-0.600000X0.600000X0*%
%ADD16C,0.800000*%
%ADD17C,5.400000*%
%ADD18R,1.700000X1.700000*%
%ADD19O,1.700000X1.700000*%
%ADD20C,3.000000*%
%ADD21C,3.987800*%
%ADD22O,4.000000X0.320000*%
G04 APERTURE END LIST*
D10*
%TO.C,J1*%
X64400000Y-93750000D03*
X72400000Y-93750000D03*
D11*
X66030000Y-91430000D03*
X66030000Y-96070000D03*
X70770000Y-91430000D03*
X70770000Y-96070000D03*
%TD*%
D10*
%TO.C,J2*%
X132672000Y-118698000D03*
X132672000Y-110698000D03*
D12*
X130352000Y-117068000D03*
X134992000Y-117068000D03*
X130352000Y-112328000D03*
X134992000Y-112328000D03*
%TD*%
D13*
%TO.C,J3*%
X134300000Y-80060000D03*
D14*
X131760000Y-80060000D03*
X134300000Y-77520000D03*
X131760000Y-77520000D03*
X134300000Y-74980000D03*
X131760000Y-74980000D03*
X134300000Y-72440000D03*
X131760000Y-72440000D03*
X134300000Y-69900000D03*
X131760000Y-69900000D03*
X134300000Y-67360000D03*
X131760000Y-67360000D03*
X134300000Y-64820000D03*
X131760000Y-64820000D03*
X134300000Y-62280000D03*
X131760000Y-62280000D03*
X134300000Y-59740000D03*
X131760000Y-59740000D03*
X134300000Y-57200000D03*
X131760000Y-57200000D03*
%TD*%
D15*
%TO.C,J4*%
X47429600Y-54718400D03*
D14*
X49969600Y-54718400D03*
X47429600Y-57258400D03*
X49969600Y-57258400D03*
X47429600Y-59798400D03*
X49969600Y-59798400D03*
X47429600Y-62338400D03*
X49969600Y-62338400D03*
X47429600Y-64878400D03*
X49969600Y-64878400D03*
X47429600Y-67418400D03*
X49969600Y-67418400D03*
X47429600Y-69958400D03*
X49969600Y-69958400D03*
X47429600Y-72498400D03*
X49969600Y-72498400D03*
X47429600Y-75038400D03*
X49969600Y-75038400D03*
X47429600Y-77578400D03*
X49969600Y-77578400D03*
%TD*%
D16*
%TO.C,H2*%
X129475000Y-44500000D03*
X130068109Y-43068109D03*
X130068109Y-45931891D03*
X131500000Y-42475000D03*
D17*
X131500000Y-44500000D03*
D16*
X131500000Y-46525000D03*
X132931891Y-43068109D03*
X132931891Y-45931891D03*
X133525000Y-44500000D03*
%TD*%
%TO.C,H4*%
X113975000Y-138000000D03*
X114568109Y-136568109D03*
X114568109Y-139431891D03*
X116000000Y-135975000D03*
D17*
X116000000Y-138000000D03*
D16*
X116000000Y-140025000D03*
X117431891Y-136568109D03*
X117431891Y-139431891D03*
X118025000Y-138000000D03*
%TD*%
D18*
%TO.C,J7*%
X134480000Y-49600000D03*
D19*
X131940000Y-49600000D03*
X129400000Y-49600000D03*
%TD*%
D16*
%TO.C,H3*%
X61975000Y-138000000D03*
X62568109Y-136568109D03*
X62568109Y-139431891D03*
X64000000Y-135975000D03*
D17*
X64000000Y-138000000D03*
D16*
X64000000Y-140025000D03*
X65431891Y-136568109D03*
X65431891Y-139431891D03*
X66025000Y-138000000D03*
%TD*%
D18*
%TO.C,J6*%
X110363000Y-136779000D03*
D19*
X107823000Y-136779000D03*
X110363000Y-139319000D03*
X107823000Y-139319000D03*
X110363000Y-141859000D03*
X107823000Y-141859000D03*
%TD*%
D16*
%TO.C,H1*%
X46475000Y-44500000D03*
X47068109Y-43068109D03*
X47068109Y-45931891D03*
X48500000Y-42475000D03*
D17*
X48500000Y-44500000D03*
D16*
X48500000Y-46525000D03*
X49931891Y-43068109D03*
X49931891Y-45931891D03*
X50525000Y-44500000D03*
%TD*%
D18*
%TO.C,J5*%
X96290000Y-119200000D03*
D19*
X93750000Y-119200000D03*
X96290000Y-121740000D03*
X93750000Y-121740000D03*
X96290000Y-124280000D03*
X93750000Y-124280000D03*
X96290000Y-126820000D03*
X93750000Y-126820000D03*
%TD*%
D20*
%TO.C,SW10*%
X122310000Y-64460000D03*
D21*
X118500000Y-67000000D03*
D20*
X115960000Y-61920000D03*
%TD*%
%TO.C,SW17*%
X65310000Y-45460000D03*
D21*
X61500000Y-48000000D03*
D20*
X58960000Y-42920000D03*
%TD*%
%TO.C,SW14*%
X122310000Y-45460000D03*
D21*
X118500000Y-48000000D03*
D20*
X115960000Y-42920000D03*
%TD*%
%TO.C,SW7*%
X122310000Y-83460000D03*
D21*
X118500000Y-86000000D03*
D20*
X115960000Y-80920000D03*
%TD*%
%TO.C,SW15*%
X103310000Y-45460000D03*
D21*
X99500000Y-48000000D03*
D20*
X96960000Y-42920000D03*
%TD*%
%TO.C,SW13*%
X65310000Y-73960000D03*
D21*
X61500000Y-76500000D03*
D20*
X58960000Y-71420000D03*
%TD*%
%TO.C,SW1*%
X112810000Y-121460000D03*
D21*
X109000000Y-124000000D03*
D20*
X106460000Y-118920000D03*
%TD*%
%TO.C,SW4*%
X103310000Y-102460000D03*
D21*
X99500000Y-105000000D03*
D20*
X96960000Y-99920000D03*
%TD*%
%TO.C,SW16*%
X84310000Y-45460000D03*
D21*
X80500000Y-48000000D03*
D20*
X77960000Y-42920000D03*
%TD*%
%TO.C,SW8*%
X103310000Y-83460000D03*
D21*
X99500000Y-86000000D03*
D20*
X96960000Y-80920000D03*
%TD*%
D22*
%TO.C,U2*%
X76000000Y-144930000D03*
X76000000Y-144310000D03*
X76000000Y-143690000D03*
X76000000Y-143070000D03*
X76000000Y-142450000D03*
X76000000Y-141830000D03*
X76000000Y-141210000D03*
X76000000Y-140590000D03*
X76000000Y-139970000D03*
X76000000Y-139350000D03*
X76000000Y-138730000D03*
X76000000Y-138110000D03*
X76000000Y-137490000D03*
X76000000Y-136870000D03*
%TD*%
D20*
%TO.C,SW9*%
X84310000Y-83460000D03*
D21*
X80500000Y-86000000D03*
D20*
X77960000Y-80920000D03*
%TD*%
%TO.C,SW11*%
X103310000Y-64460000D03*
D21*
X99500000Y-67000000D03*
D20*
X96960000Y-61920000D03*
%TD*%
%TO.C,SW3*%
X122310000Y-102460000D03*
D21*
X118500000Y-105000000D03*
D20*
X115960000Y-99920000D03*
%TD*%
%TO.C,SW6*%
X65310000Y-111960000D03*
D21*
X61500000Y-114500000D03*
D20*
X58960000Y-109420000D03*
%TD*%
%TO.C,SW5*%
X84310000Y-102460000D03*
D21*
X80500000Y-105000000D03*
D20*
X77960000Y-99920000D03*
%TD*%
%TO.C,SW2*%
X84310000Y-121460000D03*
D21*
X80500000Y-124000000D03*
D20*
X77960000Y-118920000D03*
%TD*%
%TO.C,SW12*%
X84310000Y-64460000D03*
D21*
X80500000Y-67000000D03*
D20*
X77960000Y-61920000D03*
%TD*%
M02*
