M48
; DRILL file {KiCad 7.0.7-7.0.7~ubuntu20.04.1} date Wed 30 Aug 2023 03:25:16 PM PDT
; FORMAT={-:-/ absolute / inch / decimal}
; #@! TF.CreationDate,2023-08-30T15:25:16-07:00
; #@! TF.GenerationSoftware,Kicad,Pcbnew,7.0.7-7.0.7~ubuntu20.04.1
; #@! TF.FileFunction,NonPlated,1,4,NPTH
FMAT,2
INCH
; #@! TA.AperFunction,NonPlated,NPTH,ComponentDrill
T1C0.0276
; #@! TA.AperFunction,NonPlated,NPTH,ComponentDrill
T2C0.1181
; #@! TA.AperFunction,NonPlated,NPTH,ComponentDrill
T3C0.1570
%
G90
G05
T1
X2.5354Y-3.6909
X2.8504Y-3.6909
X5.2233Y-4.3582
X5.2233Y-4.6731
T2
X2.3213Y-1.6898
X2.3213Y-2.8118
X2.3213Y-4.3079
X2.5713Y-1.7898
X2.5713Y-2.9118
X2.5713Y-4.4079
X3.0693Y-1.6898
X3.0693Y-2.4378
X3.0693Y-3.1858
X3.0693Y-3.9339
X3.0693Y-4.6819
X3.3193Y-1.7898
X3.3193Y-2.5378
X3.3193Y-3.2858
X3.3193Y-4.0339
X3.3193Y-4.7819
X3.8173Y-1.6898
X3.8173Y-2.4378
X3.8173Y-3.1858
X3.8173Y-3.9339
X4.0673Y-1.7898
X4.0673Y-2.5378
X4.0673Y-3.2858
X4.0673Y-4.0339
X4.1913Y-4.6819
X4.4413Y-4.7819
X4.5654Y-1.6898
X4.5654Y-2.4378
X4.5654Y-3.1858
X4.5654Y-3.9339
X4.8154Y-1.7898
X4.8154Y-2.5378
X4.8154Y-3.2858
X4.8154Y-4.0339
T3
X2.4213Y-1.8898
X2.4213Y-3.0118
X2.4213Y-4.5079
X3.1693Y-1.8898
X3.1693Y-2.6378
X3.1693Y-3.3858
X3.1693Y-4.1339
X3.1693Y-4.8819
X3.9173Y-1.8898
X3.9173Y-2.6378
X3.9173Y-3.3858
X3.9173Y-4.1339
X4.2913Y-4.8819
X4.6654Y-1.8898
X4.6654Y-2.6378
X4.6654Y-3.3858
X4.6654Y-4.1339
T0
M30
