%TF.GenerationSoftware,KiCad,Pcbnew,7.0.7-7.0.7~ubuntu20.04.1*%
%TF.CreationDate,2023-08-30T15:25:16-07:00*%
%TF.ProjectId,v2_controller,76325f63-6f6e-4747-926f-6c6c65722e6b,rev?*%
%TF.SameCoordinates,Original*%
%TF.FileFunction,Other,Comment*%
%FSLAX46Y46*%
G04 Gerber Fmt 4.6, Leading zero omitted, Abs format (unit mm)*
G04 Created by KiCad (PCBNEW 7.0.7-7.0.7~ubuntu20.04.1) date 2023-08-30 15:25:16*
%MOMM*%
%LPD*%
G01*
G04 APERTURE LIST*
%ADD10C,0.120000*%
%ADD11C,0.150000*%
G04 APERTURE END LIST*
D10*
%TO.C,D41*%
X103600000Y-151400000D02*
X100400000Y-151400000D01*
X103600000Y-148600000D02*
X103600000Y-151400000D01*
X100400000Y-151400000D02*
X100400000Y-148600000D01*
X100400000Y-148600000D02*
X103600000Y-148600000D01*
%TO.C,D39*%
X87600000Y-151400000D02*
X84400000Y-151400000D01*
X87600000Y-148600000D02*
X87600000Y-151400000D01*
X84400000Y-151400000D02*
X84400000Y-148600000D01*
X84400000Y-148600000D02*
X87600000Y-148600000D01*
%TO.C,D17*%
X59900000Y-51680000D02*
X63100000Y-51680000D01*
X59900000Y-54480000D02*
X59900000Y-51680000D01*
X63100000Y-51680000D02*
X63100000Y-54480000D01*
X63100000Y-54480000D02*
X59900000Y-54480000D01*
%TO.C,D8*%
X97900000Y-89680000D02*
X101100000Y-89680000D01*
X97900000Y-92480000D02*
X97900000Y-89680000D01*
X101100000Y-89680000D02*
X101100000Y-92480000D01*
X101100000Y-92480000D02*
X97900000Y-92480000D01*
%TO.C,D7*%
X116900000Y-89680000D02*
X120100000Y-89680000D01*
X116900000Y-92480000D02*
X116900000Y-89680000D01*
X120100000Y-89680000D02*
X120100000Y-92480000D01*
X120100000Y-92480000D02*
X116900000Y-92480000D01*
%TO.C,D12*%
X78900000Y-70680000D02*
X82100000Y-70680000D01*
X78900000Y-73480000D02*
X78900000Y-70680000D01*
X82100000Y-70680000D02*
X82100000Y-73480000D01*
X82100000Y-73480000D02*
X78900000Y-73480000D01*
%TO.C,D38*%
X79600000Y-151400000D02*
X76400000Y-151400000D01*
X79600000Y-148600000D02*
X79600000Y-151400000D01*
X76400000Y-151400000D02*
X76400000Y-148600000D01*
X76400000Y-148600000D02*
X79600000Y-148600000D01*
D11*
%TO.C,H2*%
X134200000Y-44500000D02*
G75*
G03*
X134200000Y-44500000I-2700000J0D01*
G01*
D10*
%TO.C,D15*%
X97900000Y-51680000D02*
X101100000Y-51680000D01*
X97900000Y-54480000D02*
X97900000Y-51680000D01*
X101100000Y-51680000D02*
X101100000Y-54480000D01*
X101100000Y-54480000D02*
X97900000Y-54480000D01*
%TO.C,D9*%
X78900000Y-89680000D02*
X82100000Y-89680000D01*
X78900000Y-92480000D02*
X78900000Y-89680000D01*
X82100000Y-89680000D02*
X82100000Y-92480000D01*
X82100000Y-92480000D02*
X78900000Y-92480000D01*
%TO.C,D2*%
X78900000Y-127679999D02*
X82100000Y-127679999D01*
X78900000Y-130479999D02*
X78900000Y-127679999D01*
X82100000Y-127679999D02*
X82100000Y-130479999D01*
X82100000Y-130479999D02*
X78900000Y-130479999D01*
D11*
%TO.C,H4*%
X118700000Y-138000000D02*
G75*
G03*
X118700000Y-138000000I-2700000J0D01*
G01*
D10*
%TO.C,D13*%
X59900000Y-80180000D02*
X63100000Y-80180000D01*
X59900000Y-82980000D02*
X59900000Y-80180000D01*
X63100000Y-80180000D02*
X63100000Y-82980000D01*
X63100000Y-82980000D02*
X59900000Y-82980000D01*
%TO.C,D6*%
X59900000Y-118180000D02*
X63100000Y-118180000D01*
X59900000Y-120980000D02*
X59900000Y-118180000D01*
X63100000Y-118180000D02*
X63100000Y-120980000D01*
X63100000Y-120980000D02*
X59900000Y-120980000D01*
D11*
%TO.C,H3*%
X66700000Y-138000000D02*
G75*
G03*
X66700000Y-138000000I-2700000J0D01*
G01*
D10*
%TO.C,D10*%
X116900000Y-70680000D02*
X120100000Y-70680000D01*
X116900000Y-73480000D02*
X116900000Y-70680000D01*
X120100000Y-70680000D02*
X120100000Y-73480000D01*
X120100000Y-73480000D02*
X116900000Y-73480000D01*
%TO.C,D1*%
X107400000Y-127679999D02*
X110600000Y-127679999D01*
X107400000Y-130479999D02*
X107400000Y-127679999D01*
X110600000Y-127679999D02*
X110600000Y-130479999D01*
X110600000Y-130479999D02*
X107400000Y-130479999D01*
%TO.C,D14*%
X116900000Y-51680000D02*
X120100000Y-51680000D01*
X116900000Y-54480000D02*
X116900000Y-51680000D01*
X120100000Y-51680000D02*
X120100000Y-54480000D01*
X120100000Y-54480000D02*
X116900000Y-54480000D01*
%TO.C,D11*%
X97900000Y-70680000D02*
X101100000Y-70680000D01*
X97900000Y-73480000D02*
X97900000Y-70680000D01*
X101100000Y-70680000D02*
X101100000Y-73480000D01*
X101100000Y-73480000D02*
X97900000Y-73480000D01*
%TO.C,D16*%
X78900000Y-51680000D02*
X82100000Y-51680000D01*
X78900000Y-54480000D02*
X78900000Y-51680000D01*
X82100000Y-51680000D02*
X82100000Y-54480000D01*
X82100000Y-54480000D02*
X78900000Y-54480000D01*
%TO.C,D4*%
X97900000Y-108680000D02*
X101100000Y-108680000D01*
X97900000Y-111480000D02*
X97900000Y-108680000D01*
X101100000Y-108680000D02*
X101100000Y-111480000D01*
X101100000Y-111480000D02*
X97900000Y-111480000D01*
D11*
%TO.C,H1*%
X51200000Y-44500000D02*
G75*
G03*
X51200000Y-44500000I-2700000J0D01*
G01*
D10*
%TO.C,D5*%
X78900000Y-108680000D02*
X82100000Y-108680000D01*
X78900000Y-111480000D02*
X78900000Y-108680000D01*
X82100000Y-108680000D02*
X82100000Y-111480000D01*
X82100000Y-111480000D02*
X78900000Y-111480000D01*
%TO.C,D3*%
X116900000Y-108680000D02*
X120100000Y-108680000D01*
X116900000Y-111480000D02*
X116900000Y-108680000D01*
X120100000Y-108680000D02*
X120100000Y-111480000D01*
X120100000Y-111480000D02*
X116900000Y-111480000D01*
%TO.C,D40*%
X95600000Y-151400000D02*
X92400000Y-151400000D01*
X95600000Y-148600000D02*
X95600000Y-151400000D01*
X92400000Y-151400000D02*
X92400000Y-148600000D01*
X92400000Y-148600000D02*
X95600000Y-148600000D01*
%TD*%
M02*
