M48
; DRILL file {KiCad 7.0.7-7.0.7~ubuntu20.04.1} date Wed 30 Aug 2023 09:57:55 PM PDT
; FORMAT={-:-/ absolute / inch / decimal}
; #@! TF.CreationDate,2023-08-30T21:57:55-07:00
; #@! TF.GenerationSoftware,Kicad,Pcbnew,7.0.7-7.0.7~ubuntu20.04.1
; #@! TF.FileFunction,Plated,1,4,PTH
FMAT,2
INCH
; #@! TA.AperFunction,Plated,PTH,ViaDrill
T1C0.0118
; #@! TA.AperFunction,Plated,PTH,ViaDrill
T2C0.0157
; #@! TA.AperFunction,Plated,PTH,ComponentDrill
T3C0.0197
; #@! TA.AperFunction,Plated,PTH,ComponentDrill
T4C0.0236
; #@! TA.AperFunction,Plated,PTH,ComponentDrill
T5C0.0394
; #@! TA.AperFunction,Plated,PTH,ComponentDrill
T6C0.1063
%
G90
G05
T1
X1.8622Y-4.1693
X1.9183Y-2.0876
X1.9291Y-4.3189
X1.9291Y-4.6969
X1.9567Y-4.378
X1.9567Y-4.7717
X2.0801Y-4.225
X2.1908Y-2.2308
X2.1983Y-2.3233
X2.1983Y-2.4233
X2.1983Y-2.5233
X2.2466Y-2.575
X2.255Y-4.175
X2.3004Y-4.1744
X2.3458Y-2.5758
X2.3516Y-3.3583
X2.3983Y-3.7833
X2.3983Y-3.8333
X2.3983Y-3.8833
X2.3983Y-3.9333
X2.3983Y-3.9833
X2.3983Y-4.0333
X2.4252Y-4.9213
X2.45Y-2.575
X2.4961Y-4.8504
X2.5083Y-3.4883
X2.5197Y-3.9862
X2.5197Y-4.0354
X2.555Y-3.41
X2.6083Y-3.69
X2.6228Y-2.0933
X2.6473Y-3.6969
X2.6575Y-1.948
X2.6615Y-3.6142
X2.6654Y-3.5748
X2.687Y-3.6969
X2.6882Y-3.8026
X2.6929Y-2.7079
X2.6969Y-3.6102
X2.7008Y-1.9685
X2.7012Y-2.5748
X2.7165Y-3.2933
X2.7294Y-3.6907
X2.7561Y-5.5122
X2.7638Y-5.189
X2.7654Y-3.6929
X2.811Y-5.1654
X2.815Y-3.4285
X2.8346Y-2.7559
X2.8346Y-4.2244
X2.8504Y-5.6378
X2.8504Y-5.6732
X2.8504Y-5.7165
X2.8543Y-5.7559
X2.8583Y-3.5039
X2.8583Y-4.3307
X2.8583Y-4.4764
X2.8587Y-3.3233
X2.8614Y-2.8465
X2.8622Y-5.437
X2.8858Y-4.4488
X2.8858Y-5.413
X2.9016Y-2.1693
X2.9488Y-5.3583
X2.9724Y-3.4547
X2.9955Y-3.7252
X2.9969Y-5.0531
X3.002Y-4.5177
X3.0157Y-3.3701
X3.0472Y-4.9488
X3.0551Y-4.2263
X3.2854Y-5.2028
X3.3346Y-4.5551
X3.4254Y-5.1577
X3.4685Y-4.4213
X3.5133Y-3.9083
X3.5354Y-4.9528
X3.5787Y-5.0051
X3.625Y-4.18
X3.8976Y-4.5571
X3.8989Y-4.487
X3.937Y-4.4488
X3.937Y-4.5669
X4.1106Y-4.2569
X4.1142Y-4.5768
X4.1297Y-2.7559
X4.1535Y-4.5374
X4.1634Y-4.2717
X4.1709Y-4.1988
X4.185Y-3.475
X4.2016Y-2.685
X4.2165Y-3.4034
X4.2165Y-3.6378
X4.2602Y-5.2248
X4.3079Y-3.425
X4.3087Y-3.8913
X4.311Y-1.9724
X4.311Y-2.7283
X4.374Y-5.1575
X4.4016Y-4.9843
X4.5Y-4.9252
X4.525Y-5.245
X4.5827Y-5.0803
X4.5827Y-5.2156
X4.589Y-4.9016
X4.6693Y-5.0945
X4.7433Y-5.2441
X4.7863Y-4.6459
X4.81Y-2.34
X4.8502Y-2.3398
X4.895Y-2.34
X4.8976Y-4.3898
X4.9094Y-4.9016
X4.94Y-2.34
X4.9683Y-4.5783
X4.9833Y-4.3183
X5.0315Y-2.4567
X5.0383Y-4.3183
X5.2244Y-4.4291
X5.2244Y-4.4646
X5.2244Y-4.5088
X5.2244Y-4.5984
X5.2248Y-4.5409
X5.3153Y-4.5157
X5.3198Y-4.4844
X5.3511Y-4.4724
X5.4488Y-3.5315
X5.4488Y-3.622
T2
X1.7433Y-4.2683
X1.752Y-3.3268
X1.8049Y-4.3723
X1.8598Y-4.5571
X1.8898Y-4.685
X1.8959Y-4.2913
X1.9035Y-4.0413
X1.9055Y-4.8071
X1.9882Y-4.3504
X2.0551Y-3.4823
X2.1983Y-2.2756
X2.1983Y-2.374
X2.1983Y-2.4724
X2.1983Y-2.5748
X2.2146Y-2.0768
X2.2146Y-4.6949
X2.2244Y-3.1693
X2.248Y-2.5236
X2.2539Y-2.0768
X2.2539Y-3.1988
X2.2539Y-4.6949
X2.2776Y-4.0394
X2.2835Y-3.4823
X2.2992Y-2.5748
X2.3268Y-3.3268
X2.3425Y-4.1732
X2.3465Y-3.7992
X2.3467Y-3.9682
X2.4016Y-2.5748
X2.4252Y-4.9606
X2.4803Y-5.252
X2.5197Y-3.9449
X2.5197Y-4.0748
X2.5295Y-3.5728
X2.5315Y-3.8465
X2.5394Y-4.8465
X2.5689Y-3.1496
X2.5689Y-4.6457
X2.5787Y-2.5748
X2.5883Y-2.0583
X2.5945Y-3.4291
X2.7165Y-5.185
X2.7283Y-2.5433
X2.7323Y-2.7244
X2.7323Y-3.2598
X2.7402Y-1.937
X2.7677Y-5.6969
X2.7992Y-4.1063
X2.8071Y-5.5984
X2.811Y-3.3228
X2.815Y-3.4843
X2.8307Y-5.126
X2.8346Y-4.185
X2.8583Y-4.5157
X2.8622Y-2.1496
X2.8622Y-5.3622
X2.878Y-2.7992
X2.8898Y-5.535
X2.8898Y-5.609
X2.8976Y-5.7559
X2.9213Y-5.9764
X2.9232Y-3.5925
X2.9626Y-2.0768
X2.9626Y-2.9134
X2.9626Y-4.4094
X2.9646Y-5.0748
X3.002Y-2.0768
X3.002Y-2.9134
X3.002Y-3.5827
X3.002Y-4.4094
X3.0039Y-4.5591
X3.0118Y-4.9252
X3.0157Y-3.4528
X3.0197Y-5.1417
X3.0394Y-3.7244
X3.0551Y-4.185
X3.2087Y-2.4488
X3.2087Y-3.189
X3.2205Y-5.7894
X3.2205Y-5.8323
X3.2382Y-5.9744
X3.3346Y-3.5563
X3.3366Y-2.0571
X3.3366Y-2.8051
X3.3366Y-4.3012
X3.3366Y-5.0492
X3.3504Y-5.2165
X3.3622Y-4.5866
X3.3858Y-3.9134
X3.4016Y-1.9488
X3.4646Y-3.4252
X3.4724Y-4.5551
X3.4764Y-5.1575
X3.4921Y-4.3898
X3.5323Y-5.7909
X3.5323Y-5.8303
X3.5433Y-2.6496
X3.5531Y-5.9744
X3.5787Y-4.185
X3.7087Y-4.3189
X3.7106Y-2.0768
X3.7106Y-2.8248
X3.7106Y-3.5728
X3.75Y-2.0768
X3.75Y-2.8248
X3.75Y-3.5728
X3.75Y-4.3209
X3.8417Y-5.787
X3.8417Y-5.8264
X3.8555Y-4.5969
X3.8594Y-5.1862
X3.8681Y-5.9744
X3.8898Y-5.2244
X3.9528Y-4.9449
X3.9567Y-3.1772
X3.9803Y-4.5472
X4.0453Y-5.1378
X4.0748Y-4.3012
X4.0846Y-2.0571
X4.0846Y-2.8051
X4.0846Y-3.5531
X4.122Y-4.1811
X4.1535Y-3.4094
X4.1535Y-4.5748
X4.1571Y-5.8264
X4.1575Y-5.787
X4.1732Y-3.7047
X4.1929Y-5.1476
X4.2126Y-4.2598
X4.2205Y-5.2205
X4.2244Y-3.9016
X4.2559Y-2.9528
X4.2559Y-3.6142
X4.2598Y-2.4331
X4.2598Y-2.6969
X4.2677Y-2.1181
X4.2677Y-3.3858
X4.3189Y-4.3465
X4.3189Y-4.7126
X4.3307Y-1.9331
X4.3425Y-3.8307
X4.3465Y-3.3858
X4.3465Y-4.1339
X4.3504Y-2.1181
X4.3504Y-2.6969
X4.3543Y-2.9528
X4.4134Y-5.1535
X4.4291Y-4.9528
X4.4587Y-2.0768
X4.4587Y-2.8248
X4.4587Y-3.5728
X4.4587Y-4.3209
X4.4961Y-5.0512
X4.498Y-2.0768
X4.498Y-2.8248
X4.498Y-3.5728
X4.498Y-4.3209
X4.5354Y-1.9567
X4.5354Y-4.8937
X4.6102Y-4.6693
X4.6496Y-4.4882
X4.6693Y-4.8189
X4.6732Y-2.5039
X4.8071Y-2.3858
X4.813Y-4.2717
X4.8327Y-2.0571
X4.8327Y-2.8051
X4.8327Y-3.5531
X4.9173Y-4.6181
X4.9606Y-3.4252
X4.9833Y-4.2783
X5.0118Y-2.4213
X5.0693Y-4.762
X5.0748Y-4.685
X5.0827Y-3.189
X5.1059Y-4.5163
X5.2677Y-3.4252
X5.2677Y-3.6457
X5.378Y-4.3228
T3
X1.8297Y-1.752
X1.8531Y-1.6956
X1.8531Y-1.8083
X1.9094Y-1.6722
X1.9094Y-1.8317
X1.9658Y-1.6956
X1.9658Y-1.8083
X1.9892Y-1.752
X2.44Y-5.4331
X2.4633Y-5.3767
X2.4633Y-5.4894
X2.5197Y-5.3533
X2.5197Y-5.5128
X2.5761Y-5.3767
X2.5761Y-5.4894
X2.5994Y-5.4331
X4.4872Y-5.4331
X4.5106Y-5.3767
X4.5106Y-5.4894
X4.5669Y-5.3533
X4.5669Y-5.5128
X4.6233Y-5.3767
X4.6233Y-5.4894
X4.6467Y-5.4331
X5.0974Y-1.752
X5.1208Y-1.6956
X5.1208Y-1.8083
X5.1772Y-1.6722
X5.1772Y-1.8317
X5.2335Y-1.6956
X5.2335Y-1.8083
X5.2569Y-1.752
T5
X1.8673Y-2.1543
X1.8673Y-2.2543
X1.8673Y-2.3543
X1.8673Y-2.4543
X1.8673Y-2.5543
X1.8673Y-2.6543
X1.8673Y-2.7543
X1.8673Y-2.8543
X1.8673Y-2.9543
X1.8673Y-3.0543
X1.9673Y-2.1543
X1.9673Y-2.2543
X1.9673Y-2.3543
X1.9673Y-2.4543
X1.9673Y-2.5543
X1.9673Y-2.6543
X1.9673Y-2.7543
X1.9673Y-2.8543
X1.9673Y-2.9543
X1.9673Y-3.0543
X3.6909Y-4.6929
X3.6909Y-4.7929
X3.6909Y-4.8929
X3.6909Y-4.9929
X3.7909Y-4.6929
X3.7909Y-4.7929
X3.7909Y-4.8929
X3.7909Y-4.9929
X4.245Y-5.385
X4.245Y-5.485
X4.245Y-5.585
X4.345Y-5.385
X4.345Y-5.485
X4.345Y-5.585
X5.0945Y-1.9528
X5.1874Y-2.252
X5.1874Y-2.352
X5.1874Y-2.452
X5.1874Y-2.552
X5.1874Y-2.652
X5.1874Y-2.752
X5.1874Y-2.852
X5.1874Y-2.952
X5.1874Y-3.052
X5.1874Y-3.152
X5.1945Y-1.9528
X5.2874Y-2.252
X5.2874Y-2.352
X5.2874Y-2.452
X5.2874Y-2.552
X5.2874Y-2.652
X5.2874Y-2.752
X5.2874Y-2.852
X5.2874Y-2.952
X5.2874Y-3.052
X5.2874Y-3.152
X5.2945Y-1.9528
T6
X1.9094Y-1.752
X2.5197Y-5.4331
X4.5669Y-5.4331
X5.1772Y-1.752
T4
G00X2.5898Y-3.5996
M15
G01X2.6094Y-3.5996
M16
G05
G00X2.5898Y-3.7823
M15
G01X2.6094Y-3.7823
M16
G05
G00X2.7764Y-3.5996
M15
G01X2.7961Y-3.5996
M16
G05
G00X2.7764Y-3.7823
M15
G01X2.7961Y-3.7823
M16
G05
G00X5.132Y-4.4322
M15
G01X5.132Y-4.4125
M16
G05
G00X5.132Y-4.6188
M15
G01X5.132Y-4.5991
M16
G05
G00X5.3146Y-4.4322
M15
G01X5.3146Y-4.4125
M16
G05
G00X5.3146Y-4.6188
M15
G01X5.3146Y-4.5991
M16
G05
T0
M30
