M48
; DRILL file {KiCad 7.0.7-7.0.7~ubuntu20.04.1} date Fri 01 Sep 2023 09:13:10 PM PDT
; FORMAT={-:-/ absolute / metric / decimal}
; #@! TF.CreationDate,2023-09-01T21:13:10-07:00
; #@! TF.GenerationSoftware,Kicad,Pcbnew,7.0.7-7.0.7~ubuntu20.04.1
; #@! TF.FileFunction,Plated,1,4,PTH
FMAT,2
METRIC
; #@! TA.AperFunction,Plated,PTH,ViaDrill
T1C0.300
; #@! TA.AperFunction,Plated,PTH,ViaDrill
T2C0.400
; #@! TA.AperFunction,Plated,PTH,ComponentDrill
T3C0.500
; #@! TA.AperFunction,Plated,PTH,ComponentDrill
T4C0.600
; #@! TA.AperFunction,Plated,PTH,ComponentDrill
T5C1.000
; #@! TA.AperFunction,Plated,PTH,ComponentDrill
T6C2.700
%
G90
G05
T1
X47.3Y-105.9
X48.725Y-53.026
X49.0Y-109.7
X49.0Y-119.3
X49.7Y-111.2
X49.7Y-121.2
X52.834Y-107.315
X55.646Y-56.661
X55.837Y-59.011
X55.837Y-61.551
X55.837Y-64.091
X57.063Y-65.405
X57.277Y-106.045
X58.43Y-106.03
X59.584Y-65.424
X59.73Y-85.3
X60.917Y-96.095
X60.917Y-97.365
X60.917Y-98.635
X60.917Y-99.905
X60.917Y-101.175
X60.917Y-102.445
X61.6Y-125.0
X62.23Y-65.404
X63.4Y-123.2
X63.711Y-88.602
X64.0Y-101.25
X64.0Y-102.5
X64.897Y-86.614
X66.25Y-93.726
X66.62Y-53.169
X67.242Y-93.9
X67.5Y-49.48
X67.602Y-91.8
X67.7Y-90.8
X68.25Y-93.9
X68.281Y-96.587
X68.4Y-68.78
X68.5Y-91.7
X68.6Y-50.0
X68.61Y-65.4
X69.0Y-83.649
X69.326Y-93.743
X70.005Y-140.01
X70.2Y-131.8
X70.24Y-93.8
X71.4Y-131.2
X71.5Y-87.084
X72.0Y-70.0
X72.0Y-107.3
X72.4Y-143.2
X72.4Y-144.1
X72.4Y-145.2
X72.5Y-146.2
X72.6Y-89.0
X72.6Y-110.0
X72.6Y-113.7
X72.61Y-84.411
X72.68Y-72.3
X72.7Y-138.1
X73.3Y-113.0
X73.3Y-137.49
X73.7Y-55.1
X74.9Y-136.1
X75.5Y-87.75
X76.085Y-94.62
X76.12Y-128.35
X76.25Y-114.75
X76.6Y-85.6
X77.4Y-125.7
X77.6Y-107.349
X83.45Y-132.15
X84.7Y-115.7
X87.006Y-131.006
X88.1Y-112.3
X89.238Y-99.27
X89.8Y-125.8
X90.9Y-127.13
X92.075Y-106.172
X99.0Y-115.75
X99.031Y-113.969
X100.0Y-113.0
X100.0Y-116.0
X104.41Y-108.124
X104.5Y-116.25
X104.893Y-70.0
X105.5Y-115.25
X105.75Y-108.5
X105.94Y-106.65
X106.299Y-88.265
X106.72Y-68.2
X107.1Y-86.447
X107.1Y-92.4
X108.209Y-132.709
X109.42Y-86.995
X109.44Y-98.84
X109.5Y-50.1
X109.5Y-69.3
X111.1Y-131.0
X111.8Y-126.6
X114.3Y-125.1
X114.935Y-133.223
X116.4Y-129.04
X116.4Y-132.475
X116.56Y-124.5
X118.6Y-129.4
X120.48Y-133.2
X121.571Y-118.006
X122.174Y-59.436
X123.194Y-59.432
X124.333Y-59.436
X124.4Y-111.5
X124.7Y-124.5
X125.476Y-59.436
X126.195Y-116.288
X126.576Y-109.684
X127.8Y-62.4
X127.973Y-109.684
X132.7Y-112.5
X132.7Y-113.4
X132.7Y-114.522
X132.7Y-116.8
X132.709Y-115.34
X135.009Y-114.7
X135.123Y-113.902
X135.919Y-113.6
X138.4Y-89.7
X138.4Y-92.0
T2
X44.28Y-108.414
X44.5Y-84.5
X45.844Y-111.057
X47.238Y-115.75
X48.0Y-119.0
X48.156Y-109.0
X48.35Y-102.65
X48.4Y-122.1
X50.5Y-110.5
X52.2Y-88.45
X55.837Y-57.8
X55.837Y-60.3
X55.837Y-62.8
X55.837Y-65.4
X56.25Y-52.75
X56.25Y-119.25
X56.5Y-80.5
X57.1Y-64.1
X57.25Y-52.75
X57.25Y-81.25
X57.25Y-119.25
X57.85Y-102.6
X58.0Y-88.45
X58.4Y-65.4
X59.1Y-84.5
X59.5Y-106.0
X59.6Y-96.5
X59.607Y-100.793
X61.0Y-65.4
X61.6Y-126.0
X63.0Y-133.4
X64.0Y-100.2
X64.0Y-103.5
X64.25Y-90.75
X64.3Y-97.7
X64.5Y-123.1
X65.25Y-80.0
X65.25Y-118.0
X65.5Y-65.4
X65.743Y-52.28
X65.9Y-87.1
X69.0Y-131.7
X69.3Y-64.6
X69.4Y-69.2
X69.4Y-82.8
X69.6Y-49.2
X70.3Y-144.7
X71.1Y-104.3
X71.3Y-142.2
X71.4Y-84.4
X71.5Y-88.5
X71.9Y-130.2
X72.0Y-106.3
X72.6Y-114.7
X72.7Y-54.6
X72.7Y-136.2
X73.1Y-71.1
X73.4Y-140.59
X73.4Y-142.469
X73.6Y-146.2
X74.2Y-151.8
X74.25Y-91.25
X75.25Y-52.75
X75.25Y-74.0
X75.25Y-112.0
X75.3Y-128.9
X76.25Y-52.75
X76.25Y-74.0
X76.25Y-91.0
X76.25Y-112.0
X76.3Y-115.8
X76.5Y-125.1
X76.6Y-87.7
X76.7Y-130.599
X77.2Y-94.6
X77.6Y-106.3
X81.5Y-62.2
X81.5Y-81.0
X81.8Y-147.05
X81.8Y-148.14
X82.25Y-151.75
X84.7Y-90.33
X84.75Y-52.25
X84.75Y-71.25
X84.75Y-109.25
X84.75Y-128.25
X85.1Y-132.5
X85.4Y-116.5
X86.0Y-99.4
X86.4Y-49.5
X88.0Y-87.0
X88.2Y-115.7
X88.3Y-131.0
X88.7Y-111.5
X89.72Y-147.09
X89.72Y-148.09
X90.0Y-67.3
X90.25Y-151.75
X90.9Y-106.3
X94.2Y-109.7
X94.25Y-52.75
X94.25Y-71.75
X94.25Y-90.75
X95.25Y-52.75
X95.25Y-71.75
X95.25Y-90.75
X95.25Y-109.75
X97.58Y-146.99
X97.58Y-147.99
X97.93Y-116.76
X98.03Y-131.73
X98.25Y-151.75
X98.8Y-132.7
X100.4Y-125.6
X100.5Y-80.7
X101.1Y-115.5
X102.75Y-130.5
X103.5Y-109.25
X103.75Y-52.25
X103.75Y-71.25
X103.75Y-90.25
X104.7Y-106.2
X105.5Y-86.6
X105.5Y-116.2
X105.59Y-147.99
X105.601Y-146.991
X106.0Y-94.1
X106.5Y-130.75
X107.0Y-108.2
X107.2Y-132.6
X107.3Y-99.1
X108.1Y-75.0
X108.1Y-91.8
X108.2Y-61.8
X108.2Y-68.5
X108.4Y-53.8
X108.4Y-86.0
X109.7Y-110.4
X109.7Y-119.7
X110.0Y-49.1
X110.3Y-97.3
X110.4Y-86.0
X110.4Y-105.0
X110.5Y-53.8
X110.5Y-68.5
X110.6Y-75.0
X112.1Y-130.9
X112.5Y-125.8
X113.25Y-52.75
X113.25Y-71.75
X113.25Y-90.75
X113.25Y-109.75
X114.2Y-128.3
X114.25Y-52.75
X114.25Y-71.75
X114.25Y-90.75
X114.25Y-109.75
X115.2Y-49.7
X115.2Y-124.3
X117.1Y-118.6
X118.1Y-114.0
X118.6Y-122.4
X118.7Y-63.6
X122.1Y-60.6
X122.25Y-108.5
X122.75Y-52.25
X122.75Y-71.25
X122.75Y-90.25
X124.9Y-117.3
X126.0Y-87.0
X126.576Y-108.668
X127.3Y-61.5
X128.759Y-120.956
X128.9Y-119.0
X129.1Y-81.0
X129.69Y-114.713
X133.8Y-87.0
X133.8Y-92.6
X136.6Y-109.8
T3
X46.475Y-44.5
X47.068Y-43.068
X47.068Y-45.932
X48.5Y-42.475
X48.5Y-46.525
X49.932Y-43.068
X49.932Y-45.932
X50.525Y-44.5
X61.975Y-138.0
X62.568Y-136.568
X62.568Y-139.432
X64.0Y-135.975
X64.0Y-140.025
X65.432Y-136.568
X65.432Y-139.432
X66.025Y-138.0
X113.975Y-138.0
X114.568Y-136.568
X114.568Y-139.432
X116.0Y-135.975
X116.0Y-140.025
X117.432Y-136.568
X117.432Y-139.432
X118.025Y-138.0
X129.475Y-44.5
X130.068Y-43.068
X130.068Y-45.932
X131.5Y-42.475
X131.5Y-46.525
X132.932Y-43.068
X132.932Y-45.932
X133.525Y-44.5
T5
X47.43Y-54.718
X47.43Y-57.258
X47.43Y-59.798
X47.43Y-62.338
X47.43Y-64.878
X47.43Y-67.418
X47.43Y-69.958
X47.43Y-72.498
X47.43Y-75.038
X47.43Y-77.578
X49.97Y-54.718
X49.97Y-57.258
X49.97Y-59.798
X49.97Y-62.338
X49.97Y-64.878
X49.97Y-67.418
X49.97Y-69.958
X49.97Y-72.498
X49.97Y-75.038
X49.97Y-77.578
X93.75Y-119.2
X93.75Y-121.74
X93.75Y-124.28
X93.75Y-126.82
X96.29Y-119.2
X96.29Y-121.74
X96.29Y-124.28
X96.29Y-126.82
X107.823Y-136.779
X107.823Y-139.319
X107.823Y-141.859
X110.363Y-136.779
X110.363Y-139.319
X110.363Y-141.859
X129.4Y-49.6
X131.76Y-57.2
X131.76Y-59.74
X131.76Y-62.28
X131.76Y-64.82
X131.76Y-67.36
X131.76Y-69.9
X131.76Y-72.44
X131.76Y-74.98
X131.76Y-77.52
X131.76Y-80.06
X131.94Y-49.6
X134.3Y-57.2
X134.3Y-59.74
X134.3Y-62.28
X134.3Y-64.82
X134.3Y-67.36
X134.3Y-69.9
X134.3Y-72.44
X134.3Y-74.98
X134.3Y-77.52
X134.3Y-80.06
X134.48Y-49.6
T6
X48.5Y-44.5
X64.0Y-138.0
X116.0Y-138.0
X131.5Y-44.5
T4
X65.78Y-91.43G85X66.28Y-91.43
G05
X65.78Y-96.07G85X66.28Y-96.07
G05
X70.52Y-91.43G85X71.02Y-91.43
G05
X70.52Y-96.07G85X71.02Y-96.07
G05
X130.352Y-112.578G85X130.352Y-112.078
G05
X130.352Y-117.318G85X130.352Y-116.818
G05
X134.992Y-112.578G85X134.992Y-112.078
G05
X134.992Y-117.318G85X134.992Y-116.818
G05
T0
M30
