%TF.GenerationSoftware,KiCad,Pcbnew,7.0.7-7.0.7~ubuntu20.04.1*%
%TF.CreationDate,2023-09-01T21:13:10-07:00*%
%TF.ProjectId,v2_controller,76325f63-6f6e-4747-926f-6c6c65722e6b,rev?*%
%TF.SameCoordinates,Original*%
%TF.FileFunction,Drillmap*%
%TF.FilePolarity,Positive*%
%FSLAX45Y45*%
G04 Gerber Fmt 4.5, Leading zero omitted, Abs format (unit mm)*
G04 Created by KiCad (PCBNEW 7.0.7-7.0.7~ubuntu20.04.1) date 2023-09-01 21:13:10*
%MOMM*%
%LPD*%
G01*
G04 APERTURE LIST*
%ADD10C,0.100000*%
%ADD11C,0.200000*%
%ADD12C,0.030000*%
%ADD13C,0.040000*%
%ADD14C,0.050000*%
%ADD15C,0.060000*%
%ADD16C,0.270000*%
G04 APERTURE END LIST*
D10*
X4600000Y-3900000D02*
X13400000Y-3900000D01*
X13400000Y-3900000D02*
X14300000Y-6500000D01*
X14300000Y-6500000D02*
X14300000Y-11400000D01*
X4300000Y-4800000D02*
X4600000Y-3900000D01*
X14300000Y-11400000D02*
X10600000Y-15500000D01*
X10600000Y-15500000D02*
X7400000Y-15500000D01*
X7400000Y-15500000D02*
X4300000Y-12000000D01*
X4300000Y-4800000D02*
X4300000Y-12000000D01*
D11*
D12*
X4715000Y-10575000D02*
X4745000Y-10605000D01*
X4745000Y-10575000D02*
X4715000Y-10605000D01*
X4857500Y-5287600D02*
X4887500Y-5317600D01*
X4887500Y-5287600D02*
X4857500Y-5317600D01*
X4885000Y-10955000D02*
X4915000Y-10985000D01*
X4915000Y-10955000D02*
X4885000Y-10985000D01*
X4885000Y-11915000D02*
X4915000Y-11945000D01*
X4915000Y-11915000D02*
X4885000Y-11945000D01*
X4955000Y-11105000D02*
X4985000Y-11135000D01*
X4985000Y-11105000D02*
X4955000Y-11135000D01*
X4955000Y-12105000D02*
X4985000Y-12135000D01*
X4985000Y-12105000D02*
X4955000Y-12135000D01*
X5268450Y-10716500D02*
X5298450Y-10746500D01*
X5298450Y-10716500D02*
X5268450Y-10746500D01*
X5549650Y-5651150D02*
X5579650Y-5681150D01*
X5579650Y-5651150D02*
X5549650Y-5681150D01*
X5568700Y-5886100D02*
X5598700Y-5916100D01*
X5598700Y-5886100D02*
X5568700Y-5916100D01*
X5568700Y-6140100D02*
X5598700Y-6170100D01*
X5598700Y-6140100D02*
X5568700Y-6170100D01*
X5568700Y-6394100D02*
X5598700Y-6424100D01*
X5598700Y-6394100D02*
X5568700Y-6424100D01*
X5691300Y-6525500D02*
X5721300Y-6555500D01*
X5721300Y-6525500D02*
X5691300Y-6555500D01*
X5712700Y-10589550D02*
X5742700Y-10619550D01*
X5742700Y-10589550D02*
X5712700Y-10619550D01*
X5828000Y-10588000D02*
X5858000Y-10618000D01*
X5858000Y-10588000D02*
X5828000Y-10618000D01*
X5943350Y-6527450D02*
X5973350Y-6557450D01*
X5973350Y-6527450D02*
X5943350Y-6557450D01*
X5958000Y-8515000D02*
X5988000Y-8545000D01*
X5988000Y-8515000D02*
X5958000Y-8545000D01*
X6076700Y-9594500D02*
X6106700Y-9624500D01*
X6106700Y-9594500D02*
X6076700Y-9624500D01*
X6076700Y-9721500D02*
X6106700Y-9751500D01*
X6106700Y-9721500D02*
X6076700Y-9751500D01*
X6076700Y-9848500D02*
X6106700Y-9878500D01*
X6106700Y-9848500D02*
X6076700Y-9878500D01*
X6076700Y-9975500D02*
X6106700Y-10005500D01*
X6106700Y-9975500D02*
X6076700Y-10005500D01*
X6076700Y-10102500D02*
X6106700Y-10132500D01*
X6106700Y-10102500D02*
X6076700Y-10132500D01*
X6076700Y-10229500D02*
X6106700Y-10259500D01*
X6106700Y-10229500D02*
X6076700Y-10259500D01*
X6145000Y-12485000D02*
X6175000Y-12515000D01*
X6175000Y-12485000D02*
X6145000Y-12515000D01*
X6208050Y-6525450D02*
X6238050Y-6555450D01*
X6238050Y-6525450D02*
X6208050Y-6555450D01*
X6325000Y-12305000D02*
X6355000Y-12335000D01*
X6355000Y-12305000D02*
X6325000Y-12335000D01*
X6356100Y-8845200D02*
X6386100Y-8875200D01*
X6386100Y-8845200D02*
X6356100Y-8875200D01*
X6385000Y-10110000D02*
X6415000Y-10140000D01*
X6415000Y-10110000D02*
X6385000Y-10140000D01*
X6385000Y-10235000D02*
X6415000Y-10265000D01*
X6415000Y-10235000D02*
X6385000Y-10265000D01*
X6474700Y-8646400D02*
X6504700Y-8676400D01*
X6504700Y-8646400D02*
X6474700Y-8676400D01*
X6610000Y-9357600D02*
X6640000Y-9387600D01*
X6640000Y-9357600D02*
X6610000Y-9387600D01*
X6647000Y-5301900D02*
X6677000Y-5331900D01*
X6677000Y-5301900D02*
X6647000Y-5331900D01*
X6709200Y-9375000D02*
X6739200Y-9405000D01*
X6739200Y-9375000D02*
X6709200Y-9405000D01*
X6735000Y-4933000D02*
X6765000Y-4963000D01*
X6765000Y-4933000D02*
X6735000Y-4963000D01*
X6745150Y-9165000D02*
X6775150Y-9195000D01*
X6775150Y-9165000D02*
X6745150Y-9195000D01*
X6755000Y-9065000D02*
X6785000Y-9095000D01*
X6785000Y-9065000D02*
X6755000Y-9095000D01*
X6810000Y-9375000D02*
X6840000Y-9405000D01*
X6840000Y-9375000D02*
X6810000Y-9405000D01*
X6813100Y-9643700D02*
X6843100Y-9673700D01*
X6843100Y-9643700D02*
X6813100Y-9673700D01*
X6825000Y-6863000D02*
X6855000Y-6893000D01*
X6855000Y-6863000D02*
X6825000Y-6893000D01*
X6835000Y-9155000D02*
X6865000Y-9185000D01*
X6865000Y-9155000D02*
X6835000Y-9185000D01*
X6845000Y-4985000D02*
X6875000Y-5015000D01*
X6875000Y-4985000D02*
X6845000Y-5015000D01*
X6846000Y-6525000D02*
X6876000Y-6555000D01*
X6876000Y-6525000D02*
X6846000Y-6555000D01*
X6885000Y-8349900D02*
X6915000Y-8379900D01*
X6915000Y-8349900D02*
X6885000Y-8379900D01*
X6917601Y-9359322D02*
X6947601Y-9389322D01*
X6947601Y-9359322D02*
X6917601Y-9389322D01*
X6985500Y-13986000D02*
X7015500Y-14016000D01*
X7015500Y-13986000D02*
X6985500Y-14016000D01*
X7005000Y-13165000D02*
X7035000Y-13195000D01*
X7035000Y-13165000D02*
X7005000Y-13195000D01*
X7009000Y-9365000D02*
X7039000Y-9395000D01*
X7039000Y-9365000D02*
X7009000Y-9395000D01*
X7125000Y-13105000D02*
X7155000Y-13135000D01*
X7155000Y-13105000D02*
X7125000Y-13135000D01*
X7135000Y-8693450D02*
X7165000Y-8723450D01*
X7165000Y-8693450D02*
X7135000Y-8723450D01*
X7185000Y-6985000D02*
X7215000Y-7015000D01*
X7215000Y-6985000D02*
X7185000Y-7015000D01*
X7185000Y-10715000D02*
X7215000Y-10745000D01*
X7215000Y-10715000D02*
X7185000Y-10745000D01*
X7225000Y-14305000D02*
X7255000Y-14335000D01*
X7255000Y-14305000D02*
X7225000Y-14335000D01*
X7225000Y-14395000D02*
X7255000Y-14425000D01*
X7255000Y-14395000D02*
X7225000Y-14425000D01*
X7225000Y-14505000D02*
X7255000Y-14535000D01*
X7255000Y-14505000D02*
X7225000Y-14535000D01*
X7235000Y-14605000D02*
X7265000Y-14635000D01*
X7265000Y-14605000D02*
X7235000Y-14635000D01*
X7245000Y-8885000D02*
X7275000Y-8915000D01*
X7275000Y-8885000D02*
X7245000Y-8915000D01*
X7245000Y-10985000D02*
X7275000Y-11015000D01*
X7275000Y-10985000D02*
X7245000Y-11015000D01*
X7245000Y-11355000D02*
X7275000Y-11385000D01*
X7275000Y-11355000D02*
X7245000Y-11385000D01*
X7246000Y-8426100D02*
X7276000Y-8456100D01*
X7276000Y-8426100D02*
X7246000Y-8456100D01*
X7253000Y-7215000D02*
X7283000Y-7245000D01*
X7283000Y-7215000D02*
X7253000Y-7245000D01*
X7255000Y-13795000D02*
X7285000Y-13825000D01*
X7285000Y-13795000D02*
X7255000Y-13825000D01*
X7315000Y-11285000D02*
X7345000Y-11315000D01*
X7345000Y-11285000D02*
X7315000Y-11315000D01*
X7315000Y-13734000D02*
X7345000Y-13764000D01*
X7345000Y-13734000D02*
X7315000Y-13764000D01*
X7355000Y-5495000D02*
X7385000Y-5525000D01*
X7385000Y-5495000D02*
X7355000Y-5525000D01*
X7475000Y-13595000D02*
X7505000Y-13625000D01*
X7505000Y-13595000D02*
X7475000Y-13625000D01*
X7535000Y-8760000D02*
X7565000Y-8790000D01*
X7565000Y-8760000D02*
X7535000Y-8790000D01*
X7593500Y-9447000D02*
X7623500Y-9477000D01*
X7623500Y-9447000D02*
X7593500Y-9477000D01*
X7597000Y-12820000D02*
X7627000Y-12850000D01*
X7627000Y-12820000D02*
X7597000Y-12850000D01*
X7610000Y-11460000D02*
X7640000Y-11490000D01*
X7640000Y-11460000D02*
X7610000Y-11490000D01*
X7645000Y-8545000D02*
X7675000Y-8575000D01*
X7675000Y-8545000D02*
X7645000Y-8575000D01*
X7725000Y-12555000D02*
X7755000Y-12585000D01*
X7755000Y-12555000D02*
X7725000Y-12585000D01*
X7745000Y-10719850D02*
X7775000Y-10749850D01*
X7775000Y-10719850D02*
X7745000Y-10749850D01*
X8330000Y-13200000D02*
X8360000Y-13230000D01*
X8360000Y-13200000D02*
X8330000Y-13230000D01*
X8455000Y-11555000D02*
X8485000Y-11585000D01*
X8485000Y-11555000D02*
X8455000Y-11585000D01*
X8685625Y-13085625D02*
X8715625Y-13115625D01*
X8715625Y-13085625D02*
X8685625Y-13115625D01*
X8795000Y-11215000D02*
X8825000Y-11245000D01*
X8825000Y-11215000D02*
X8795000Y-11245000D01*
X8908800Y-9912000D02*
X8938800Y-9942000D01*
X8938800Y-9912000D02*
X8908800Y-9942000D01*
X8965000Y-12565000D02*
X8995000Y-12595000D01*
X8995000Y-12565000D02*
X8965000Y-12595000D01*
X9075000Y-12698000D02*
X9105000Y-12728000D01*
X9105000Y-12698000D02*
X9075000Y-12728000D01*
X9192500Y-10602200D02*
X9222500Y-10632200D01*
X9222500Y-10602200D02*
X9192500Y-10632200D01*
X9885000Y-11560000D02*
X9915000Y-11590000D01*
X9915000Y-11560000D02*
X9885000Y-11590000D01*
X9888123Y-11381877D02*
X9918123Y-11411877D01*
X9918123Y-11381877D02*
X9888123Y-11411877D01*
X9985000Y-11285000D02*
X10015000Y-11315000D01*
X10015000Y-11285000D02*
X9985000Y-11315000D01*
X9985000Y-11585000D02*
X10015000Y-11615000D01*
X10015000Y-11585000D02*
X9985000Y-11615000D01*
X10426000Y-10797450D02*
X10456000Y-10827450D01*
X10456000Y-10797450D02*
X10426000Y-10827450D01*
X10435000Y-11610000D02*
X10465000Y-11640000D01*
X10465000Y-11610000D02*
X10435000Y-11640000D01*
X10474340Y-6985000D02*
X10504340Y-7015000D01*
X10504340Y-6985000D02*
X10474340Y-7015000D01*
X10535000Y-11510000D02*
X10565000Y-11540000D01*
X10565000Y-11510000D02*
X10535000Y-11540000D01*
X10560000Y-10835000D02*
X10590000Y-10865000D01*
X10590000Y-10835000D02*
X10560000Y-10865000D01*
X10579000Y-10650000D02*
X10609000Y-10680000D01*
X10609000Y-10650000D02*
X10579000Y-10680000D01*
X10614900Y-8811500D02*
X10644900Y-8841500D01*
X10644900Y-8811500D02*
X10614900Y-8841500D01*
X10657000Y-6805000D02*
X10687000Y-6835000D01*
X10687000Y-6805000D02*
X10657000Y-6835000D01*
X10695000Y-8629700D02*
X10725000Y-8659700D01*
X10725000Y-8629700D02*
X10695000Y-8659700D01*
X10695000Y-9225000D02*
X10725000Y-9255000D01*
X10725000Y-9225000D02*
X10695000Y-9255000D01*
X10805950Y-13255950D02*
X10835950Y-13285950D01*
X10835950Y-13255950D02*
X10805950Y-13285950D01*
X10927000Y-8684500D02*
X10957000Y-8714500D01*
X10957000Y-8684500D02*
X10927000Y-8714500D01*
X10929000Y-9869000D02*
X10959000Y-9899000D01*
X10959000Y-9869000D02*
X10929000Y-9899000D01*
X10935000Y-4995000D02*
X10965000Y-5025000D01*
X10965000Y-4995000D02*
X10935000Y-5025000D01*
X10935000Y-6915000D02*
X10965000Y-6945000D01*
X10965000Y-6915000D02*
X10935000Y-6945000D01*
X11095000Y-13085000D02*
X11125000Y-13115000D01*
X11125000Y-13085000D02*
X11095000Y-13115000D01*
X11165000Y-12645000D02*
X11195000Y-12675000D01*
X11195000Y-12645000D02*
X11165000Y-12675000D01*
X11415000Y-12495000D02*
X11445000Y-12525000D01*
X11445000Y-12495000D02*
X11415000Y-12525000D01*
X11478500Y-13307300D02*
X11508500Y-13337300D01*
X11508500Y-13307300D02*
X11478500Y-13337300D01*
X11625000Y-12889000D02*
X11655000Y-12919000D01*
X11655000Y-12889000D02*
X11625000Y-12919000D01*
X11625000Y-13232550D02*
X11655000Y-13262550D01*
X11655000Y-13232550D02*
X11625000Y-13262550D01*
X11641000Y-12435000D02*
X11671000Y-12465000D01*
X11671000Y-12435000D02*
X11641000Y-12465000D01*
X11845000Y-12925000D02*
X11875000Y-12955000D01*
X11875000Y-12925000D02*
X11845000Y-12955000D01*
X12033000Y-13305000D02*
X12063000Y-13335000D01*
X12063000Y-13305000D02*
X12033000Y-13335000D01*
X12142100Y-11785600D02*
X12172100Y-11815600D01*
X12172100Y-11785600D02*
X12142100Y-11815600D01*
X12202400Y-5928600D02*
X12232400Y-5958600D01*
X12232400Y-5928600D02*
X12202400Y-5958600D01*
X12304430Y-5928170D02*
X12334430Y-5958170D01*
X12334430Y-5928170D02*
X12304430Y-5958170D01*
X12418300Y-5928600D02*
X12448300Y-5958600D01*
X12448300Y-5928600D02*
X12418300Y-5958600D01*
X12425000Y-11135000D02*
X12455000Y-11165000D01*
X12455000Y-11135000D02*
X12425000Y-11165000D01*
X12455000Y-12435000D02*
X12485000Y-12465000D01*
X12485000Y-12435000D02*
X12455000Y-12465000D01*
X12532600Y-5928600D02*
X12562600Y-5958600D01*
X12562600Y-5928600D02*
X12532600Y-5958600D01*
X12604500Y-11613800D02*
X12634500Y-11643800D01*
X12634500Y-11613800D02*
X12604500Y-11643800D01*
X12642600Y-10953400D02*
X12672600Y-10983400D01*
X12672600Y-10953400D02*
X12642600Y-10983400D01*
X12765000Y-6225000D02*
X12795000Y-6255000D01*
X12795000Y-6225000D02*
X12765000Y-6255000D01*
X12782300Y-10953400D02*
X12812300Y-10983400D01*
X12812300Y-10953400D02*
X12782300Y-10983400D01*
X13255000Y-11235000D02*
X13285000Y-11265000D01*
X13285000Y-11235000D02*
X13255000Y-11265000D01*
X13255000Y-11325000D02*
X13285000Y-11355000D01*
X13285000Y-11325000D02*
X13255000Y-11355000D01*
X13255000Y-11437250D02*
X13285000Y-11467250D01*
X13285000Y-11437250D02*
X13255000Y-11467250D01*
X13255000Y-11665000D02*
X13285000Y-11695000D01*
X13285000Y-11665000D02*
X13255000Y-11695000D01*
X13255900Y-11519000D02*
X13285900Y-11549000D01*
X13285900Y-11519000D02*
X13255900Y-11549000D01*
X13485900Y-11455000D02*
X13515900Y-11485000D01*
X13515900Y-11455000D02*
X13485900Y-11485000D01*
X13497276Y-11375250D02*
X13527276Y-11405250D01*
X13527276Y-11375250D02*
X13497276Y-11405250D01*
X13576900Y-11345000D02*
X13606900Y-11375000D01*
X13606900Y-11345000D02*
X13576900Y-11375000D01*
X13825000Y-8955000D02*
X13855000Y-8985000D01*
X13855000Y-8955000D02*
X13825000Y-8985000D01*
X13825000Y-9185000D02*
X13855000Y-9215000D01*
X13855000Y-9185000D02*
X13825000Y-9215000D01*
D13*
X4448000Y-10841400D02*
G75*
G03*
X4448000Y-10841400I-20000J0D01*
G01*
X4470000Y-8450000D02*
G75*
G03*
X4470000Y-8450000I-20000J0D01*
G01*
X4604400Y-11105700D02*
G75*
G03*
X4604400Y-11105700I-20000J0D01*
G01*
X4743800Y-11575000D02*
G75*
G03*
X4743800Y-11575000I-20000J0D01*
G01*
X4820000Y-11900000D02*
G75*
G03*
X4820000Y-11900000I-20000J0D01*
G01*
X4835600Y-10900000D02*
G75*
G03*
X4835600Y-10900000I-20000J0D01*
G01*
X4855000Y-10265000D02*
G75*
G03*
X4855000Y-10265000I-20000J0D01*
G01*
X4860000Y-12210000D02*
G75*
G03*
X4860000Y-12210000I-20000J0D01*
G01*
X5070000Y-11050000D02*
G75*
G03*
X5070000Y-11050000I-20000J0D01*
G01*
X5240000Y-8845000D02*
G75*
G03*
X5240000Y-8845000I-20000J0D01*
G01*
X5603700Y-5780000D02*
G75*
G03*
X5603700Y-5780000I-20000J0D01*
G01*
X5603700Y-6030000D02*
G75*
G03*
X5603700Y-6030000I-20000J0D01*
G01*
X5603700Y-6280000D02*
G75*
G03*
X5603700Y-6280000I-20000J0D01*
G01*
X5603700Y-6540000D02*
G75*
G03*
X5603700Y-6540000I-20000J0D01*
G01*
X5645000Y-5275000D02*
G75*
G03*
X5645000Y-5275000I-20000J0D01*
G01*
X5645000Y-11925000D02*
G75*
G03*
X5645000Y-11925000I-20000J0D01*
G01*
X5670000Y-8050000D02*
G75*
G03*
X5670000Y-8050000I-20000J0D01*
G01*
X5730000Y-6410000D02*
G75*
G03*
X5730000Y-6410000I-20000J0D01*
G01*
X5745000Y-5275000D02*
G75*
G03*
X5745000Y-5275000I-20000J0D01*
G01*
X5745000Y-8125000D02*
G75*
G03*
X5745000Y-8125000I-20000J0D01*
G01*
X5745000Y-11925000D02*
G75*
G03*
X5745000Y-11925000I-20000J0D01*
G01*
X5805000Y-10260000D02*
G75*
G03*
X5805000Y-10260000I-20000J0D01*
G01*
X5820000Y-8845000D02*
G75*
G03*
X5820000Y-8845000I-20000J0D01*
G01*
X5860000Y-6540000D02*
G75*
G03*
X5860000Y-6540000I-20000J0D01*
G01*
X5930000Y-8450000D02*
G75*
G03*
X5930000Y-8450000I-20000J0D01*
G01*
X5970000Y-10600000D02*
G75*
G03*
X5970000Y-10600000I-20000J0D01*
G01*
X5980000Y-9650000D02*
G75*
G03*
X5980000Y-9650000I-20000J0D01*
G01*
X5980732Y-10079268D02*
G75*
G03*
X5980732Y-10079268I-20000J0D01*
G01*
X6120000Y-6540000D02*
G75*
G03*
X6120000Y-6540000I-20000J0D01*
G01*
X6180000Y-12600000D02*
G75*
G03*
X6180000Y-12600000I-20000J0D01*
G01*
X6320000Y-13340000D02*
G75*
G03*
X6320000Y-13340000I-20000J0D01*
G01*
X6420000Y-10020000D02*
G75*
G03*
X6420000Y-10020000I-20000J0D01*
G01*
X6420000Y-10350000D02*
G75*
G03*
X6420000Y-10350000I-20000J0D01*
G01*
X6445000Y-9075000D02*
G75*
G03*
X6445000Y-9075000I-20000J0D01*
G01*
X6450000Y-9770000D02*
G75*
G03*
X6450000Y-9770000I-20000J0D01*
G01*
X6470000Y-12310000D02*
G75*
G03*
X6470000Y-12310000I-20000J0D01*
G01*
X6545000Y-8000000D02*
G75*
G03*
X6545000Y-8000000I-20000J0D01*
G01*
X6545000Y-11800000D02*
G75*
G03*
X6545000Y-11800000I-20000J0D01*
G01*
X6570000Y-6540000D02*
G75*
G03*
X6570000Y-6540000I-20000J0D01*
G01*
X6594300Y-5228000D02*
G75*
G03*
X6594300Y-5228000I-20000J0D01*
G01*
X6610000Y-8710000D02*
G75*
G03*
X6610000Y-8710000I-20000J0D01*
G01*
X6920000Y-13170000D02*
G75*
G03*
X6920000Y-13170000I-20000J0D01*
G01*
X6950000Y-6460000D02*
G75*
G03*
X6950000Y-6460000I-20000J0D01*
G01*
X6960000Y-6920000D02*
G75*
G03*
X6960000Y-6920000I-20000J0D01*
G01*
X6960000Y-8280000D02*
G75*
G03*
X6960000Y-8280000I-20000J0D01*
G01*
X6980000Y-4920000D02*
G75*
G03*
X6980000Y-4920000I-20000J0D01*
G01*
X7050000Y-14470000D02*
G75*
G03*
X7050000Y-14470000I-20000J0D01*
G01*
X7130000Y-10430000D02*
G75*
G03*
X7130000Y-10430000I-20000J0D01*
G01*
X7150000Y-14220000D02*
G75*
G03*
X7150000Y-14220000I-20000J0D01*
G01*
X7160000Y-8440000D02*
G75*
G03*
X7160000Y-8440000I-20000J0D01*
G01*
X7170000Y-8850000D02*
G75*
G03*
X7170000Y-8850000I-20000J0D01*
G01*
X7210000Y-13020000D02*
G75*
G03*
X7210000Y-13020000I-20000J0D01*
G01*
X7220000Y-10630000D02*
G75*
G03*
X7220000Y-10630000I-20000J0D01*
G01*
X7280000Y-11470000D02*
G75*
G03*
X7280000Y-11470000I-20000J0D01*
G01*
X7290000Y-5460000D02*
G75*
G03*
X7290000Y-5460000I-20000J0D01*
G01*
X7290000Y-13620000D02*
G75*
G03*
X7290000Y-13620000I-20000J0D01*
G01*
X7330000Y-7110000D02*
G75*
G03*
X7330000Y-7110000I-20000J0D01*
G01*
X7360000Y-14059000D02*
G75*
G03*
X7360000Y-14059000I-20000J0D01*
G01*
X7360000Y-14246850D02*
G75*
G03*
X7360000Y-14246850I-20000J0D01*
G01*
X7380000Y-14620000D02*
G75*
G03*
X7380000Y-14620000I-20000J0D01*
G01*
X7440000Y-15180000D02*
G75*
G03*
X7440000Y-15180000I-20000J0D01*
G01*
X7445000Y-9125000D02*
G75*
G03*
X7445000Y-9125000I-20000J0D01*
G01*
X7545000Y-5275000D02*
G75*
G03*
X7545000Y-5275000I-20000J0D01*
G01*
X7545000Y-7400000D02*
G75*
G03*
X7545000Y-7400000I-20000J0D01*
G01*
X7545000Y-11200000D02*
G75*
G03*
X7545000Y-11200000I-20000J0D01*
G01*
X7550000Y-12890000D02*
G75*
G03*
X7550000Y-12890000I-20000J0D01*
G01*
X7645000Y-5275000D02*
G75*
G03*
X7645000Y-5275000I-20000J0D01*
G01*
X7645000Y-7400000D02*
G75*
G03*
X7645000Y-7400000I-20000J0D01*
G01*
X7645000Y-9100000D02*
G75*
G03*
X7645000Y-9100000I-20000J0D01*
G01*
X7645000Y-11200000D02*
G75*
G03*
X7645000Y-11200000I-20000J0D01*
G01*
X7650000Y-11580000D02*
G75*
G03*
X7650000Y-11580000I-20000J0D01*
G01*
X7670000Y-12510000D02*
G75*
G03*
X7670000Y-12510000I-20000J0D01*
G01*
X7680000Y-8770000D02*
G75*
G03*
X7680000Y-8770000I-20000J0D01*
G01*
X7690000Y-13059850D02*
G75*
G03*
X7690000Y-13059850I-20000J0D01*
G01*
X7740000Y-9460000D02*
G75*
G03*
X7740000Y-9460000I-20000J0D01*
G01*
X7780000Y-10630000D02*
G75*
G03*
X7780000Y-10630000I-20000J0D01*
G01*
X8170000Y-6220000D02*
G75*
G03*
X8170000Y-6220000I-20000J0D01*
G01*
X8170000Y-8100000D02*
G75*
G03*
X8170000Y-8100000I-20000J0D01*
G01*
X8200000Y-14705000D02*
G75*
G03*
X8200000Y-14705000I-20000J0D01*
G01*
X8200000Y-14814000D02*
G75*
G03*
X8200000Y-14814000I-20000J0D01*
G01*
X8245000Y-15175000D02*
G75*
G03*
X8245000Y-15175000I-20000J0D01*
G01*
X8490000Y-9033000D02*
G75*
G03*
X8490000Y-9033000I-20000J0D01*
G01*
X8495000Y-5225000D02*
G75*
G03*
X8495000Y-5225000I-20000J0D01*
G01*
X8495000Y-7125000D02*
G75*
G03*
X8495000Y-7125000I-20000J0D01*
G01*
X8495000Y-10925000D02*
G75*
G03*
X8495000Y-10925000I-20000J0D01*
G01*
X8495000Y-12825000D02*
G75*
G03*
X8495000Y-12825000I-20000J0D01*
G01*
X8530000Y-13250000D02*
G75*
G03*
X8530000Y-13250000I-20000J0D01*
G01*
X8560000Y-11650000D02*
G75*
G03*
X8560000Y-11650000I-20000J0D01*
G01*
X8620000Y-9940000D02*
G75*
G03*
X8620000Y-9940000I-20000J0D01*
G01*
X8660000Y-4950000D02*
G75*
G03*
X8660000Y-4950000I-20000J0D01*
G01*
X8820000Y-8700000D02*
G75*
G03*
X8820000Y-8700000I-20000J0D01*
G01*
X8840000Y-11570000D02*
G75*
G03*
X8840000Y-11570000I-20000J0D01*
G01*
X8850000Y-13100000D02*
G75*
G03*
X8850000Y-13100000I-20000J0D01*
G01*
X8890000Y-11150000D02*
G75*
G03*
X8890000Y-11150000I-20000J0D01*
G01*
X8992000Y-14709000D02*
G75*
G03*
X8992000Y-14709000I-20000J0D01*
G01*
X8992000Y-14809000D02*
G75*
G03*
X8992000Y-14809000I-20000J0D01*
G01*
X9020000Y-6730000D02*
G75*
G03*
X9020000Y-6730000I-20000J0D01*
G01*
X9045000Y-15175000D02*
G75*
G03*
X9045000Y-15175000I-20000J0D01*
G01*
X9110000Y-10630000D02*
G75*
G03*
X9110000Y-10630000I-20000J0D01*
G01*
X9440000Y-10970000D02*
G75*
G03*
X9440000Y-10970000I-20000J0D01*
G01*
X9445000Y-5275000D02*
G75*
G03*
X9445000Y-5275000I-20000J0D01*
G01*
X9445000Y-7175000D02*
G75*
G03*
X9445000Y-7175000I-20000J0D01*
G01*
X9445000Y-9075000D02*
G75*
G03*
X9445000Y-9075000I-20000J0D01*
G01*
X9545000Y-5275000D02*
G75*
G03*
X9545000Y-5275000I-20000J0D01*
G01*
X9545000Y-7175000D02*
G75*
G03*
X9545000Y-7175000I-20000J0D01*
G01*
X9545000Y-9075000D02*
G75*
G03*
X9545000Y-9075000I-20000J0D01*
G01*
X9545000Y-10975000D02*
G75*
G03*
X9545000Y-10975000I-20000J0D01*
G01*
X9778000Y-14699050D02*
G75*
G03*
X9778000Y-14699050I-20000J0D01*
G01*
X9778000Y-14799000D02*
G75*
G03*
X9778000Y-14799000I-20000J0D01*
G01*
X9813000Y-11676000D02*
G75*
G03*
X9813000Y-11676000I-20000J0D01*
G01*
X9823000Y-13173000D02*
G75*
G03*
X9823000Y-13173000I-20000J0D01*
G01*
X9845000Y-15175000D02*
G75*
G03*
X9845000Y-15175000I-20000J0D01*
G01*
X9900000Y-13270000D02*
G75*
G03*
X9900000Y-13270000I-20000J0D01*
G01*
X10060000Y-12560000D02*
G75*
G03*
X10060000Y-12560000I-20000J0D01*
G01*
X10070000Y-8070000D02*
G75*
G03*
X10070000Y-8070000I-20000J0D01*
G01*
X10130000Y-11550000D02*
G75*
G03*
X10130000Y-11550000I-20000J0D01*
G01*
X10295000Y-13050000D02*
G75*
G03*
X10295000Y-13050000I-20000J0D01*
G01*
X10370000Y-10925000D02*
G75*
G03*
X10370000Y-10925000I-20000J0D01*
G01*
X10395000Y-5225000D02*
G75*
G03*
X10395000Y-5225000I-20000J0D01*
G01*
X10395000Y-7125000D02*
G75*
G03*
X10395000Y-7125000I-20000J0D01*
G01*
X10395000Y-9025000D02*
G75*
G03*
X10395000Y-9025000I-20000J0D01*
G01*
X10490000Y-10620000D02*
G75*
G03*
X10490000Y-10620000I-20000J0D01*
G01*
X10570000Y-8660000D02*
G75*
G03*
X10570000Y-8660000I-20000J0D01*
G01*
X10570000Y-11620000D02*
G75*
G03*
X10570000Y-11620000I-20000J0D01*
G01*
X10579000Y-14799000D02*
G75*
G03*
X10579000Y-14799000I-20000J0D01*
G01*
X10580098Y-14699056D02*
G75*
G03*
X10580098Y-14699056I-20000J0D01*
G01*
X10620000Y-9410000D02*
G75*
G03*
X10620000Y-9410000I-20000J0D01*
G01*
X10670000Y-13075000D02*
G75*
G03*
X10670000Y-13075000I-20000J0D01*
G01*
X10720000Y-10820000D02*
G75*
G03*
X10720000Y-10820000I-20000J0D01*
G01*
X10740000Y-13260000D02*
G75*
G03*
X10740000Y-13260000I-20000J0D01*
G01*
X10750000Y-9910000D02*
G75*
G03*
X10750000Y-9910000I-20000J0D01*
G01*
X10830000Y-7500000D02*
G75*
G03*
X10830000Y-7500000I-20000J0D01*
G01*
X10830000Y-9180000D02*
G75*
G03*
X10830000Y-9180000I-20000J0D01*
G01*
X10840000Y-6180000D02*
G75*
G03*
X10840000Y-6180000I-20000J0D01*
G01*
X10840000Y-6850000D02*
G75*
G03*
X10840000Y-6850000I-20000J0D01*
G01*
X10860000Y-5380000D02*
G75*
G03*
X10860000Y-5380000I-20000J0D01*
G01*
X10860000Y-8600000D02*
G75*
G03*
X10860000Y-8600000I-20000J0D01*
G01*
X10990000Y-11040000D02*
G75*
G03*
X10990000Y-11040000I-20000J0D01*
G01*
X10990000Y-11970000D02*
G75*
G03*
X10990000Y-11970000I-20000J0D01*
G01*
X11020000Y-4910000D02*
G75*
G03*
X11020000Y-4910000I-20000J0D01*
G01*
X11050000Y-9730000D02*
G75*
G03*
X11050000Y-9730000I-20000J0D01*
G01*
X11060000Y-8600000D02*
G75*
G03*
X11060000Y-8600000I-20000J0D01*
G01*
X11060000Y-10500000D02*
G75*
G03*
X11060000Y-10500000I-20000J0D01*
G01*
X11070000Y-5380000D02*
G75*
G03*
X11070000Y-5380000I-20000J0D01*
G01*
X11070000Y-6850000D02*
G75*
G03*
X11070000Y-6850000I-20000J0D01*
G01*
X11080000Y-7500000D02*
G75*
G03*
X11080000Y-7500000I-20000J0D01*
G01*
X11230000Y-13090000D02*
G75*
G03*
X11230000Y-13090000I-20000J0D01*
G01*
X11270000Y-12580000D02*
G75*
G03*
X11270000Y-12580000I-20000J0D01*
G01*
X11345000Y-5275000D02*
G75*
G03*
X11345000Y-5275000I-20000J0D01*
G01*
X11345000Y-7175000D02*
G75*
G03*
X11345000Y-7175000I-20000J0D01*
G01*
X11345000Y-9075000D02*
G75*
G03*
X11345000Y-9075000I-20000J0D01*
G01*
X11345000Y-10975000D02*
G75*
G03*
X11345000Y-10975000I-20000J0D01*
G01*
X11440000Y-12830000D02*
G75*
G03*
X11440000Y-12830000I-20000J0D01*
G01*
X11445000Y-5275000D02*
G75*
G03*
X11445000Y-5275000I-20000J0D01*
G01*
X11445000Y-7175000D02*
G75*
G03*
X11445000Y-7175000I-20000J0D01*
G01*
X11445000Y-9075000D02*
G75*
G03*
X11445000Y-9075000I-20000J0D01*
G01*
X11445000Y-10975000D02*
G75*
G03*
X11445000Y-10975000I-20000J0D01*
G01*
X11540000Y-4970000D02*
G75*
G03*
X11540000Y-4970000I-20000J0D01*
G01*
X11540000Y-12430000D02*
G75*
G03*
X11540000Y-12430000I-20000J0D01*
G01*
X11730000Y-11860000D02*
G75*
G03*
X11730000Y-11860000I-20000J0D01*
G01*
X11830000Y-11400000D02*
G75*
G03*
X11830000Y-11400000I-20000J0D01*
G01*
X11880000Y-12240000D02*
G75*
G03*
X11880000Y-12240000I-20000J0D01*
G01*
X11890000Y-6360000D02*
G75*
G03*
X11890000Y-6360000I-20000J0D01*
G01*
X12230000Y-6060000D02*
G75*
G03*
X12230000Y-6060000I-20000J0D01*
G01*
X12245000Y-10850000D02*
G75*
G03*
X12245000Y-10850000I-20000J0D01*
G01*
X12295000Y-5225000D02*
G75*
G03*
X12295000Y-5225000I-20000J0D01*
G01*
X12295000Y-7125000D02*
G75*
G03*
X12295000Y-7125000I-20000J0D01*
G01*
X12295000Y-9025000D02*
G75*
G03*
X12295000Y-9025000I-20000J0D01*
G01*
X12510000Y-11730000D02*
G75*
G03*
X12510000Y-11730000I-20000J0D01*
G01*
X12620000Y-8700000D02*
G75*
G03*
X12620000Y-8700000I-20000J0D01*
G01*
X12677600Y-10866800D02*
G75*
G03*
X12677600Y-10866800I-20000J0D01*
G01*
X12750000Y-6150000D02*
G75*
G03*
X12750000Y-6150000I-20000J0D01*
G01*
X12895900Y-12095600D02*
G75*
G03*
X12895900Y-12095600I-20000J0D01*
G01*
X12910000Y-11900000D02*
G75*
G03*
X12910000Y-11900000I-20000J0D01*
G01*
X12930000Y-8100000D02*
G75*
G03*
X12930000Y-8100000I-20000J0D01*
G01*
X12989000Y-11471300D02*
G75*
G03*
X12989000Y-11471300I-20000J0D01*
G01*
X13400000Y-8700000D02*
G75*
G03*
X13400000Y-8700000I-20000J0D01*
G01*
X13400000Y-9260000D02*
G75*
G03*
X13400000Y-9260000I-20000J0D01*
G01*
X13680000Y-10980000D02*
G75*
G03*
X13680000Y-10980000I-20000J0D01*
G01*
D14*
X4647500Y-4425000D02*
X4647500Y-4475000D01*
X4622500Y-4450000D02*
X4672500Y-4450000D01*
X4706811Y-4281811D02*
X4706811Y-4331811D01*
X4681811Y-4306811D02*
X4731811Y-4306811D01*
X4706811Y-4568189D02*
X4706811Y-4618189D01*
X4681811Y-4593189D02*
X4731811Y-4593189D01*
X4850000Y-4222500D02*
X4850000Y-4272500D01*
X4825000Y-4247500D02*
X4875000Y-4247500D01*
X4850000Y-4627500D02*
X4850000Y-4677500D01*
X4825000Y-4652500D02*
X4875000Y-4652500D01*
X4993189Y-4281811D02*
X4993189Y-4331811D01*
X4968189Y-4306811D02*
X5018189Y-4306811D01*
X4993189Y-4568189D02*
X4993189Y-4618189D01*
X4968189Y-4593189D02*
X5018189Y-4593189D01*
X5052500Y-4425000D02*
X5052500Y-4475000D01*
X5027500Y-4450000D02*
X5077500Y-4450000D01*
X6197500Y-13775000D02*
X6197500Y-13825000D01*
X6172500Y-13800000D02*
X6222500Y-13800000D01*
X6256811Y-13631811D02*
X6256811Y-13681811D01*
X6231811Y-13656811D02*
X6281811Y-13656811D01*
X6256811Y-13918189D02*
X6256811Y-13968189D01*
X6231811Y-13943189D02*
X6281811Y-13943189D01*
X6400000Y-13572500D02*
X6400000Y-13622500D01*
X6375000Y-13597500D02*
X6425000Y-13597500D01*
X6400000Y-13977500D02*
X6400000Y-14027500D01*
X6375000Y-14002500D02*
X6425000Y-14002500D01*
X6543189Y-13631811D02*
X6543189Y-13681811D01*
X6518189Y-13656811D02*
X6568189Y-13656811D01*
X6543189Y-13918189D02*
X6543189Y-13968189D01*
X6518189Y-13943189D02*
X6568189Y-13943189D01*
X6602500Y-13775000D02*
X6602500Y-13825000D01*
X6577500Y-13800000D02*
X6627500Y-13800000D01*
X11397500Y-13775000D02*
X11397500Y-13825000D01*
X11372500Y-13800000D02*
X11422500Y-13800000D01*
X11456811Y-13631811D02*
X11456811Y-13681811D01*
X11431811Y-13656811D02*
X11481811Y-13656811D01*
X11456811Y-13918189D02*
X11456811Y-13968189D01*
X11431811Y-13943189D02*
X11481811Y-13943189D01*
X11600000Y-13572500D02*
X11600000Y-13622500D01*
X11575000Y-13597500D02*
X11625000Y-13597500D01*
X11600000Y-13977500D02*
X11600000Y-14027500D01*
X11575000Y-14002500D02*
X11625000Y-14002500D01*
X11743189Y-13631811D02*
X11743189Y-13681811D01*
X11718189Y-13656811D02*
X11768189Y-13656811D01*
X11743189Y-13918189D02*
X11743189Y-13968189D01*
X11718189Y-13943189D02*
X11768189Y-13943189D01*
X11802500Y-13775000D02*
X11802500Y-13825000D01*
X11777500Y-13800000D02*
X11827500Y-13800000D01*
X12947500Y-4425000D02*
X12947500Y-4475000D01*
X12922500Y-4450000D02*
X12972500Y-4450000D01*
X13006811Y-4281811D02*
X13006811Y-4331811D01*
X12981811Y-4306811D02*
X13031811Y-4306811D01*
X13006811Y-4568189D02*
X13006811Y-4618189D01*
X12981811Y-4593189D02*
X13031811Y-4593189D01*
X13150000Y-4222500D02*
X13150000Y-4272500D01*
X13125000Y-4247500D02*
X13175000Y-4247500D01*
X13150000Y-4627500D02*
X13150000Y-4677500D01*
X13125000Y-4652500D02*
X13175000Y-4652500D01*
X13293189Y-4281811D02*
X13293189Y-4331811D01*
X13268189Y-4306811D02*
X13318189Y-4306811D01*
X13293189Y-4568189D02*
X13293189Y-4618189D01*
X13268189Y-4593189D02*
X13318189Y-4593189D01*
X13352500Y-4425000D02*
X13352500Y-4475000D01*
X13327500Y-4450000D02*
X13377500Y-4450000D01*
D15*
X6624213Y-9164213D02*
X6624213Y-9121787D01*
X6581787Y-9121787D01*
X6581787Y-9164213D01*
X6624213Y-9164213D01*
D11*
X6578000Y-9173000D02*
X6628000Y-9173000D01*
X6628000Y-9173000D02*
G75*
G03*
X6628000Y-9113000I0J30000D01*
G01*
X6628000Y-9113000D02*
X6578000Y-9113000D01*
X6578000Y-9113000D02*
G75*
G03*
X6578000Y-9173000I0J-30000D01*
G01*
D15*
X6624213Y-9628213D02*
X6624213Y-9585787D01*
X6581787Y-9585787D01*
X6581787Y-9628213D01*
X6624213Y-9628213D01*
D11*
X6578000Y-9637000D02*
X6628000Y-9637000D01*
X6628000Y-9637000D02*
G75*
G03*
X6628000Y-9577000I0J30000D01*
G01*
X6628000Y-9577000D02*
X6578000Y-9577000D01*
X6578000Y-9577000D02*
G75*
G03*
X6578000Y-9637000I0J-30000D01*
G01*
D15*
X7098213Y-9164213D02*
X7098213Y-9121787D01*
X7055787Y-9121787D01*
X7055787Y-9164213D01*
X7098213Y-9164213D01*
D11*
X7052000Y-9173000D02*
X7102000Y-9173000D01*
X7102000Y-9173000D02*
G75*
G03*
X7102000Y-9113000I0J30000D01*
G01*
X7102000Y-9113000D02*
X7052000Y-9113000D01*
X7052000Y-9113000D02*
G75*
G03*
X7052000Y-9173000I0J-30000D01*
G01*
D15*
X7098213Y-9628213D02*
X7098213Y-9585787D01*
X7055787Y-9585787D01*
X7055787Y-9628213D01*
X7098213Y-9628213D01*
D11*
X7052000Y-9637000D02*
X7102000Y-9637000D01*
X7102000Y-9637000D02*
G75*
G03*
X7102000Y-9577000I0J30000D01*
G01*
X7102000Y-9577000D02*
X7052000Y-9577000D01*
X7052000Y-9577000D02*
G75*
G03*
X7052000Y-9637000I0J-30000D01*
G01*
D15*
X13056413Y-11254013D02*
X13056413Y-11211587D01*
X13013987Y-11211587D01*
X13013987Y-11254013D01*
X13056413Y-11254013D01*
D11*
X13065200Y-11257800D02*
X13065200Y-11207800D01*
X13065200Y-11207800D02*
G75*
G03*
X13005200Y-11207800I-30000J0D01*
G01*
X13005200Y-11207800D02*
X13005200Y-11257800D01*
X13005200Y-11257800D02*
G75*
G03*
X13065200Y-11257800I30000J0D01*
G01*
D15*
X13056413Y-11728013D02*
X13056413Y-11685587D01*
X13013987Y-11685587D01*
X13013987Y-11728013D01*
X13056413Y-11728013D01*
D11*
X13065200Y-11731800D02*
X13065200Y-11681800D01*
X13065200Y-11681800D02*
G75*
G03*
X13005200Y-11681800I-30000J0D01*
G01*
X13005200Y-11681800D02*
X13005200Y-11731800D01*
X13005200Y-11731800D02*
G75*
G03*
X13065200Y-11731800I30000J0D01*
G01*
D15*
X13520413Y-11254013D02*
X13520413Y-11211587D01*
X13477987Y-11211587D01*
X13477987Y-11254013D01*
X13520413Y-11254013D01*
D11*
X13529200Y-11257800D02*
X13529200Y-11207800D01*
X13529200Y-11207800D02*
G75*
G03*
X13469200Y-11207800I-30000J0D01*
G01*
X13469200Y-11207800D02*
X13469200Y-11257800D01*
X13469200Y-11257800D02*
G75*
G03*
X13529200Y-11257800I30000J0D01*
G01*
D15*
X13520413Y-11728013D02*
X13520413Y-11685587D01*
X13477987Y-11685587D01*
X13477987Y-11728013D01*
X13520413Y-11728013D01*
D11*
X13529200Y-11731800D02*
X13529200Y-11681800D01*
X13529200Y-11681800D02*
G75*
G03*
X13469200Y-11681800I-30000J0D01*
G01*
X13469200Y-11681800D02*
X13469200Y-11731800D01*
X13469200Y-11731800D02*
G75*
G03*
X13529200Y-11731800I30000J0D01*
G01*
D10*
X4742960Y-5521840D02*
X4792960Y-5471840D01*
X4742960Y-5421840D01*
X4692960Y-5471840D01*
X4742960Y-5521840D01*
X4742960Y-5775840D02*
X4792960Y-5725840D01*
X4742960Y-5675840D01*
X4692960Y-5725840D01*
X4742960Y-5775840D01*
X4742960Y-6029840D02*
X4792960Y-5979840D01*
X4742960Y-5929840D01*
X4692960Y-5979840D01*
X4742960Y-6029840D01*
X4742960Y-6283840D02*
X4792960Y-6233840D01*
X4742960Y-6183840D01*
X4692960Y-6233840D01*
X4742960Y-6283840D01*
X4742960Y-6537840D02*
X4792960Y-6487840D01*
X4742960Y-6437840D01*
X4692960Y-6487840D01*
X4742960Y-6537840D01*
X4742960Y-6791840D02*
X4792960Y-6741840D01*
X4742960Y-6691840D01*
X4692960Y-6741840D01*
X4742960Y-6791840D01*
X4742960Y-7045840D02*
X4792960Y-6995840D01*
X4742960Y-6945840D01*
X4692960Y-6995840D01*
X4742960Y-7045840D01*
X4742960Y-7299840D02*
X4792960Y-7249840D01*
X4742960Y-7199840D01*
X4692960Y-7249840D01*
X4742960Y-7299840D01*
X4742960Y-7553840D02*
X4792960Y-7503840D01*
X4742960Y-7453840D01*
X4692960Y-7503840D01*
X4742960Y-7553840D01*
X4742960Y-7807840D02*
X4792960Y-7757840D01*
X4742960Y-7707840D01*
X4692960Y-7757840D01*
X4742960Y-7807840D01*
X4996960Y-5521840D02*
X5046960Y-5471840D01*
X4996960Y-5421840D01*
X4946960Y-5471840D01*
X4996960Y-5521840D01*
X4996960Y-5775840D02*
X5046960Y-5725840D01*
X4996960Y-5675840D01*
X4946960Y-5725840D01*
X4996960Y-5775840D01*
X4996960Y-6029840D02*
X5046960Y-5979840D01*
X4996960Y-5929840D01*
X4946960Y-5979840D01*
X4996960Y-6029840D01*
X4996960Y-6283840D02*
X5046960Y-6233840D01*
X4996960Y-6183840D01*
X4946960Y-6233840D01*
X4996960Y-6283840D01*
X4996960Y-6537840D02*
X5046960Y-6487840D01*
X4996960Y-6437840D01*
X4946960Y-6487840D01*
X4996960Y-6537840D01*
X4996960Y-6791840D02*
X5046960Y-6741840D01*
X4996960Y-6691840D01*
X4946960Y-6741840D01*
X4996960Y-6791840D01*
X4996960Y-7045840D02*
X5046960Y-6995840D01*
X4996960Y-6945840D01*
X4946960Y-6995840D01*
X4996960Y-7045840D01*
X4996960Y-7299840D02*
X5046960Y-7249840D01*
X4996960Y-7199840D01*
X4946960Y-7249840D01*
X4996960Y-7299840D01*
X4996960Y-7553840D02*
X5046960Y-7503840D01*
X4996960Y-7453840D01*
X4946960Y-7503840D01*
X4996960Y-7553840D01*
X4996960Y-7807840D02*
X5046960Y-7757840D01*
X4996960Y-7707840D01*
X4946960Y-7757840D01*
X4996960Y-7807840D01*
X9375000Y-11970000D02*
X9425000Y-11920000D01*
X9375000Y-11870000D01*
X9325000Y-11920000D01*
X9375000Y-11970000D01*
X9375000Y-12224000D02*
X9425000Y-12174000D01*
X9375000Y-12124000D01*
X9325000Y-12174000D01*
X9375000Y-12224000D01*
X9375000Y-12478000D02*
X9425000Y-12428000D01*
X9375000Y-12378000D01*
X9325000Y-12428000D01*
X9375000Y-12478000D01*
X9375000Y-12732000D02*
X9425000Y-12682000D01*
X9375000Y-12632000D01*
X9325000Y-12682000D01*
X9375000Y-12732000D01*
X9629000Y-11970000D02*
X9679000Y-11920000D01*
X9629000Y-11870000D01*
X9579000Y-11920000D01*
X9629000Y-11970000D01*
X9629000Y-12224000D02*
X9679000Y-12174000D01*
X9629000Y-12124000D01*
X9579000Y-12174000D01*
X9629000Y-12224000D01*
X9629000Y-12478000D02*
X9679000Y-12428000D01*
X9629000Y-12378000D01*
X9579000Y-12428000D01*
X9629000Y-12478000D01*
X9629000Y-12732000D02*
X9679000Y-12682000D01*
X9629000Y-12632000D01*
X9579000Y-12682000D01*
X9629000Y-12732000D01*
X10782300Y-13727900D02*
X10832300Y-13677900D01*
X10782300Y-13627900D01*
X10732300Y-13677900D01*
X10782300Y-13727900D01*
X10782300Y-13981900D02*
X10832300Y-13931900D01*
X10782300Y-13881900D01*
X10732300Y-13931900D01*
X10782300Y-13981900D01*
X10782300Y-14235900D02*
X10832300Y-14185900D01*
X10782300Y-14135900D01*
X10732300Y-14185900D01*
X10782300Y-14235900D01*
X11036300Y-13727900D02*
X11086300Y-13677900D01*
X11036300Y-13627900D01*
X10986300Y-13677900D01*
X11036300Y-13727900D01*
X11036300Y-13981900D02*
X11086300Y-13931900D01*
X11036300Y-13881900D01*
X10986300Y-13931900D01*
X11036300Y-13981900D01*
X11036300Y-14235900D02*
X11086300Y-14185900D01*
X11036300Y-14135900D01*
X10986300Y-14185900D01*
X11036300Y-14235900D01*
X12940000Y-5010000D02*
X12990000Y-4960000D01*
X12940000Y-4910000D01*
X12890000Y-4960000D01*
X12940000Y-5010000D01*
X13176000Y-5770000D02*
X13226000Y-5720000D01*
X13176000Y-5670000D01*
X13126000Y-5720000D01*
X13176000Y-5770000D01*
X13176000Y-6024000D02*
X13226000Y-5974000D01*
X13176000Y-5924000D01*
X13126000Y-5974000D01*
X13176000Y-6024000D01*
X13176000Y-6278000D02*
X13226000Y-6228000D01*
X13176000Y-6178000D01*
X13126000Y-6228000D01*
X13176000Y-6278000D01*
X13176000Y-6532000D02*
X13226000Y-6482000D01*
X13176000Y-6432000D01*
X13126000Y-6482000D01*
X13176000Y-6532000D01*
X13176000Y-6786000D02*
X13226000Y-6736000D01*
X13176000Y-6686000D01*
X13126000Y-6736000D01*
X13176000Y-6786000D01*
X13176000Y-7040000D02*
X13226000Y-6990000D01*
X13176000Y-6940000D01*
X13126000Y-6990000D01*
X13176000Y-7040000D01*
X13176000Y-7294000D02*
X13226000Y-7244000D01*
X13176000Y-7194000D01*
X13126000Y-7244000D01*
X13176000Y-7294000D01*
X13176000Y-7548000D02*
X13226000Y-7498000D01*
X13176000Y-7448000D01*
X13126000Y-7498000D01*
X13176000Y-7548000D01*
X13176000Y-7802000D02*
X13226000Y-7752000D01*
X13176000Y-7702000D01*
X13126000Y-7752000D01*
X13176000Y-7802000D01*
X13176000Y-8056000D02*
X13226000Y-8006000D01*
X13176000Y-7956000D01*
X13126000Y-8006000D01*
X13176000Y-8056000D01*
X13194000Y-5010000D02*
X13244000Y-4960000D01*
X13194000Y-4910000D01*
X13144000Y-4960000D01*
X13194000Y-5010000D01*
X13430000Y-5770000D02*
X13480000Y-5720000D01*
X13430000Y-5670000D01*
X13380000Y-5720000D01*
X13430000Y-5770000D01*
X13430000Y-6024000D02*
X13480000Y-5974000D01*
X13430000Y-5924000D01*
X13380000Y-5974000D01*
X13430000Y-6024000D01*
X13430000Y-6278000D02*
X13480000Y-6228000D01*
X13430000Y-6178000D01*
X13380000Y-6228000D01*
X13430000Y-6278000D01*
X13430000Y-6532000D02*
X13480000Y-6482000D01*
X13430000Y-6432000D01*
X13380000Y-6482000D01*
X13430000Y-6532000D01*
X13430000Y-6786000D02*
X13480000Y-6736000D01*
X13430000Y-6686000D01*
X13380000Y-6736000D01*
X13430000Y-6786000D01*
X13430000Y-7040000D02*
X13480000Y-6990000D01*
X13430000Y-6940000D01*
X13380000Y-6990000D01*
X13430000Y-7040000D01*
X13430000Y-7294000D02*
X13480000Y-7244000D01*
X13430000Y-7194000D01*
X13380000Y-7244000D01*
X13430000Y-7294000D01*
X13430000Y-7548000D02*
X13480000Y-7498000D01*
X13430000Y-7448000D01*
X13380000Y-7498000D01*
X13430000Y-7548000D01*
X13430000Y-7802000D02*
X13480000Y-7752000D01*
X13430000Y-7702000D01*
X13380000Y-7752000D01*
X13430000Y-7802000D01*
X13430000Y-8056000D02*
X13480000Y-8006000D01*
X13430000Y-7956000D01*
X13380000Y-8006000D01*
X13430000Y-8056000D01*
X13448000Y-5010000D02*
X13498000Y-4960000D01*
X13448000Y-4910000D01*
X13398000Y-4960000D01*
X13448000Y-5010000D01*
D16*
X4715000Y-4315000D02*
X4985000Y-4585000D01*
X4985000Y-4315000D02*
X4715000Y-4585000D01*
X4985000Y-4450000D02*
G75*
G03*
X4985000Y-4450000I-135000J0D01*
G01*
X6265000Y-13665000D02*
X6535000Y-13935000D01*
X6535000Y-13665000D02*
X6265000Y-13935000D01*
X6535000Y-13800000D02*
G75*
G03*
X6535000Y-13800000I-135000J0D01*
G01*
X11465000Y-13665000D02*
X11735000Y-13935000D01*
X11735000Y-13665000D02*
X11465000Y-13935000D01*
X11735000Y-13800000D02*
G75*
G03*
X11735000Y-13800000I-135000J0D01*
G01*
X13015000Y-4315000D02*
X13285000Y-4585000D01*
X13285000Y-4315000D02*
X13015000Y-4585000D01*
X13285000Y-4450000D02*
G75*
G03*
X13285000Y-4450000I-135000J0D01*
G01*
D11*
X4555777Y-15816484D02*
X4555777Y-15616484D01*
X4555777Y-15616484D02*
X4603396Y-15616484D01*
X4603396Y-15616484D02*
X4631967Y-15626008D01*
X4631967Y-15626008D02*
X4651015Y-15645055D01*
X4651015Y-15645055D02*
X4660539Y-15664103D01*
X4660539Y-15664103D02*
X4670063Y-15702198D01*
X4670063Y-15702198D02*
X4670063Y-15730769D01*
X4670063Y-15730769D02*
X4660539Y-15768865D01*
X4660539Y-15768865D02*
X4651015Y-15787912D01*
X4651015Y-15787912D02*
X4631967Y-15806960D01*
X4631967Y-15806960D02*
X4603396Y-15816484D01*
X4603396Y-15816484D02*
X4555777Y-15816484D01*
X4755777Y-15816484D02*
X4755777Y-15683150D01*
X4755777Y-15721246D02*
X4765301Y-15702198D01*
X4765301Y-15702198D02*
X4774824Y-15692674D01*
X4774824Y-15692674D02*
X4793872Y-15683150D01*
X4793872Y-15683150D02*
X4812920Y-15683150D01*
X4879586Y-15816484D02*
X4879586Y-15683150D01*
X4879586Y-15616484D02*
X4870063Y-15626008D01*
X4870063Y-15626008D02*
X4879586Y-15635531D01*
X4879586Y-15635531D02*
X4889110Y-15626008D01*
X4889110Y-15626008D02*
X4879586Y-15616484D01*
X4879586Y-15616484D02*
X4879586Y-15635531D01*
X5003396Y-15816484D02*
X4984348Y-15806960D01*
X4984348Y-15806960D02*
X4974824Y-15787912D01*
X4974824Y-15787912D02*
X4974824Y-15616484D01*
X5108158Y-15816484D02*
X5089110Y-15806960D01*
X5089110Y-15806960D02*
X5079586Y-15787912D01*
X5079586Y-15787912D02*
X5079586Y-15616484D01*
X5336729Y-15816484D02*
X5336729Y-15616484D01*
X5336729Y-15616484D02*
X5403396Y-15759341D01*
X5403396Y-15759341D02*
X5470063Y-15616484D01*
X5470063Y-15616484D02*
X5470063Y-15816484D01*
X5651015Y-15816484D02*
X5651015Y-15711722D01*
X5651015Y-15711722D02*
X5641491Y-15692674D01*
X5641491Y-15692674D02*
X5622443Y-15683150D01*
X5622443Y-15683150D02*
X5584348Y-15683150D01*
X5584348Y-15683150D02*
X5565301Y-15692674D01*
X5651015Y-15806960D02*
X5631967Y-15816484D01*
X5631967Y-15816484D02*
X5584348Y-15816484D01*
X5584348Y-15816484D02*
X5565301Y-15806960D01*
X5565301Y-15806960D02*
X5555777Y-15787912D01*
X5555777Y-15787912D02*
X5555777Y-15768865D01*
X5555777Y-15768865D02*
X5565301Y-15749817D01*
X5565301Y-15749817D02*
X5584348Y-15740293D01*
X5584348Y-15740293D02*
X5631967Y-15740293D01*
X5631967Y-15740293D02*
X5651015Y-15730769D01*
X5746253Y-15683150D02*
X5746253Y-15883150D01*
X5746253Y-15692674D02*
X5765301Y-15683150D01*
X5765301Y-15683150D02*
X5803396Y-15683150D01*
X5803396Y-15683150D02*
X5822443Y-15692674D01*
X5822443Y-15692674D02*
X5831967Y-15702198D01*
X5831967Y-15702198D02*
X5841491Y-15721246D01*
X5841491Y-15721246D02*
X5841491Y-15778388D01*
X5841491Y-15778388D02*
X5831967Y-15797436D01*
X5831967Y-15797436D02*
X5822443Y-15806960D01*
X5822443Y-15806960D02*
X5803396Y-15816484D01*
X5803396Y-15816484D02*
X5765301Y-15816484D01*
X5765301Y-15816484D02*
X5746253Y-15806960D01*
X5927205Y-15797436D02*
X5936729Y-15806960D01*
X5936729Y-15806960D02*
X5927205Y-15816484D01*
X5927205Y-15816484D02*
X5917682Y-15806960D01*
X5917682Y-15806960D02*
X5927205Y-15797436D01*
X5927205Y-15797436D02*
X5927205Y-15816484D01*
X5927205Y-15692674D02*
X5936729Y-15702198D01*
X5936729Y-15702198D02*
X5927205Y-15711722D01*
X5927205Y-15711722D02*
X5917682Y-15702198D01*
X5917682Y-15702198D02*
X5927205Y-15692674D01*
X5927205Y-15692674D02*
X5927205Y-15711722D01*
D12*
X4265000Y-16130000D02*
X4295000Y-16160000D01*
X4295000Y-16130000D02*
X4265000Y-16160000D01*
D11*
X4593872Y-16036484D02*
X4612920Y-16036484D01*
X4612920Y-16036484D02*
X4631967Y-16046008D01*
X4631967Y-16046008D02*
X4641491Y-16055531D01*
X4641491Y-16055531D02*
X4651015Y-16074579D01*
X4651015Y-16074579D02*
X4660539Y-16112674D01*
X4660539Y-16112674D02*
X4660539Y-16160293D01*
X4660539Y-16160293D02*
X4651015Y-16198388D01*
X4651015Y-16198388D02*
X4641491Y-16217436D01*
X4641491Y-16217436D02*
X4631967Y-16226960D01*
X4631967Y-16226960D02*
X4612920Y-16236484D01*
X4612920Y-16236484D02*
X4593872Y-16236484D01*
X4593872Y-16236484D02*
X4574824Y-16226960D01*
X4574824Y-16226960D02*
X4565301Y-16217436D01*
X4565301Y-16217436D02*
X4555777Y-16198388D01*
X4555777Y-16198388D02*
X4546253Y-16160293D01*
X4546253Y-16160293D02*
X4546253Y-16112674D01*
X4546253Y-16112674D02*
X4555777Y-16074579D01*
X4555777Y-16074579D02*
X4565301Y-16055531D01*
X4565301Y-16055531D02*
X4574824Y-16046008D01*
X4574824Y-16046008D02*
X4593872Y-16036484D01*
X4746253Y-16217436D02*
X4755777Y-16226960D01*
X4755777Y-16226960D02*
X4746253Y-16236484D01*
X4746253Y-16236484D02*
X4736729Y-16226960D01*
X4736729Y-16226960D02*
X4746253Y-16217436D01*
X4746253Y-16217436D02*
X4746253Y-16236484D01*
X4822444Y-16036484D02*
X4946253Y-16036484D01*
X4946253Y-16036484D02*
X4879586Y-16112674D01*
X4879586Y-16112674D02*
X4908158Y-16112674D01*
X4908158Y-16112674D02*
X4927205Y-16122198D01*
X4927205Y-16122198D02*
X4936729Y-16131722D01*
X4936729Y-16131722D02*
X4946253Y-16150769D01*
X4946253Y-16150769D02*
X4946253Y-16198388D01*
X4946253Y-16198388D02*
X4936729Y-16217436D01*
X4936729Y-16217436D02*
X4927205Y-16226960D01*
X4927205Y-16226960D02*
X4908158Y-16236484D01*
X4908158Y-16236484D02*
X4851015Y-16236484D01*
X4851015Y-16236484D02*
X4831967Y-16226960D01*
X4831967Y-16226960D02*
X4822444Y-16217436D01*
X5070063Y-16036484D02*
X5089110Y-16036484D01*
X5089110Y-16036484D02*
X5108158Y-16046008D01*
X5108158Y-16046008D02*
X5117682Y-16055531D01*
X5117682Y-16055531D02*
X5127205Y-16074579D01*
X5127205Y-16074579D02*
X5136729Y-16112674D01*
X5136729Y-16112674D02*
X5136729Y-16160293D01*
X5136729Y-16160293D02*
X5127205Y-16198388D01*
X5127205Y-16198388D02*
X5117682Y-16217436D01*
X5117682Y-16217436D02*
X5108158Y-16226960D01*
X5108158Y-16226960D02*
X5089110Y-16236484D01*
X5089110Y-16236484D02*
X5070063Y-16236484D01*
X5070063Y-16236484D02*
X5051015Y-16226960D01*
X5051015Y-16226960D02*
X5041491Y-16217436D01*
X5041491Y-16217436D02*
X5031967Y-16198388D01*
X5031967Y-16198388D02*
X5022444Y-16160293D01*
X5022444Y-16160293D02*
X5022444Y-16112674D01*
X5022444Y-16112674D02*
X5031967Y-16074579D01*
X5031967Y-16074579D02*
X5041491Y-16055531D01*
X5041491Y-16055531D02*
X5051015Y-16046008D01*
X5051015Y-16046008D02*
X5070063Y-16036484D01*
X5260539Y-16036484D02*
X5279586Y-16036484D01*
X5279586Y-16036484D02*
X5298634Y-16046008D01*
X5298634Y-16046008D02*
X5308158Y-16055531D01*
X5308158Y-16055531D02*
X5317682Y-16074579D01*
X5317682Y-16074579D02*
X5327205Y-16112674D01*
X5327205Y-16112674D02*
X5327205Y-16160293D01*
X5327205Y-16160293D02*
X5317682Y-16198388D01*
X5317682Y-16198388D02*
X5308158Y-16217436D01*
X5308158Y-16217436D02*
X5298634Y-16226960D01*
X5298634Y-16226960D02*
X5279586Y-16236484D01*
X5279586Y-16236484D02*
X5260539Y-16236484D01*
X5260539Y-16236484D02*
X5241491Y-16226960D01*
X5241491Y-16226960D02*
X5231967Y-16217436D01*
X5231967Y-16217436D02*
X5222444Y-16198388D01*
X5222444Y-16198388D02*
X5212920Y-16160293D01*
X5212920Y-16160293D02*
X5212920Y-16112674D01*
X5212920Y-16112674D02*
X5222444Y-16074579D01*
X5222444Y-16074579D02*
X5231967Y-16055531D01*
X5231967Y-16055531D02*
X5241491Y-16046008D01*
X5241491Y-16046008D02*
X5260539Y-16036484D01*
X5412920Y-16236484D02*
X5412920Y-16103150D01*
X5412920Y-16122198D02*
X5422444Y-16112674D01*
X5422444Y-16112674D02*
X5441491Y-16103150D01*
X5441491Y-16103150D02*
X5470063Y-16103150D01*
X5470063Y-16103150D02*
X5489110Y-16112674D01*
X5489110Y-16112674D02*
X5498634Y-16131722D01*
X5498634Y-16131722D02*
X5498634Y-16236484D01*
X5498634Y-16131722D02*
X5508158Y-16112674D01*
X5508158Y-16112674D02*
X5527205Y-16103150D01*
X5527205Y-16103150D02*
X5555777Y-16103150D01*
X5555777Y-16103150D02*
X5574825Y-16112674D01*
X5574825Y-16112674D02*
X5584348Y-16131722D01*
X5584348Y-16131722D02*
X5584348Y-16236484D01*
X5679586Y-16236484D02*
X5679586Y-16103150D01*
X5679586Y-16122198D02*
X5689110Y-16112674D01*
X5689110Y-16112674D02*
X5708158Y-16103150D01*
X5708158Y-16103150D02*
X5736729Y-16103150D01*
X5736729Y-16103150D02*
X5755777Y-16112674D01*
X5755777Y-16112674D02*
X5765301Y-16131722D01*
X5765301Y-16131722D02*
X5765301Y-16236484D01*
X5765301Y-16131722D02*
X5774824Y-16112674D01*
X5774824Y-16112674D02*
X5793872Y-16103150D01*
X5793872Y-16103150D02*
X5822443Y-16103150D01*
X5822443Y-16103150D02*
X5841491Y-16112674D01*
X5841491Y-16112674D02*
X5851015Y-16131722D01*
X5851015Y-16131722D02*
X5851015Y-16236484D01*
X6241491Y-16026960D02*
X6070063Y-16284103D01*
X6498634Y-16036484D02*
X6517682Y-16036484D01*
X6517682Y-16036484D02*
X6536729Y-16046008D01*
X6536729Y-16046008D02*
X6546253Y-16055531D01*
X6546253Y-16055531D02*
X6555777Y-16074579D01*
X6555777Y-16074579D02*
X6565301Y-16112674D01*
X6565301Y-16112674D02*
X6565301Y-16160293D01*
X6565301Y-16160293D02*
X6555777Y-16198388D01*
X6555777Y-16198388D02*
X6546253Y-16217436D01*
X6546253Y-16217436D02*
X6536729Y-16226960D01*
X6536729Y-16226960D02*
X6517682Y-16236484D01*
X6517682Y-16236484D02*
X6498634Y-16236484D01*
X6498634Y-16236484D02*
X6479586Y-16226960D01*
X6479586Y-16226960D02*
X6470063Y-16217436D01*
X6470063Y-16217436D02*
X6460539Y-16198388D01*
X6460539Y-16198388D02*
X6451015Y-16160293D01*
X6451015Y-16160293D02*
X6451015Y-16112674D01*
X6451015Y-16112674D02*
X6460539Y-16074579D01*
X6460539Y-16074579D02*
X6470063Y-16055531D01*
X6470063Y-16055531D02*
X6479586Y-16046008D01*
X6479586Y-16046008D02*
X6498634Y-16036484D01*
X6651015Y-16217436D02*
X6660539Y-16226960D01*
X6660539Y-16226960D02*
X6651015Y-16236484D01*
X6651015Y-16236484D02*
X6641491Y-16226960D01*
X6641491Y-16226960D02*
X6651015Y-16217436D01*
X6651015Y-16217436D02*
X6651015Y-16236484D01*
X6784348Y-16036484D02*
X6803396Y-16036484D01*
X6803396Y-16036484D02*
X6822444Y-16046008D01*
X6822444Y-16046008D02*
X6831967Y-16055531D01*
X6831967Y-16055531D02*
X6841491Y-16074579D01*
X6841491Y-16074579D02*
X6851015Y-16112674D01*
X6851015Y-16112674D02*
X6851015Y-16160293D01*
X6851015Y-16160293D02*
X6841491Y-16198388D01*
X6841491Y-16198388D02*
X6831967Y-16217436D01*
X6831967Y-16217436D02*
X6822444Y-16226960D01*
X6822444Y-16226960D02*
X6803396Y-16236484D01*
X6803396Y-16236484D02*
X6784348Y-16236484D01*
X6784348Y-16236484D02*
X6765301Y-16226960D01*
X6765301Y-16226960D02*
X6755777Y-16217436D01*
X6755777Y-16217436D02*
X6746253Y-16198388D01*
X6746253Y-16198388D02*
X6736729Y-16160293D01*
X6736729Y-16160293D02*
X6736729Y-16112674D01*
X6736729Y-16112674D02*
X6746253Y-16074579D01*
X6746253Y-16074579D02*
X6755777Y-16055531D01*
X6755777Y-16055531D02*
X6765301Y-16046008D01*
X6765301Y-16046008D02*
X6784348Y-16036484D01*
X7041491Y-16236484D02*
X6927206Y-16236484D01*
X6984348Y-16236484D02*
X6984348Y-16036484D01*
X6984348Y-16036484D02*
X6965301Y-16065055D01*
X6965301Y-16065055D02*
X6946253Y-16084103D01*
X6946253Y-16084103D02*
X6927206Y-16093627D01*
X7231967Y-16236484D02*
X7117682Y-16236484D01*
X7174825Y-16236484D02*
X7174825Y-16036484D01*
X7174825Y-16036484D02*
X7155777Y-16065055D01*
X7155777Y-16065055D02*
X7136729Y-16084103D01*
X7136729Y-16084103D02*
X7117682Y-16093627D01*
X7346253Y-16122198D02*
X7327206Y-16112674D01*
X7327206Y-16112674D02*
X7317682Y-16103150D01*
X7317682Y-16103150D02*
X7308158Y-16084103D01*
X7308158Y-16084103D02*
X7308158Y-16074579D01*
X7308158Y-16074579D02*
X7317682Y-16055531D01*
X7317682Y-16055531D02*
X7327206Y-16046008D01*
X7327206Y-16046008D02*
X7346253Y-16036484D01*
X7346253Y-16036484D02*
X7384348Y-16036484D01*
X7384348Y-16036484D02*
X7403396Y-16046008D01*
X7403396Y-16046008D02*
X7412920Y-16055531D01*
X7412920Y-16055531D02*
X7422444Y-16074579D01*
X7422444Y-16074579D02*
X7422444Y-16084103D01*
X7422444Y-16084103D02*
X7412920Y-16103150D01*
X7412920Y-16103150D02*
X7403396Y-16112674D01*
X7403396Y-16112674D02*
X7384348Y-16122198D01*
X7384348Y-16122198D02*
X7346253Y-16122198D01*
X7346253Y-16122198D02*
X7327206Y-16131722D01*
X7327206Y-16131722D02*
X7317682Y-16141246D01*
X7317682Y-16141246D02*
X7308158Y-16160293D01*
X7308158Y-16160293D02*
X7308158Y-16198388D01*
X7308158Y-16198388D02*
X7317682Y-16217436D01*
X7317682Y-16217436D02*
X7327206Y-16226960D01*
X7327206Y-16226960D02*
X7346253Y-16236484D01*
X7346253Y-16236484D02*
X7384348Y-16236484D01*
X7384348Y-16236484D02*
X7403396Y-16226960D01*
X7403396Y-16226960D02*
X7412920Y-16217436D01*
X7412920Y-16217436D02*
X7422444Y-16198388D01*
X7422444Y-16198388D02*
X7422444Y-16160293D01*
X7422444Y-16160293D02*
X7412920Y-16141246D01*
X7412920Y-16141246D02*
X7403396Y-16131722D01*
X7403396Y-16131722D02*
X7384348Y-16122198D01*
X7498634Y-16036484D02*
X7498634Y-16074579D01*
X7574825Y-16036484D02*
X7574825Y-16074579D01*
X7870063Y-16312674D02*
X7860539Y-16303150D01*
X7860539Y-16303150D02*
X7841491Y-16274579D01*
X7841491Y-16274579D02*
X7831968Y-16255531D01*
X7831968Y-16255531D02*
X7822444Y-16226960D01*
X7822444Y-16226960D02*
X7812920Y-16179341D01*
X7812920Y-16179341D02*
X7812920Y-16141246D01*
X7812920Y-16141246D02*
X7822444Y-16093627D01*
X7822444Y-16093627D02*
X7831968Y-16065055D01*
X7831968Y-16065055D02*
X7841491Y-16046008D01*
X7841491Y-16046008D02*
X7860539Y-16017436D01*
X7860539Y-16017436D02*
X7870063Y-16007912D01*
X8051015Y-16236484D02*
X7936729Y-16236484D01*
X7993872Y-16236484D02*
X7993872Y-16036484D01*
X7993872Y-16036484D02*
X7974825Y-16065055D01*
X7974825Y-16065055D02*
X7955777Y-16084103D01*
X7955777Y-16084103D02*
X7936729Y-16093627D01*
X8127206Y-16055531D02*
X8136729Y-16046008D01*
X8136729Y-16046008D02*
X8155777Y-16036484D01*
X8155777Y-16036484D02*
X8203396Y-16036484D01*
X8203396Y-16036484D02*
X8222444Y-16046008D01*
X8222444Y-16046008D02*
X8231968Y-16055531D01*
X8231968Y-16055531D02*
X8241491Y-16074579D01*
X8241491Y-16074579D02*
X8241491Y-16093627D01*
X8241491Y-16093627D02*
X8231968Y-16122198D01*
X8231968Y-16122198D02*
X8117682Y-16236484D01*
X8117682Y-16236484D02*
X8241491Y-16236484D01*
X8355777Y-16122198D02*
X8336729Y-16112674D01*
X8336729Y-16112674D02*
X8327206Y-16103150D01*
X8327206Y-16103150D02*
X8317682Y-16084103D01*
X8317682Y-16084103D02*
X8317682Y-16074579D01*
X8317682Y-16074579D02*
X8327206Y-16055531D01*
X8327206Y-16055531D02*
X8336729Y-16046008D01*
X8336729Y-16046008D02*
X8355777Y-16036484D01*
X8355777Y-16036484D02*
X8393872Y-16036484D01*
X8393872Y-16036484D02*
X8412920Y-16046008D01*
X8412920Y-16046008D02*
X8422444Y-16055531D01*
X8422444Y-16055531D02*
X8431968Y-16074579D01*
X8431968Y-16074579D02*
X8431968Y-16084103D01*
X8431968Y-16084103D02*
X8422444Y-16103150D01*
X8422444Y-16103150D02*
X8412920Y-16112674D01*
X8412920Y-16112674D02*
X8393872Y-16122198D01*
X8393872Y-16122198D02*
X8355777Y-16122198D01*
X8355777Y-16122198D02*
X8336729Y-16131722D01*
X8336729Y-16131722D02*
X8327206Y-16141246D01*
X8327206Y-16141246D02*
X8317682Y-16160293D01*
X8317682Y-16160293D02*
X8317682Y-16198388D01*
X8317682Y-16198388D02*
X8327206Y-16217436D01*
X8327206Y-16217436D02*
X8336729Y-16226960D01*
X8336729Y-16226960D02*
X8355777Y-16236484D01*
X8355777Y-16236484D02*
X8393872Y-16236484D01*
X8393872Y-16236484D02*
X8412920Y-16226960D01*
X8412920Y-16226960D02*
X8422444Y-16217436D01*
X8422444Y-16217436D02*
X8431968Y-16198388D01*
X8431968Y-16198388D02*
X8431968Y-16160293D01*
X8431968Y-16160293D02*
X8422444Y-16141246D01*
X8422444Y-16141246D02*
X8412920Y-16131722D01*
X8412920Y-16131722D02*
X8393872Y-16122198D01*
X8670063Y-16236484D02*
X8670063Y-16036484D01*
X8755777Y-16236484D02*
X8755777Y-16131722D01*
X8755777Y-16131722D02*
X8746253Y-16112674D01*
X8746253Y-16112674D02*
X8727206Y-16103150D01*
X8727206Y-16103150D02*
X8698634Y-16103150D01*
X8698634Y-16103150D02*
X8679587Y-16112674D01*
X8679587Y-16112674D02*
X8670063Y-16122198D01*
X8879587Y-16236484D02*
X8860539Y-16226960D01*
X8860539Y-16226960D02*
X8851015Y-16217436D01*
X8851015Y-16217436D02*
X8841492Y-16198388D01*
X8841492Y-16198388D02*
X8841492Y-16141246D01*
X8841492Y-16141246D02*
X8851015Y-16122198D01*
X8851015Y-16122198D02*
X8860539Y-16112674D01*
X8860539Y-16112674D02*
X8879587Y-16103150D01*
X8879587Y-16103150D02*
X8908158Y-16103150D01*
X8908158Y-16103150D02*
X8927206Y-16112674D01*
X8927206Y-16112674D02*
X8936730Y-16122198D01*
X8936730Y-16122198D02*
X8946253Y-16141246D01*
X8946253Y-16141246D02*
X8946253Y-16198388D01*
X8946253Y-16198388D02*
X8936730Y-16217436D01*
X8936730Y-16217436D02*
X8927206Y-16226960D01*
X8927206Y-16226960D02*
X8908158Y-16236484D01*
X8908158Y-16236484D02*
X8879587Y-16236484D01*
X9060539Y-16236484D02*
X9041492Y-16226960D01*
X9041492Y-16226960D02*
X9031968Y-16207912D01*
X9031968Y-16207912D02*
X9031968Y-16036484D01*
X9212920Y-16226960D02*
X9193873Y-16236484D01*
X9193873Y-16236484D02*
X9155777Y-16236484D01*
X9155777Y-16236484D02*
X9136730Y-16226960D01*
X9136730Y-16226960D02*
X9127206Y-16207912D01*
X9127206Y-16207912D02*
X9127206Y-16131722D01*
X9127206Y-16131722D02*
X9136730Y-16112674D01*
X9136730Y-16112674D02*
X9155777Y-16103150D01*
X9155777Y-16103150D02*
X9193873Y-16103150D01*
X9193873Y-16103150D02*
X9212920Y-16112674D01*
X9212920Y-16112674D02*
X9222444Y-16131722D01*
X9222444Y-16131722D02*
X9222444Y-16150769D01*
X9222444Y-16150769D02*
X9127206Y-16169817D01*
X9298634Y-16226960D02*
X9317682Y-16236484D01*
X9317682Y-16236484D02*
X9355777Y-16236484D01*
X9355777Y-16236484D02*
X9374825Y-16226960D01*
X9374825Y-16226960D02*
X9384349Y-16207912D01*
X9384349Y-16207912D02*
X9384349Y-16198388D01*
X9384349Y-16198388D02*
X9374825Y-16179341D01*
X9374825Y-16179341D02*
X9355777Y-16169817D01*
X9355777Y-16169817D02*
X9327206Y-16169817D01*
X9327206Y-16169817D02*
X9308158Y-16160293D01*
X9308158Y-16160293D02*
X9298634Y-16141246D01*
X9298634Y-16141246D02*
X9298634Y-16131722D01*
X9298634Y-16131722D02*
X9308158Y-16112674D01*
X9308158Y-16112674D02*
X9327206Y-16103150D01*
X9327206Y-16103150D02*
X9355777Y-16103150D01*
X9355777Y-16103150D02*
X9374825Y-16112674D01*
X9451015Y-16312674D02*
X9460539Y-16303150D01*
X9460539Y-16303150D02*
X9479587Y-16274579D01*
X9479587Y-16274579D02*
X9489111Y-16255531D01*
X9489111Y-16255531D02*
X9498634Y-16226960D01*
X9498634Y-16226960D02*
X9508158Y-16179341D01*
X9508158Y-16179341D02*
X9508158Y-16141246D01*
X9508158Y-16141246D02*
X9498634Y-16093627D01*
X9498634Y-16093627D02*
X9489111Y-16065055D01*
X9489111Y-16065055D02*
X9479587Y-16046008D01*
X9479587Y-16046008D02*
X9460539Y-16017436D01*
X9460539Y-16017436D02*
X9451015Y-16007912D01*
D13*
X4295000Y-16409000D02*
G75*
G03*
X4295000Y-16409000I-20000J0D01*
G01*
D11*
X4593872Y-16300484D02*
X4612920Y-16300484D01*
X4612920Y-16300484D02*
X4631967Y-16310008D01*
X4631967Y-16310008D02*
X4641491Y-16319531D01*
X4641491Y-16319531D02*
X4651015Y-16338579D01*
X4651015Y-16338579D02*
X4660539Y-16376674D01*
X4660539Y-16376674D02*
X4660539Y-16424293D01*
X4660539Y-16424293D02*
X4651015Y-16462388D01*
X4651015Y-16462388D02*
X4641491Y-16481436D01*
X4641491Y-16481436D02*
X4631967Y-16490960D01*
X4631967Y-16490960D02*
X4612920Y-16500484D01*
X4612920Y-16500484D02*
X4593872Y-16500484D01*
X4593872Y-16500484D02*
X4574824Y-16490960D01*
X4574824Y-16490960D02*
X4565301Y-16481436D01*
X4565301Y-16481436D02*
X4555777Y-16462388D01*
X4555777Y-16462388D02*
X4546253Y-16424293D01*
X4546253Y-16424293D02*
X4546253Y-16376674D01*
X4546253Y-16376674D02*
X4555777Y-16338579D01*
X4555777Y-16338579D02*
X4565301Y-16319531D01*
X4565301Y-16319531D02*
X4574824Y-16310008D01*
X4574824Y-16310008D02*
X4593872Y-16300484D01*
X4746253Y-16481436D02*
X4755777Y-16490960D01*
X4755777Y-16490960D02*
X4746253Y-16500484D01*
X4746253Y-16500484D02*
X4736729Y-16490960D01*
X4736729Y-16490960D02*
X4746253Y-16481436D01*
X4746253Y-16481436D02*
X4746253Y-16500484D01*
X4927205Y-16367150D02*
X4927205Y-16500484D01*
X4879586Y-16290960D02*
X4831967Y-16433817D01*
X4831967Y-16433817D02*
X4955777Y-16433817D01*
X5070063Y-16300484D02*
X5089110Y-16300484D01*
X5089110Y-16300484D02*
X5108158Y-16310008D01*
X5108158Y-16310008D02*
X5117682Y-16319531D01*
X5117682Y-16319531D02*
X5127205Y-16338579D01*
X5127205Y-16338579D02*
X5136729Y-16376674D01*
X5136729Y-16376674D02*
X5136729Y-16424293D01*
X5136729Y-16424293D02*
X5127205Y-16462388D01*
X5127205Y-16462388D02*
X5117682Y-16481436D01*
X5117682Y-16481436D02*
X5108158Y-16490960D01*
X5108158Y-16490960D02*
X5089110Y-16500484D01*
X5089110Y-16500484D02*
X5070063Y-16500484D01*
X5070063Y-16500484D02*
X5051015Y-16490960D01*
X5051015Y-16490960D02*
X5041491Y-16481436D01*
X5041491Y-16481436D02*
X5031967Y-16462388D01*
X5031967Y-16462388D02*
X5022444Y-16424293D01*
X5022444Y-16424293D02*
X5022444Y-16376674D01*
X5022444Y-16376674D02*
X5031967Y-16338579D01*
X5031967Y-16338579D02*
X5041491Y-16319531D01*
X5041491Y-16319531D02*
X5051015Y-16310008D01*
X5051015Y-16310008D02*
X5070063Y-16300484D01*
X5260539Y-16300484D02*
X5279586Y-16300484D01*
X5279586Y-16300484D02*
X5298634Y-16310008D01*
X5298634Y-16310008D02*
X5308158Y-16319531D01*
X5308158Y-16319531D02*
X5317682Y-16338579D01*
X5317682Y-16338579D02*
X5327205Y-16376674D01*
X5327205Y-16376674D02*
X5327205Y-16424293D01*
X5327205Y-16424293D02*
X5317682Y-16462388D01*
X5317682Y-16462388D02*
X5308158Y-16481436D01*
X5308158Y-16481436D02*
X5298634Y-16490960D01*
X5298634Y-16490960D02*
X5279586Y-16500484D01*
X5279586Y-16500484D02*
X5260539Y-16500484D01*
X5260539Y-16500484D02*
X5241491Y-16490960D01*
X5241491Y-16490960D02*
X5231967Y-16481436D01*
X5231967Y-16481436D02*
X5222444Y-16462388D01*
X5222444Y-16462388D02*
X5212920Y-16424293D01*
X5212920Y-16424293D02*
X5212920Y-16376674D01*
X5212920Y-16376674D02*
X5222444Y-16338579D01*
X5222444Y-16338579D02*
X5231967Y-16319531D01*
X5231967Y-16319531D02*
X5241491Y-16310008D01*
X5241491Y-16310008D02*
X5260539Y-16300484D01*
X5412920Y-16500484D02*
X5412920Y-16367150D01*
X5412920Y-16386198D02*
X5422444Y-16376674D01*
X5422444Y-16376674D02*
X5441491Y-16367150D01*
X5441491Y-16367150D02*
X5470063Y-16367150D01*
X5470063Y-16367150D02*
X5489110Y-16376674D01*
X5489110Y-16376674D02*
X5498634Y-16395722D01*
X5498634Y-16395722D02*
X5498634Y-16500484D01*
X5498634Y-16395722D02*
X5508158Y-16376674D01*
X5508158Y-16376674D02*
X5527205Y-16367150D01*
X5527205Y-16367150D02*
X5555777Y-16367150D01*
X5555777Y-16367150D02*
X5574825Y-16376674D01*
X5574825Y-16376674D02*
X5584348Y-16395722D01*
X5584348Y-16395722D02*
X5584348Y-16500484D01*
X5679586Y-16500484D02*
X5679586Y-16367150D01*
X5679586Y-16386198D02*
X5689110Y-16376674D01*
X5689110Y-16376674D02*
X5708158Y-16367150D01*
X5708158Y-16367150D02*
X5736729Y-16367150D01*
X5736729Y-16367150D02*
X5755777Y-16376674D01*
X5755777Y-16376674D02*
X5765301Y-16395722D01*
X5765301Y-16395722D02*
X5765301Y-16500484D01*
X5765301Y-16395722D02*
X5774824Y-16376674D01*
X5774824Y-16376674D02*
X5793872Y-16367150D01*
X5793872Y-16367150D02*
X5822443Y-16367150D01*
X5822443Y-16367150D02*
X5841491Y-16376674D01*
X5841491Y-16376674D02*
X5851015Y-16395722D01*
X5851015Y-16395722D02*
X5851015Y-16500484D01*
X6241491Y-16290960D02*
X6070063Y-16548103D01*
X6498634Y-16300484D02*
X6517682Y-16300484D01*
X6517682Y-16300484D02*
X6536729Y-16310008D01*
X6536729Y-16310008D02*
X6546253Y-16319531D01*
X6546253Y-16319531D02*
X6555777Y-16338579D01*
X6555777Y-16338579D02*
X6565301Y-16376674D01*
X6565301Y-16376674D02*
X6565301Y-16424293D01*
X6565301Y-16424293D02*
X6555777Y-16462388D01*
X6555777Y-16462388D02*
X6546253Y-16481436D01*
X6546253Y-16481436D02*
X6536729Y-16490960D01*
X6536729Y-16490960D02*
X6517682Y-16500484D01*
X6517682Y-16500484D02*
X6498634Y-16500484D01*
X6498634Y-16500484D02*
X6479586Y-16490960D01*
X6479586Y-16490960D02*
X6470063Y-16481436D01*
X6470063Y-16481436D02*
X6460539Y-16462388D01*
X6460539Y-16462388D02*
X6451015Y-16424293D01*
X6451015Y-16424293D02*
X6451015Y-16376674D01*
X6451015Y-16376674D02*
X6460539Y-16338579D01*
X6460539Y-16338579D02*
X6470063Y-16319531D01*
X6470063Y-16319531D02*
X6479586Y-16310008D01*
X6479586Y-16310008D02*
X6498634Y-16300484D01*
X6651015Y-16481436D02*
X6660539Y-16490960D01*
X6660539Y-16490960D02*
X6651015Y-16500484D01*
X6651015Y-16500484D02*
X6641491Y-16490960D01*
X6641491Y-16490960D02*
X6651015Y-16481436D01*
X6651015Y-16481436D02*
X6651015Y-16500484D01*
X6784348Y-16300484D02*
X6803396Y-16300484D01*
X6803396Y-16300484D02*
X6822444Y-16310008D01*
X6822444Y-16310008D02*
X6831967Y-16319531D01*
X6831967Y-16319531D02*
X6841491Y-16338579D01*
X6841491Y-16338579D02*
X6851015Y-16376674D01*
X6851015Y-16376674D02*
X6851015Y-16424293D01*
X6851015Y-16424293D02*
X6841491Y-16462388D01*
X6841491Y-16462388D02*
X6831967Y-16481436D01*
X6831967Y-16481436D02*
X6822444Y-16490960D01*
X6822444Y-16490960D02*
X6803396Y-16500484D01*
X6803396Y-16500484D02*
X6784348Y-16500484D01*
X6784348Y-16500484D02*
X6765301Y-16490960D01*
X6765301Y-16490960D02*
X6755777Y-16481436D01*
X6755777Y-16481436D02*
X6746253Y-16462388D01*
X6746253Y-16462388D02*
X6736729Y-16424293D01*
X6736729Y-16424293D02*
X6736729Y-16376674D01*
X6736729Y-16376674D02*
X6746253Y-16338579D01*
X6746253Y-16338579D02*
X6755777Y-16319531D01*
X6755777Y-16319531D02*
X6765301Y-16310008D01*
X6765301Y-16310008D02*
X6784348Y-16300484D01*
X7041491Y-16500484D02*
X6927206Y-16500484D01*
X6984348Y-16500484D02*
X6984348Y-16300484D01*
X6984348Y-16300484D02*
X6965301Y-16329055D01*
X6965301Y-16329055D02*
X6946253Y-16348103D01*
X6946253Y-16348103D02*
X6927206Y-16357627D01*
X7222444Y-16300484D02*
X7127206Y-16300484D01*
X7127206Y-16300484D02*
X7117682Y-16395722D01*
X7117682Y-16395722D02*
X7127206Y-16386198D01*
X7127206Y-16386198D02*
X7146253Y-16376674D01*
X7146253Y-16376674D02*
X7193872Y-16376674D01*
X7193872Y-16376674D02*
X7212920Y-16386198D01*
X7212920Y-16386198D02*
X7222444Y-16395722D01*
X7222444Y-16395722D02*
X7231967Y-16414769D01*
X7231967Y-16414769D02*
X7231967Y-16462388D01*
X7231967Y-16462388D02*
X7222444Y-16481436D01*
X7222444Y-16481436D02*
X7212920Y-16490960D01*
X7212920Y-16490960D02*
X7193872Y-16500484D01*
X7193872Y-16500484D02*
X7146253Y-16500484D01*
X7146253Y-16500484D02*
X7127206Y-16490960D01*
X7127206Y-16490960D02*
X7117682Y-16481436D01*
X7298634Y-16300484D02*
X7431967Y-16300484D01*
X7431967Y-16300484D02*
X7346253Y-16500484D01*
X7498634Y-16300484D02*
X7498634Y-16338579D01*
X7574825Y-16300484D02*
X7574825Y-16338579D01*
X7870063Y-16576674D02*
X7860539Y-16567150D01*
X7860539Y-16567150D02*
X7841491Y-16538579D01*
X7841491Y-16538579D02*
X7831968Y-16519531D01*
X7831968Y-16519531D02*
X7822444Y-16490960D01*
X7822444Y-16490960D02*
X7812920Y-16443341D01*
X7812920Y-16443341D02*
X7812920Y-16405246D01*
X7812920Y-16405246D02*
X7822444Y-16357627D01*
X7822444Y-16357627D02*
X7831968Y-16329055D01*
X7831968Y-16329055D02*
X7841491Y-16310008D01*
X7841491Y-16310008D02*
X7860539Y-16281436D01*
X7860539Y-16281436D02*
X7870063Y-16271912D01*
X8051015Y-16500484D02*
X7936729Y-16500484D01*
X7993872Y-16500484D02*
X7993872Y-16300484D01*
X7993872Y-16300484D02*
X7974825Y-16329055D01*
X7974825Y-16329055D02*
X7955777Y-16348103D01*
X7955777Y-16348103D02*
X7936729Y-16357627D01*
X8117682Y-16300484D02*
X8251015Y-16300484D01*
X8251015Y-16300484D02*
X8165301Y-16500484D01*
X8336729Y-16500484D02*
X8374825Y-16500484D01*
X8374825Y-16500484D02*
X8393872Y-16490960D01*
X8393872Y-16490960D02*
X8403396Y-16481436D01*
X8403396Y-16481436D02*
X8422444Y-16452865D01*
X8422444Y-16452865D02*
X8431968Y-16414769D01*
X8431968Y-16414769D02*
X8431968Y-16338579D01*
X8431968Y-16338579D02*
X8422444Y-16319531D01*
X8422444Y-16319531D02*
X8412920Y-16310008D01*
X8412920Y-16310008D02*
X8393872Y-16300484D01*
X8393872Y-16300484D02*
X8355777Y-16300484D01*
X8355777Y-16300484D02*
X8336729Y-16310008D01*
X8336729Y-16310008D02*
X8327206Y-16319531D01*
X8327206Y-16319531D02*
X8317682Y-16338579D01*
X8317682Y-16338579D02*
X8317682Y-16386198D01*
X8317682Y-16386198D02*
X8327206Y-16405246D01*
X8327206Y-16405246D02*
X8336729Y-16414769D01*
X8336729Y-16414769D02*
X8355777Y-16424293D01*
X8355777Y-16424293D02*
X8393872Y-16424293D01*
X8393872Y-16424293D02*
X8412920Y-16414769D01*
X8412920Y-16414769D02*
X8422444Y-16405246D01*
X8422444Y-16405246D02*
X8431968Y-16386198D01*
X8670063Y-16500484D02*
X8670063Y-16300484D01*
X8755777Y-16500484D02*
X8755777Y-16395722D01*
X8755777Y-16395722D02*
X8746253Y-16376674D01*
X8746253Y-16376674D02*
X8727206Y-16367150D01*
X8727206Y-16367150D02*
X8698634Y-16367150D01*
X8698634Y-16367150D02*
X8679587Y-16376674D01*
X8679587Y-16376674D02*
X8670063Y-16386198D01*
X8879587Y-16500484D02*
X8860539Y-16490960D01*
X8860539Y-16490960D02*
X8851015Y-16481436D01*
X8851015Y-16481436D02*
X8841492Y-16462388D01*
X8841492Y-16462388D02*
X8841492Y-16405246D01*
X8841492Y-16405246D02*
X8851015Y-16386198D01*
X8851015Y-16386198D02*
X8860539Y-16376674D01*
X8860539Y-16376674D02*
X8879587Y-16367150D01*
X8879587Y-16367150D02*
X8908158Y-16367150D01*
X8908158Y-16367150D02*
X8927206Y-16376674D01*
X8927206Y-16376674D02*
X8936730Y-16386198D01*
X8936730Y-16386198D02*
X8946253Y-16405246D01*
X8946253Y-16405246D02*
X8946253Y-16462388D01*
X8946253Y-16462388D02*
X8936730Y-16481436D01*
X8936730Y-16481436D02*
X8927206Y-16490960D01*
X8927206Y-16490960D02*
X8908158Y-16500484D01*
X8908158Y-16500484D02*
X8879587Y-16500484D01*
X9060539Y-16500484D02*
X9041492Y-16490960D01*
X9041492Y-16490960D02*
X9031968Y-16471912D01*
X9031968Y-16471912D02*
X9031968Y-16300484D01*
X9212920Y-16490960D02*
X9193873Y-16500484D01*
X9193873Y-16500484D02*
X9155777Y-16500484D01*
X9155777Y-16500484D02*
X9136730Y-16490960D01*
X9136730Y-16490960D02*
X9127206Y-16471912D01*
X9127206Y-16471912D02*
X9127206Y-16395722D01*
X9127206Y-16395722D02*
X9136730Y-16376674D01*
X9136730Y-16376674D02*
X9155777Y-16367150D01*
X9155777Y-16367150D02*
X9193873Y-16367150D01*
X9193873Y-16367150D02*
X9212920Y-16376674D01*
X9212920Y-16376674D02*
X9222444Y-16395722D01*
X9222444Y-16395722D02*
X9222444Y-16414769D01*
X9222444Y-16414769D02*
X9127206Y-16433817D01*
X9298634Y-16490960D02*
X9317682Y-16500484D01*
X9317682Y-16500484D02*
X9355777Y-16500484D01*
X9355777Y-16500484D02*
X9374825Y-16490960D01*
X9374825Y-16490960D02*
X9384349Y-16471912D01*
X9384349Y-16471912D02*
X9384349Y-16462388D01*
X9384349Y-16462388D02*
X9374825Y-16443341D01*
X9374825Y-16443341D02*
X9355777Y-16433817D01*
X9355777Y-16433817D02*
X9327206Y-16433817D01*
X9327206Y-16433817D02*
X9308158Y-16424293D01*
X9308158Y-16424293D02*
X9298634Y-16405246D01*
X9298634Y-16405246D02*
X9298634Y-16395722D01*
X9298634Y-16395722D02*
X9308158Y-16376674D01*
X9308158Y-16376674D02*
X9327206Y-16367150D01*
X9327206Y-16367150D02*
X9355777Y-16367150D01*
X9355777Y-16367150D02*
X9374825Y-16376674D01*
X9451015Y-16576674D02*
X9460539Y-16567150D01*
X9460539Y-16567150D02*
X9479587Y-16538579D01*
X9479587Y-16538579D02*
X9489111Y-16519531D01*
X9489111Y-16519531D02*
X9498634Y-16490960D01*
X9498634Y-16490960D02*
X9508158Y-16443341D01*
X9508158Y-16443341D02*
X9508158Y-16405246D01*
X9508158Y-16405246D02*
X9498634Y-16357627D01*
X9498634Y-16357627D02*
X9489111Y-16329055D01*
X9489111Y-16329055D02*
X9479587Y-16310008D01*
X9479587Y-16310008D02*
X9460539Y-16281436D01*
X9460539Y-16281436D02*
X9451015Y-16271912D01*
D14*
X4270000Y-16648000D02*
X4270000Y-16698000D01*
X4245000Y-16673000D02*
X4295000Y-16673000D01*
D11*
X4593872Y-16564484D02*
X4612920Y-16564484D01*
X4612920Y-16564484D02*
X4631967Y-16574008D01*
X4631967Y-16574008D02*
X4641491Y-16583531D01*
X4641491Y-16583531D02*
X4651015Y-16602579D01*
X4651015Y-16602579D02*
X4660539Y-16640674D01*
X4660539Y-16640674D02*
X4660539Y-16688293D01*
X4660539Y-16688293D02*
X4651015Y-16726388D01*
X4651015Y-16726388D02*
X4641491Y-16745436D01*
X4641491Y-16745436D02*
X4631967Y-16754960D01*
X4631967Y-16754960D02*
X4612920Y-16764484D01*
X4612920Y-16764484D02*
X4593872Y-16764484D01*
X4593872Y-16764484D02*
X4574824Y-16754960D01*
X4574824Y-16754960D02*
X4565301Y-16745436D01*
X4565301Y-16745436D02*
X4555777Y-16726388D01*
X4555777Y-16726388D02*
X4546253Y-16688293D01*
X4546253Y-16688293D02*
X4546253Y-16640674D01*
X4546253Y-16640674D02*
X4555777Y-16602579D01*
X4555777Y-16602579D02*
X4565301Y-16583531D01*
X4565301Y-16583531D02*
X4574824Y-16574008D01*
X4574824Y-16574008D02*
X4593872Y-16564484D01*
X4746253Y-16745436D02*
X4755777Y-16754960D01*
X4755777Y-16754960D02*
X4746253Y-16764484D01*
X4746253Y-16764484D02*
X4736729Y-16754960D01*
X4736729Y-16754960D02*
X4746253Y-16745436D01*
X4746253Y-16745436D02*
X4746253Y-16764484D01*
X4936729Y-16564484D02*
X4841491Y-16564484D01*
X4841491Y-16564484D02*
X4831967Y-16659722D01*
X4831967Y-16659722D02*
X4841491Y-16650198D01*
X4841491Y-16650198D02*
X4860539Y-16640674D01*
X4860539Y-16640674D02*
X4908158Y-16640674D01*
X4908158Y-16640674D02*
X4927205Y-16650198D01*
X4927205Y-16650198D02*
X4936729Y-16659722D01*
X4936729Y-16659722D02*
X4946253Y-16678769D01*
X4946253Y-16678769D02*
X4946253Y-16726388D01*
X4946253Y-16726388D02*
X4936729Y-16745436D01*
X4936729Y-16745436D02*
X4927205Y-16754960D01*
X4927205Y-16754960D02*
X4908158Y-16764484D01*
X4908158Y-16764484D02*
X4860539Y-16764484D01*
X4860539Y-16764484D02*
X4841491Y-16754960D01*
X4841491Y-16754960D02*
X4831967Y-16745436D01*
X5070063Y-16564484D02*
X5089110Y-16564484D01*
X5089110Y-16564484D02*
X5108158Y-16574008D01*
X5108158Y-16574008D02*
X5117682Y-16583531D01*
X5117682Y-16583531D02*
X5127205Y-16602579D01*
X5127205Y-16602579D02*
X5136729Y-16640674D01*
X5136729Y-16640674D02*
X5136729Y-16688293D01*
X5136729Y-16688293D02*
X5127205Y-16726388D01*
X5127205Y-16726388D02*
X5117682Y-16745436D01*
X5117682Y-16745436D02*
X5108158Y-16754960D01*
X5108158Y-16754960D02*
X5089110Y-16764484D01*
X5089110Y-16764484D02*
X5070063Y-16764484D01*
X5070063Y-16764484D02*
X5051015Y-16754960D01*
X5051015Y-16754960D02*
X5041491Y-16745436D01*
X5041491Y-16745436D02*
X5031967Y-16726388D01*
X5031967Y-16726388D02*
X5022444Y-16688293D01*
X5022444Y-16688293D02*
X5022444Y-16640674D01*
X5022444Y-16640674D02*
X5031967Y-16602579D01*
X5031967Y-16602579D02*
X5041491Y-16583531D01*
X5041491Y-16583531D02*
X5051015Y-16574008D01*
X5051015Y-16574008D02*
X5070063Y-16564484D01*
X5260539Y-16564484D02*
X5279586Y-16564484D01*
X5279586Y-16564484D02*
X5298634Y-16574008D01*
X5298634Y-16574008D02*
X5308158Y-16583531D01*
X5308158Y-16583531D02*
X5317682Y-16602579D01*
X5317682Y-16602579D02*
X5327205Y-16640674D01*
X5327205Y-16640674D02*
X5327205Y-16688293D01*
X5327205Y-16688293D02*
X5317682Y-16726388D01*
X5317682Y-16726388D02*
X5308158Y-16745436D01*
X5308158Y-16745436D02*
X5298634Y-16754960D01*
X5298634Y-16754960D02*
X5279586Y-16764484D01*
X5279586Y-16764484D02*
X5260539Y-16764484D01*
X5260539Y-16764484D02*
X5241491Y-16754960D01*
X5241491Y-16754960D02*
X5231967Y-16745436D01*
X5231967Y-16745436D02*
X5222444Y-16726388D01*
X5222444Y-16726388D02*
X5212920Y-16688293D01*
X5212920Y-16688293D02*
X5212920Y-16640674D01*
X5212920Y-16640674D02*
X5222444Y-16602579D01*
X5222444Y-16602579D02*
X5231967Y-16583531D01*
X5231967Y-16583531D02*
X5241491Y-16574008D01*
X5241491Y-16574008D02*
X5260539Y-16564484D01*
X5412920Y-16764484D02*
X5412920Y-16631150D01*
X5412920Y-16650198D02*
X5422444Y-16640674D01*
X5422444Y-16640674D02*
X5441491Y-16631150D01*
X5441491Y-16631150D02*
X5470063Y-16631150D01*
X5470063Y-16631150D02*
X5489110Y-16640674D01*
X5489110Y-16640674D02*
X5498634Y-16659722D01*
X5498634Y-16659722D02*
X5498634Y-16764484D01*
X5498634Y-16659722D02*
X5508158Y-16640674D01*
X5508158Y-16640674D02*
X5527205Y-16631150D01*
X5527205Y-16631150D02*
X5555777Y-16631150D01*
X5555777Y-16631150D02*
X5574825Y-16640674D01*
X5574825Y-16640674D02*
X5584348Y-16659722D01*
X5584348Y-16659722D02*
X5584348Y-16764484D01*
X5679586Y-16764484D02*
X5679586Y-16631150D01*
X5679586Y-16650198D02*
X5689110Y-16640674D01*
X5689110Y-16640674D02*
X5708158Y-16631150D01*
X5708158Y-16631150D02*
X5736729Y-16631150D01*
X5736729Y-16631150D02*
X5755777Y-16640674D01*
X5755777Y-16640674D02*
X5765301Y-16659722D01*
X5765301Y-16659722D02*
X5765301Y-16764484D01*
X5765301Y-16659722D02*
X5774824Y-16640674D01*
X5774824Y-16640674D02*
X5793872Y-16631150D01*
X5793872Y-16631150D02*
X5822443Y-16631150D01*
X5822443Y-16631150D02*
X5841491Y-16640674D01*
X5841491Y-16640674D02*
X5851015Y-16659722D01*
X5851015Y-16659722D02*
X5851015Y-16764484D01*
X6241491Y-16554960D02*
X6070063Y-16812103D01*
X6498634Y-16564484D02*
X6517682Y-16564484D01*
X6517682Y-16564484D02*
X6536729Y-16574008D01*
X6536729Y-16574008D02*
X6546253Y-16583531D01*
X6546253Y-16583531D02*
X6555777Y-16602579D01*
X6555777Y-16602579D02*
X6565301Y-16640674D01*
X6565301Y-16640674D02*
X6565301Y-16688293D01*
X6565301Y-16688293D02*
X6555777Y-16726388D01*
X6555777Y-16726388D02*
X6546253Y-16745436D01*
X6546253Y-16745436D02*
X6536729Y-16754960D01*
X6536729Y-16754960D02*
X6517682Y-16764484D01*
X6517682Y-16764484D02*
X6498634Y-16764484D01*
X6498634Y-16764484D02*
X6479586Y-16754960D01*
X6479586Y-16754960D02*
X6470063Y-16745436D01*
X6470063Y-16745436D02*
X6460539Y-16726388D01*
X6460539Y-16726388D02*
X6451015Y-16688293D01*
X6451015Y-16688293D02*
X6451015Y-16640674D01*
X6451015Y-16640674D02*
X6460539Y-16602579D01*
X6460539Y-16602579D02*
X6470063Y-16583531D01*
X6470063Y-16583531D02*
X6479586Y-16574008D01*
X6479586Y-16574008D02*
X6498634Y-16564484D01*
X6651015Y-16745436D02*
X6660539Y-16754960D01*
X6660539Y-16754960D02*
X6651015Y-16764484D01*
X6651015Y-16764484D02*
X6641491Y-16754960D01*
X6641491Y-16754960D02*
X6651015Y-16745436D01*
X6651015Y-16745436D02*
X6651015Y-16764484D01*
X6784348Y-16564484D02*
X6803396Y-16564484D01*
X6803396Y-16564484D02*
X6822444Y-16574008D01*
X6822444Y-16574008D02*
X6831967Y-16583531D01*
X6831967Y-16583531D02*
X6841491Y-16602579D01*
X6841491Y-16602579D02*
X6851015Y-16640674D01*
X6851015Y-16640674D02*
X6851015Y-16688293D01*
X6851015Y-16688293D02*
X6841491Y-16726388D01*
X6841491Y-16726388D02*
X6831967Y-16745436D01*
X6831967Y-16745436D02*
X6822444Y-16754960D01*
X6822444Y-16754960D02*
X6803396Y-16764484D01*
X6803396Y-16764484D02*
X6784348Y-16764484D01*
X6784348Y-16764484D02*
X6765301Y-16754960D01*
X6765301Y-16754960D02*
X6755777Y-16745436D01*
X6755777Y-16745436D02*
X6746253Y-16726388D01*
X6746253Y-16726388D02*
X6736729Y-16688293D01*
X6736729Y-16688293D02*
X6736729Y-16640674D01*
X6736729Y-16640674D02*
X6746253Y-16602579D01*
X6746253Y-16602579D02*
X6755777Y-16583531D01*
X6755777Y-16583531D02*
X6765301Y-16574008D01*
X6765301Y-16574008D02*
X6784348Y-16564484D01*
X7041491Y-16764484D02*
X6927206Y-16764484D01*
X6984348Y-16764484D02*
X6984348Y-16564484D01*
X6984348Y-16564484D02*
X6965301Y-16593055D01*
X6965301Y-16593055D02*
X6946253Y-16612103D01*
X6946253Y-16612103D02*
X6927206Y-16621627D01*
X7136729Y-16764484D02*
X7174825Y-16764484D01*
X7174825Y-16764484D02*
X7193872Y-16754960D01*
X7193872Y-16754960D02*
X7203396Y-16745436D01*
X7203396Y-16745436D02*
X7222444Y-16716865D01*
X7222444Y-16716865D02*
X7231967Y-16678769D01*
X7231967Y-16678769D02*
X7231967Y-16602579D01*
X7231967Y-16602579D02*
X7222444Y-16583531D01*
X7222444Y-16583531D02*
X7212920Y-16574008D01*
X7212920Y-16574008D02*
X7193872Y-16564484D01*
X7193872Y-16564484D02*
X7155777Y-16564484D01*
X7155777Y-16564484D02*
X7136729Y-16574008D01*
X7136729Y-16574008D02*
X7127206Y-16583531D01*
X7127206Y-16583531D02*
X7117682Y-16602579D01*
X7117682Y-16602579D02*
X7117682Y-16650198D01*
X7117682Y-16650198D02*
X7127206Y-16669246D01*
X7127206Y-16669246D02*
X7136729Y-16678769D01*
X7136729Y-16678769D02*
X7155777Y-16688293D01*
X7155777Y-16688293D02*
X7193872Y-16688293D01*
X7193872Y-16688293D02*
X7212920Y-16678769D01*
X7212920Y-16678769D02*
X7222444Y-16669246D01*
X7222444Y-16669246D02*
X7231967Y-16650198D01*
X7298634Y-16564484D02*
X7431967Y-16564484D01*
X7431967Y-16564484D02*
X7346253Y-16764484D01*
X7498634Y-16564484D02*
X7498634Y-16602579D01*
X7574825Y-16564484D02*
X7574825Y-16602579D01*
X7870063Y-16840674D02*
X7860539Y-16831150D01*
X7860539Y-16831150D02*
X7841491Y-16802579D01*
X7841491Y-16802579D02*
X7831968Y-16783531D01*
X7831968Y-16783531D02*
X7822444Y-16754960D01*
X7822444Y-16754960D02*
X7812920Y-16707341D01*
X7812920Y-16707341D02*
X7812920Y-16669246D01*
X7812920Y-16669246D02*
X7822444Y-16621627D01*
X7822444Y-16621627D02*
X7831968Y-16593055D01*
X7831968Y-16593055D02*
X7841491Y-16574008D01*
X7841491Y-16574008D02*
X7860539Y-16545436D01*
X7860539Y-16545436D02*
X7870063Y-16535912D01*
X7927206Y-16564484D02*
X8051015Y-16564484D01*
X8051015Y-16564484D02*
X7984348Y-16640674D01*
X7984348Y-16640674D02*
X8012920Y-16640674D01*
X8012920Y-16640674D02*
X8031968Y-16650198D01*
X8031968Y-16650198D02*
X8041491Y-16659722D01*
X8041491Y-16659722D02*
X8051015Y-16678769D01*
X8051015Y-16678769D02*
X8051015Y-16726388D01*
X8051015Y-16726388D02*
X8041491Y-16745436D01*
X8041491Y-16745436D02*
X8031968Y-16754960D01*
X8031968Y-16754960D02*
X8012920Y-16764484D01*
X8012920Y-16764484D02*
X7955777Y-16764484D01*
X7955777Y-16764484D02*
X7936729Y-16754960D01*
X7936729Y-16754960D02*
X7927206Y-16745436D01*
X8127206Y-16583531D02*
X8136729Y-16574008D01*
X8136729Y-16574008D02*
X8155777Y-16564484D01*
X8155777Y-16564484D02*
X8203396Y-16564484D01*
X8203396Y-16564484D02*
X8222444Y-16574008D01*
X8222444Y-16574008D02*
X8231968Y-16583531D01*
X8231968Y-16583531D02*
X8241491Y-16602579D01*
X8241491Y-16602579D02*
X8241491Y-16621627D01*
X8241491Y-16621627D02*
X8231968Y-16650198D01*
X8231968Y-16650198D02*
X8117682Y-16764484D01*
X8117682Y-16764484D02*
X8241491Y-16764484D01*
X8479587Y-16764484D02*
X8479587Y-16564484D01*
X8565301Y-16764484D02*
X8565301Y-16659722D01*
X8565301Y-16659722D02*
X8555777Y-16640674D01*
X8555777Y-16640674D02*
X8536730Y-16631150D01*
X8536730Y-16631150D02*
X8508158Y-16631150D01*
X8508158Y-16631150D02*
X8489111Y-16640674D01*
X8489111Y-16640674D02*
X8479587Y-16650198D01*
X8689111Y-16764484D02*
X8670063Y-16754960D01*
X8670063Y-16754960D02*
X8660539Y-16745436D01*
X8660539Y-16745436D02*
X8651015Y-16726388D01*
X8651015Y-16726388D02*
X8651015Y-16669246D01*
X8651015Y-16669246D02*
X8660539Y-16650198D01*
X8660539Y-16650198D02*
X8670063Y-16640674D01*
X8670063Y-16640674D02*
X8689111Y-16631150D01*
X8689111Y-16631150D02*
X8717682Y-16631150D01*
X8717682Y-16631150D02*
X8736730Y-16640674D01*
X8736730Y-16640674D02*
X8746253Y-16650198D01*
X8746253Y-16650198D02*
X8755777Y-16669246D01*
X8755777Y-16669246D02*
X8755777Y-16726388D01*
X8755777Y-16726388D02*
X8746253Y-16745436D01*
X8746253Y-16745436D02*
X8736730Y-16754960D01*
X8736730Y-16754960D02*
X8717682Y-16764484D01*
X8717682Y-16764484D02*
X8689111Y-16764484D01*
X8870063Y-16764484D02*
X8851015Y-16754960D01*
X8851015Y-16754960D02*
X8841492Y-16735912D01*
X8841492Y-16735912D02*
X8841492Y-16564484D01*
X9022444Y-16754960D02*
X9003396Y-16764484D01*
X9003396Y-16764484D02*
X8965301Y-16764484D01*
X8965301Y-16764484D02*
X8946253Y-16754960D01*
X8946253Y-16754960D02*
X8936730Y-16735912D01*
X8936730Y-16735912D02*
X8936730Y-16659722D01*
X8936730Y-16659722D02*
X8946253Y-16640674D01*
X8946253Y-16640674D02*
X8965301Y-16631150D01*
X8965301Y-16631150D02*
X9003396Y-16631150D01*
X9003396Y-16631150D02*
X9022444Y-16640674D01*
X9022444Y-16640674D02*
X9031968Y-16659722D01*
X9031968Y-16659722D02*
X9031968Y-16678769D01*
X9031968Y-16678769D02*
X8936730Y-16697817D01*
X9108158Y-16754960D02*
X9127206Y-16764484D01*
X9127206Y-16764484D02*
X9165301Y-16764484D01*
X9165301Y-16764484D02*
X9184349Y-16754960D01*
X9184349Y-16754960D02*
X9193873Y-16735912D01*
X9193873Y-16735912D02*
X9193873Y-16726388D01*
X9193873Y-16726388D02*
X9184349Y-16707341D01*
X9184349Y-16707341D02*
X9165301Y-16697817D01*
X9165301Y-16697817D02*
X9136730Y-16697817D01*
X9136730Y-16697817D02*
X9117682Y-16688293D01*
X9117682Y-16688293D02*
X9108158Y-16669246D01*
X9108158Y-16669246D02*
X9108158Y-16659722D01*
X9108158Y-16659722D02*
X9117682Y-16640674D01*
X9117682Y-16640674D02*
X9136730Y-16631150D01*
X9136730Y-16631150D02*
X9165301Y-16631150D01*
X9165301Y-16631150D02*
X9184349Y-16640674D01*
X9260539Y-16840674D02*
X9270063Y-16831150D01*
X9270063Y-16831150D02*
X9289111Y-16802579D01*
X9289111Y-16802579D02*
X9298634Y-16783531D01*
X9298634Y-16783531D02*
X9308158Y-16754960D01*
X9308158Y-16754960D02*
X9317682Y-16707341D01*
X9317682Y-16707341D02*
X9317682Y-16669246D01*
X9317682Y-16669246D02*
X9308158Y-16621627D01*
X9308158Y-16621627D02*
X9298634Y-16593055D01*
X9298634Y-16593055D02*
X9289111Y-16574008D01*
X9289111Y-16574008D02*
X9270063Y-16545436D01*
X9270063Y-16545436D02*
X9260539Y-16535912D01*
D15*
X4286213Y-16958213D02*
X4286213Y-16915787D01*
X4243787Y-16915787D01*
X4243787Y-16958213D01*
X4286213Y-16958213D01*
D11*
X4593872Y-16828484D02*
X4612920Y-16828484D01*
X4612920Y-16828484D02*
X4631967Y-16838008D01*
X4631967Y-16838008D02*
X4641491Y-16847531D01*
X4641491Y-16847531D02*
X4651015Y-16866579D01*
X4651015Y-16866579D02*
X4660539Y-16904674D01*
X4660539Y-16904674D02*
X4660539Y-16952293D01*
X4660539Y-16952293D02*
X4651015Y-16990389D01*
X4651015Y-16990389D02*
X4641491Y-17009436D01*
X4641491Y-17009436D02*
X4631967Y-17018960D01*
X4631967Y-17018960D02*
X4612920Y-17028484D01*
X4612920Y-17028484D02*
X4593872Y-17028484D01*
X4593872Y-17028484D02*
X4574824Y-17018960D01*
X4574824Y-17018960D02*
X4565301Y-17009436D01*
X4565301Y-17009436D02*
X4555777Y-16990389D01*
X4555777Y-16990389D02*
X4546253Y-16952293D01*
X4546253Y-16952293D02*
X4546253Y-16904674D01*
X4546253Y-16904674D02*
X4555777Y-16866579D01*
X4555777Y-16866579D02*
X4565301Y-16847531D01*
X4565301Y-16847531D02*
X4574824Y-16838008D01*
X4574824Y-16838008D02*
X4593872Y-16828484D01*
X4746253Y-17009436D02*
X4755777Y-17018960D01*
X4755777Y-17018960D02*
X4746253Y-17028484D01*
X4746253Y-17028484D02*
X4736729Y-17018960D01*
X4736729Y-17018960D02*
X4746253Y-17009436D01*
X4746253Y-17009436D02*
X4746253Y-17028484D01*
X4927205Y-16828484D02*
X4889110Y-16828484D01*
X4889110Y-16828484D02*
X4870063Y-16838008D01*
X4870063Y-16838008D02*
X4860539Y-16847531D01*
X4860539Y-16847531D02*
X4841491Y-16876103D01*
X4841491Y-16876103D02*
X4831967Y-16914198D01*
X4831967Y-16914198D02*
X4831967Y-16990389D01*
X4831967Y-16990389D02*
X4841491Y-17009436D01*
X4841491Y-17009436D02*
X4851015Y-17018960D01*
X4851015Y-17018960D02*
X4870063Y-17028484D01*
X4870063Y-17028484D02*
X4908158Y-17028484D01*
X4908158Y-17028484D02*
X4927205Y-17018960D01*
X4927205Y-17018960D02*
X4936729Y-17009436D01*
X4936729Y-17009436D02*
X4946253Y-16990389D01*
X4946253Y-16990389D02*
X4946253Y-16942770D01*
X4946253Y-16942770D02*
X4936729Y-16923722D01*
X4936729Y-16923722D02*
X4927205Y-16914198D01*
X4927205Y-16914198D02*
X4908158Y-16904674D01*
X4908158Y-16904674D02*
X4870063Y-16904674D01*
X4870063Y-16904674D02*
X4851015Y-16914198D01*
X4851015Y-16914198D02*
X4841491Y-16923722D01*
X4841491Y-16923722D02*
X4831967Y-16942770D01*
X5070063Y-16828484D02*
X5089110Y-16828484D01*
X5089110Y-16828484D02*
X5108158Y-16838008D01*
X5108158Y-16838008D02*
X5117682Y-16847531D01*
X5117682Y-16847531D02*
X5127205Y-16866579D01*
X5127205Y-16866579D02*
X5136729Y-16904674D01*
X5136729Y-16904674D02*
X5136729Y-16952293D01*
X5136729Y-16952293D02*
X5127205Y-16990389D01*
X5127205Y-16990389D02*
X5117682Y-17009436D01*
X5117682Y-17009436D02*
X5108158Y-17018960D01*
X5108158Y-17018960D02*
X5089110Y-17028484D01*
X5089110Y-17028484D02*
X5070063Y-17028484D01*
X5070063Y-17028484D02*
X5051015Y-17018960D01*
X5051015Y-17018960D02*
X5041491Y-17009436D01*
X5041491Y-17009436D02*
X5031967Y-16990389D01*
X5031967Y-16990389D02*
X5022444Y-16952293D01*
X5022444Y-16952293D02*
X5022444Y-16904674D01*
X5022444Y-16904674D02*
X5031967Y-16866579D01*
X5031967Y-16866579D02*
X5041491Y-16847531D01*
X5041491Y-16847531D02*
X5051015Y-16838008D01*
X5051015Y-16838008D02*
X5070063Y-16828484D01*
X5260539Y-16828484D02*
X5279586Y-16828484D01*
X5279586Y-16828484D02*
X5298634Y-16838008D01*
X5298634Y-16838008D02*
X5308158Y-16847531D01*
X5308158Y-16847531D02*
X5317682Y-16866579D01*
X5317682Y-16866579D02*
X5327205Y-16904674D01*
X5327205Y-16904674D02*
X5327205Y-16952293D01*
X5327205Y-16952293D02*
X5317682Y-16990389D01*
X5317682Y-16990389D02*
X5308158Y-17009436D01*
X5308158Y-17009436D02*
X5298634Y-17018960D01*
X5298634Y-17018960D02*
X5279586Y-17028484D01*
X5279586Y-17028484D02*
X5260539Y-17028484D01*
X5260539Y-17028484D02*
X5241491Y-17018960D01*
X5241491Y-17018960D02*
X5231967Y-17009436D01*
X5231967Y-17009436D02*
X5222444Y-16990389D01*
X5222444Y-16990389D02*
X5212920Y-16952293D01*
X5212920Y-16952293D02*
X5212920Y-16904674D01*
X5212920Y-16904674D02*
X5222444Y-16866579D01*
X5222444Y-16866579D02*
X5231967Y-16847531D01*
X5231967Y-16847531D02*
X5241491Y-16838008D01*
X5241491Y-16838008D02*
X5260539Y-16828484D01*
X5412920Y-17028484D02*
X5412920Y-16895150D01*
X5412920Y-16914198D02*
X5422444Y-16904674D01*
X5422444Y-16904674D02*
X5441491Y-16895150D01*
X5441491Y-16895150D02*
X5470063Y-16895150D01*
X5470063Y-16895150D02*
X5489110Y-16904674D01*
X5489110Y-16904674D02*
X5498634Y-16923722D01*
X5498634Y-16923722D02*
X5498634Y-17028484D01*
X5498634Y-16923722D02*
X5508158Y-16904674D01*
X5508158Y-16904674D02*
X5527205Y-16895150D01*
X5527205Y-16895150D02*
X5555777Y-16895150D01*
X5555777Y-16895150D02*
X5574825Y-16904674D01*
X5574825Y-16904674D02*
X5584348Y-16923722D01*
X5584348Y-16923722D02*
X5584348Y-17028484D01*
X5679586Y-17028484D02*
X5679586Y-16895150D01*
X5679586Y-16914198D02*
X5689110Y-16904674D01*
X5689110Y-16904674D02*
X5708158Y-16895150D01*
X5708158Y-16895150D02*
X5736729Y-16895150D01*
X5736729Y-16895150D02*
X5755777Y-16904674D01*
X5755777Y-16904674D02*
X5765301Y-16923722D01*
X5765301Y-16923722D02*
X5765301Y-17028484D01*
X5765301Y-16923722D02*
X5774824Y-16904674D01*
X5774824Y-16904674D02*
X5793872Y-16895150D01*
X5793872Y-16895150D02*
X5822443Y-16895150D01*
X5822443Y-16895150D02*
X5841491Y-16904674D01*
X5841491Y-16904674D02*
X5851015Y-16923722D01*
X5851015Y-16923722D02*
X5851015Y-17028484D01*
X6241491Y-16818960D02*
X6070063Y-17076103D01*
X6498634Y-16828484D02*
X6517682Y-16828484D01*
X6517682Y-16828484D02*
X6536729Y-16838008D01*
X6536729Y-16838008D02*
X6546253Y-16847531D01*
X6546253Y-16847531D02*
X6555777Y-16866579D01*
X6555777Y-16866579D02*
X6565301Y-16904674D01*
X6565301Y-16904674D02*
X6565301Y-16952293D01*
X6565301Y-16952293D02*
X6555777Y-16990389D01*
X6555777Y-16990389D02*
X6546253Y-17009436D01*
X6546253Y-17009436D02*
X6536729Y-17018960D01*
X6536729Y-17018960D02*
X6517682Y-17028484D01*
X6517682Y-17028484D02*
X6498634Y-17028484D01*
X6498634Y-17028484D02*
X6479586Y-17018960D01*
X6479586Y-17018960D02*
X6470063Y-17009436D01*
X6470063Y-17009436D02*
X6460539Y-16990389D01*
X6460539Y-16990389D02*
X6451015Y-16952293D01*
X6451015Y-16952293D02*
X6451015Y-16904674D01*
X6451015Y-16904674D02*
X6460539Y-16866579D01*
X6460539Y-16866579D02*
X6470063Y-16847531D01*
X6470063Y-16847531D02*
X6479586Y-16838008D01*
X6479586Y-16838008D02*
X6498634Y-16828484D01*
X6651015Y-17009436D02*
X6660539Y-17018960D01*
X6660539Y-17018960D02*
X6651015Y-17028484D01*
X6651015Y-17028484D02*
X6641491Y-17018960D01*
X6641491Y-17018960D02*
X6651015Y-17009436D01*
X6651015Y-17009436D02*
X6651015Y-17028484D01*
X6784348Y-16828484D02*
X6803396Y-16828484D01*
X6803396Y-16828484D02*
X6822444Y-16838008D01*
X6822444Y-16838008D02*
X6831967Y-16847531D01*
X6831967Y-16847531D02*
X6841491Y-16866579D01*
X6841491Y-16866579D02*
X6851015Y-16904674D01*
X6851015Y-16904674D02*
X6851015Y-16952293D01*
X6851015Y-16952293D02*
X6841491Y-16990389D01*
X6841491Y-16990389D02*
X6831967Y-17009436D01*
X6831967Y-17009436D02*
X6822444Y-17018960D01*
X6822444Y-17018960D02*
X6803396Y-17028484D01*
X6803396Y-17028484D02*
X6784348Y-17028484D01*
X6784348Y-17028484D02*
X6765301Y-17018960D01*
X6765301Y-17018960D02*
X6755777Y-17009436D01*
X6755777Y-17009436D02*
X6746253Y-16990389D01*
X6746253Y-16990389D02*
X6736729Y-16952293D01*
X6736729Y-16952293D02*
X6736729Y-16904674D01*
X6736729Y-16904674D02*
X6746253Y-16866579D01*
X6746253Y-16866579D02*
X6755777Y-16847531D01*
X6755777Y-16847531D02*
X6765301Y-16838008D01*
X6765301Y-16838008D02*
X6784348Y-16828484D01*
X6927206Y-16847531D02*
X6936729Y-16838008D01*
X6936729Y-16838008D02*
X6955777Y-16828484D01*
X6955777Y-16828484D02*
X7003396Y-16828484D01*
X7003396Y-16828484D02*
X7022444Y-16838008D01*
X7022444Y-16838008D02*
X7031967Y-16847531D01*
X7031967Y-16847531D02*
X7041491Y-16866579D01*
X7041491Y-16866579D02*
X7041491Y-16885627D01*
X7041491Y-16885627D02*
X7031967Y-16914198D01*
X7031967Y-16914198D02*
X6917682Y-17028484D01*
X6917682Y-17028484D02*
X7041491Y-17028484D01*
X7108158Y-16828484D02*
X7231967Y-16828484D01*
X7231967Y-16828484D02*
X7165301Y-16904674D01*
X7165301Y-16904674D02*
X7193872Y-16904674D01*
X7193872Y-16904674D02*
X7212920Y-16914198D01*
X7212920Y-16914198D02*
X7222444Y-16923722D01*
X7222444Y-16923722D02*
X7231967Y-16942770D01*
X7231967Y-16942770D02*
X7231967Y-16990389D01*
X7231967Y-16990389D02*
X7222444Y-17009436D01*
X7222444Y-17009436D02*
X7212920Y-17018960D01*
X7212920Y-17018960D02*
X7193872Y-17028484D01*
X7193872Y-17028484D02*
X7136729Y-17028484D01*
X7136729Y-17028484D02*
X7117682Y-17018960D01*
X7117682Y-17018960D02*
X7108158Y-17009436D01*
X7403396Y-16828484D02*
X7365301Y-16828484D01*
X7365301Y-16828484D02*
X7346253Y-16838008D01*
X7346253Y-16838008D02*
X7336729Y-16847531D01*
X7336729Y-16847531D02*
X7317682Y-16876103D01*
X7317682Y-16876103D02*
X7308158Y-16914198D01*
X7308158Y-16914198D02*
X7308158Y-16990389D01*
X7308158Y-16990389D02*
X7317682Y-17009436D01*
X7317682Y-17009436D02*
X7327206Y-17018960D01*
X7327206Y-17018960D02*
X7346253Y-17028484D01*
X7346253Y-17028484D02*
X7384348Y-17028484D01*
X7384348Y-17028484D02*
X7403396Y-17018960D01*
X7403396Y-17018960D02*
X7412920Y-17009436D01*
X7412920Y-17009436D02*
X7422444Y-16990389D01*
X7422444Y-16990389D02*
X7422444Y-16942770D01*
X7422444Y-16942770D02*
X7412920Y-16923722D01*
X7412920Y-16923722D02*
X7403396Y-16914198D01*
X7403396Y-16914198D02*
X7384348Y-16904674D01*
X7384348Y-16904674D02*
X7346253Y-16904674D01*
X7346253Y-16904674D02*
X7327206Y-16914198D01*
X7327206Y-16914198D02*
X7317682Y-16923722D01*
X7317682Y-16923722D02*
X7308158Y-16942770D01*
X7498634Y-16828484D02*
X7498634Y-16866579D01*
X7574825Y-16828484D02*
X7574825Y-16866579D01*
X7870063Y-17104674D02*
X7860539Y-17095150D01*
X7860539Y-17095150D02*
X7841491Y-17066579D01*
X7841491Y-17066579D02*
X7831968Y-17047531D01*
X7831968Y-17047531D02*
X7822444Y-17018960D01*
X7822444Y-17018960D02*
X7812920Y-16971341D01*
X7812920Y-16971341D02*
X7812920Y-16933246D01*
X7812920Y-16933246D02*
X7822444Y-16885627D01*
X7822444Y-16885627D02*
X7831968Y-16857055D01*
X7831968Y-16857055D02*
X7841491Y-16838008D01*
X7841491Y-16838008D02*
X7860539Y-16809436D01*
X7860539Y-16809436D02*
X7870063Y-16799912D01*
X7984348Y-16828484D02*
X8003396Y-16828484D01*
X8003396Y-16828484D02*
X8022444Y-16838008D01*
X8022444Y-16838008D02*
X8031968Y-16847531D01*
X8031968Y-16847531D02*
X8041491Y-16866579D01*
X8041491Y-16866579D02*
X8051015Y-16904674D01*
X8051015Y-16904674D02*
X8051015Y-16952293D01*
X8051015Y-16952293D02*
X8041491Y-16990389D01*
X8041491Y-16990389D02*
X8031968Y-17009436D01*
X8031968Y-17009436D02*
X8022444Y-17018960D01*
X8022444Y-17018960D02*
X8003396Y-17028484D01*
X8003396Y-17028484D02*
X7984348Y-17028484D01*
X7984348Y-17028484D02*
X7965301Y-17018960D01*
X7965301Y-17018960D02*
X7955777Y-17009436D01*
X7955777Y-17009436D02*
X7946253Y-16990389D01*
X7946253Y-16990389D02*
X7936729Y-16952293D01*
X7936729Y-16952293D02*
X7936729Y-16904674D01*
X7936729Y-16904674D02*
X7946253Y-16866579D01*
X7946253Y-16866579D02*
X7955777Y-16847531D01*
X7955777Y-16847531D02*
X7965301Y-16838008D01*
X7965301Y-16838008D02*
X7984348Y-16828484D01*
X8289110Y-17028484D02*
X8289110Y-16828484D01*
X8374825Y-17028484D02*
X8374825Y-16923722D01*
X8374825Y-16923722D02*
X8365301Y-16904674D01*
X8365301Y-16904674D02*
X8346253Y-16895150D01*
X8346253Y-16895150D02*
X8317682Y-16895150D01*
X8317682Y-16895150D02*
X8298634Y-16904674D01*
X8298634Y-16904674D02*
X8289110Y-16914198D01*
X8498634Y-17028484D02*
X8479587Y-17018960D01*
X8479587Y-17018960D02*
X8470063Y-17009436D01*
X8470063Y-17009436D02*
X8460539Y-16990389D01*
X8460539Y-16990389D02*
X8460539Y-16933246D01*
X8460539Y-16933246D02*
X8470063Y-16914198D01*
X8470063Y-16914198D02*
X8479587Y-16904674D01*
X8479587Y-16904674D02*
X8498634Y-16895150D01*
X8498634Y-16895150D02*
X8527206Y-16895150D01*
X8527206Y-16895150D02*
X8546253Y-16904674D01*
X8546253Y-16904674D02*
X8555777Y-16914198D01*
X8555777Y-16914198D02*
X8565301Y-16933246D01*
X8565301Y-16933246D02*
X8565301Y-16990389D01*
X8565301Y-16990389D02*
X8555777Y-17009436D01*
X8555777Y-17009436D02*
X8546253Y-17018960D01*
X8546253Y-17018960D02*
X8527206Y-17028484D01*
X8527206Y-17028484D02*
X8498634Y-17028484D01*
X8679587Y-17028484D02*
X8660539Y-17018960D01*
X8660539Y-17018960D02*
X8651015Y-16999912D01*
X8651015Y-16999912D02*
X8651015Y-16828484D01*
X8831968Y-17018960D02*
X8812920Y-17028484D01*
X8812920Y-17028484D02*
X8774825Y-17028484D01*
X8774825Y-17028484D02*
X8755777Y-17018960D01*
X8755777Y-17018960D02*
X8746253Y-16999912D01*
X8746253Y-16999912D02*
X8746253Y-16923722D01*
X8746253Y-16923722D02*
X8755777Y-16904674D01*
X8755777Y-16904674D02*
X8774825Y-16895150D01*
X8774825Y-16895150D02*
X8812920Y-16895150D01*
X8812920Y-16895150D02*
X8831968Y-16904674D01*
X8831968Y-16904674D02*
X8841492Y-16923722D01*
X8841492Y-16923722D02*
X8841492Y-16942770D01*
X8841492Y-16942770D02*
X8746253Y-16961817D01*
X8917682Y-17018960D02*
X8936730Y-17028484D01*
X8936730Y-17028484D02*
X8974825Y-17028484D01*
X8974825Y-17028484D02*
X8993873Y-17018960D01*
X8993873Y-17018960D02*
X9003396Y-16999912D01*
X9003396Y-16999912D02*
X9003396Y-16990389D01*
X9003396Y-16990389D02*
X8993873Y-16971341D01*
X8993873Y-16971341D02*
X8974825Y-16961817D01*
X8974825Y-16961817D02*
X8946253Y-16961817D01*
X8946253Y-16961817D02*
X8927206Y-16952293D01*
X8927206Y-16952293D02*
X8917682Y-16933246D01*
X8917682Y-16933246D02*
X8917682Y-16923722D01*
X8917682Y-16923722D02*
X8927206Y-16904674D01*
X8927206Y-16904674D02*
X8946253Y-16895150D01*
X8946253Y-16895150D02*
X8974825Y-16895150D01*
X8974825Y-16895150D02*
X8993873Y-16904674D01*
X9241492Y-16952293D02*
X9393873Y-16952293D01*
X9317682Y-17028484D02*
X9317682Y-16876103D01*
X9670063Y-16914198D02*
X9651015Y-16904674D01*
X9651015Y-16904674D02*
X9641492Y-16895150D01*
X9641492Y-16895150D02*
X9631968Y-16876103D01*
X9631968Y-16876103D02*
X9631968Y-16866579D01*
X9631968Y-16866579D02*
X9641492Y-16847531D01*
X9641492Y-16847531D02*
X9651015Y-16838008D01*
X9651015Y-16838008D02*
X9670063Y-16828484D01*
X9670063Y-16828484D02*
X9708158Y-16828484D01*
X9708158Y-16828484D02*
X9727206Y-16838008D01*
X9727206Y-16838008D02*
X9736730Y-16847531D01*
X9736730Y-16847531D02*
X9746254Y-16866579D01*
X9746254Y-16866579D02*
X9746254Y-16876103D01*
X9746254Y-16876103D02*
X9736730Y-16895150D01*
X9736730Y-16895150D02*
X9727206Y-16904674D01*
X9727206Y-16904674D02*
X9708158Y-16914198D01*
X9708158Y-16914198D02*
X9670063Y-16914198D01*
X9670063Y-16914198D02*
X9651015Y-16923722D01*
X9651015Y-16923722D02*
X9641492Y-16933246D01*
X9641492Y-16933246D02*
X9631968Y-16952293D01*
X9631968Y-16952293D02*
X9631968Y-16990389D01*
X9631968Y-16990389D02*
X9641492Y-17009436D01*
X9641492Y-17009436D02*
X9651015Y-17018960D01*
X9651015Y-17018960D02*
X9670063Y-17028484D01*
X9670063Y-17028484D02*
X9708158Y-17028484D01*
X9708158Y-17028484D02*
X9727206Y-17018960D01*
X9727206Y-17018960D02*
X9736730Y-17009436D01*
X9736730Y-17009436D02*
X9746254Y-16990389D01*
X9746254Y-16990389D02*
X9746254Y-16952293D01*
X9746254Y-16952293D02*
X9736730Y-16933246D01*
X9736730Y-16933246D02*
X9727206Y-16923722D01*
X9727206Y-16923722D02*
X9708158Y-16914198D01*
X9974825Y-17018960D02*
X9993873Y-17028484D01*
X9993873Y-17028484D02*
X10031968Y-17028484D01*
X10031968Y-17028484D02*
X10051016Y-17018960D01*
X10051016Y-17018960D02*
X10060539Y-16999912D01*
X10060539Y-16999912D02*
X10060539Y-16990389D01*
X10060539Y-16990389D02*
X10051016Y-16971341D01*
X10051016Y-16971341D02*
X10031968Y-16961817D01*
X10031968Y-16961817D02*
X10003396Y-16961817D01*
X10003396Y-16961817D02*
X9984349Y-16952293D01*
X9984349Y-16952293D02*
X9974825Y-16933246D01*
X9974825Y-16933246D02*
X9974825Y-16923722D01*
X9974825Y-16923722D02*
X9984349Y-16904674D01*
X9984349Y-16904674D02*
X10003396Y-16895150D01*
X10003396Y-16895150D02*
X10031968Y-16895150D01*
X10031968Y-16895150D02*
X10051016Y-16904674D01*
X10174825Y-17028484D02*
X10155777Y-17018960D01*
X10155777Y-17018960D02*
X10146254Y-16999912D01*
X10146254Y-16999912D02*
X10146254Y-16828484D01*
X10279587Y-17028484D02*
X10260539Y-17018960D01*
X10260539Y-17018960D02*
X10251016Y-17009436D01*
X10251016Y-17009436D02*
X10241492Y-16990389D01*
X10241492Y-16990389D02*
X10241492Y-16933246D01*
X10241492Y-16933246D02*
X10251016Y-16914198D01*
X10251016Y-16914198D02*
X10260539Y-16904674D01*
X10260539Y-16904674D02*
X10279587Y-16895150D01*
X10279587Y-16895150D02*
X10308158Y-16895150D01*
X10308158Y-16895150D02*
X10327206Y-16904674D01*
X10327206Y-16904674D02*
X10336730Y-16914198D01*
X10336730Y-16914198D02*
X10346254Y-16933246D01*
X10346254Y-16933246D02*
X10346254Y-16990389D01*
X10346254Y-16990389D02*
X10336730Y-17009436D01*
X10336730Y-17009436D02*
X10327206Y-17018960D01*
X10327206Y-17018960D02*
X10308158Y-17028484D01*
X10308158Y-17028484D02*
X10279587Y-17028484D01*
X10403397Y-16895150D02*
X10479587Y-16895150D01*
X10431968Y-16828484D02*
X10431968Y-16999912D01*
X10431968Y-16999912D02*
X10441492Y-17018960D01*
X10441492Y-17018960D02*
X10460539Y-17028484D01*
X10460539Y-17028484D02*
X10479587Y-17028484D01*
X10536730Y-17018960D02*
X10555777Y-17028484D01*
X10555777Y-17028484D02*
X10593873Y-17028484D01*
X10593873Y-17028484D02*
X10612920Y-17018960D01*
X10612920Y-17018960D02*
X10622444Y-16999912D01*
X10622444Y-16999912D02*
X10622444Y-16990389D01*
X10622444Y-16990389D02*
X10612920Y-16971341D01*
X10612920Y-16971341D02*
X10593873Y-16961817D01*
X10593873Y-16961817D02*
X10565301Y-16961817D01*
X10565301Y-16961817D02*
X10546254Y-16952293D01*
X10546254Y-16952293D02*
X10536730Y-16933246D01*
X10536730Y-16933246D02*
X10536730Y-16923722D01*
X10536730Y-16923722D02*
X10546254Y-16904674D01*
X10546254Y-16904674D02*
X10565301Y-16895150D01*
X10565301Y-16895150D02*
X10593873Y-16895150D01*
X10593873Y-16895150D02*
X10612920Y-16904674D01*
X10689111Y-17104674D02*
X10698635Y-17095150D01*
X10698635Y-17095150D02*
X10717682Y-17066579D01*
X10717682Y-17066579D02*
X10727206Y-17047531D01*
X10727206Y-17047531D02*
X10736730Y-17018960D01*
X10736730Y-17018960D02*
X10746254Y-16971341D01*
X10746254Y-16971341D02*
X10746254Y-16933246D01*
X10746254Y-16933246D02*
X10736730Y-16885627D01*
X10736730Y-16885627D02*
X10727206Y-16857055D01*
X10727206Y-16857055D02*
X10717682Y-16838008D01*
X10717682Y-16838008D02*
X10698635Y-16809436D01*
X10698635Y-16809436D02*
X10689111Y-16799912D01*
D10*
X4245000Y-17251000D02*
X4295000Y-17201000D01*
X4245000Y-17151000D01*
X4195000Y-17201000D01*
X4245000Y-17251000D01*
D11*
X4660539Y-17292484D02*
X4546253Y-17292484D01*
X4603396Y-17292484D02*
X4603396Y-17092484D01*
X4603396Y-17092484D02*
X4584348Y-17121055D01*
X4584348Y-17121055D02*
X4565301Y-17140103D01*
X4565301Y-17140103D02*
X4546253Y-17149627D01*
X4746253Y-17273436D02*
X4755777Y-17282960D01*
X4755777Y-17282960D02*
X4746253Y-17292484D01*
X4746253Y-17292484D02*
X4736729Y-17282960D01*
X4736729Y-17282960D02*
X4746253Y-17273436D01*
X4746253Y-17273436D02*
X4746253Y-17292484D01*
X4879586Y-17092484D02*
X4898634Y-17092484D01*
X4898634Y-17092484D02*
X4917682Y-17102008D01*
X4917682Y-17102008D02*
X4927205Y-17111531D01*
X4927205Y-17111531D02*
X4936729Y-17130579D01*
X4936729Y-17130579D02*
X4946253Y-17168674D01*
X4946253Y-17168674D02*
X4946253Y-17216293D01*
X4946253Y-17216293D02*
X4936729Y-17254389D01*
X4936729Y-17254389D02*
X4927205Y-17273436D01*
X4927205Y-17273436D02*
X4917682Y-17282960D01*
X4917682Y-17282960D02*
X4898634Y-17292484D01*
X4898634Y-17292484D02*
X4879586Y-17292484D01*
X4879586Y-17292484D02*
X4860539Y-17282960D01*
X4860539Y-17282960D02*
X4851015Y-17273436D01*
X4851015Y-17273436D02*
X4841491Y-17254389D01*
X4841491Y-17254389D02*
X4831967Y-17216293D01*
X4831967Y-17216293D02*
X4831967Y-17168674D01*
X4831967Y-17168674D02*
X4841491Y-17130579D01*
X4841491Y-17130579D02*
X4851015Y-17111531D01*
X4851015Y-17111531D02*
X4860539Y-17102008D01*
X4860539Y-17102008D02*
X4879586Y-17092484D01*
X5070063Y-17092484D02*
X5089110Y-17092484D01*
X5089110Y-17092484D02*
X5108158Y-17102008D01*
X5108158Y-17102008D02*
X5117682Y-17111531D01*
X5117682Y-17111531D02*
X5127205Y-17130579D01*
X5127205Y-17130579D02*
X5136729Y-17168674D01*
X5136729Y-17168674D02*
X5136729Y-17216293D01*
X5136729Y-17216293D02*
X5127205Y-17254389D01*
X5127205Y-17254389D02*
X5117682Y-17273436D01*
X5117682Y-17273436D02*
X5108158Y-17282960D01*
X5108158Y-17282960D02*
X5089110Y-17292484D01*
X5089110Y-17292484D02*
X5070063Y-17292484D01*
X5070063Y-17292484D02*
X5051015Y-17282960D01*
X5051015Y-17282960D02*
X5041491Y-17273436D01*
X5041491Y-17273436D02*
X5031967Y-17254389D01*
X5031967Y-17254389D02*
X5022444Y-17216293D01*
X5022444Y-17216293D02*
X5022444Y-17168674D01*
X5022444Y-17168674D02*
X5031967Y-17130579D01*
X5031967Y-17130579D02*
X5041491Y-17111531D01*
X5041491Y-17111531D02*
X5051015Y-17102008D01*
X5051015Y-17102008D02*
X5070063Y-17092484D01*
X5260539Y-17092484D02*
X5279586Y-17092484D01*
X5279586Y-17092484D02*
X5298634Y-17102008D01*
X5298634Y-17102008D02*
X5308158Y-17111531D01*
X5308158Y-17111531D02*
X5317682Y-17130579D01*
X5317682Y-17130579D02*
X5327205Y-17168674D01*
X5327205Y-17168674D02*
X5327205Y-17216293D01*
X5327205Y-17216293D02*
X5317682Y-17254389D01*
X5317682Y-17254389D02*
X5308158Y-17273436D01*
X5308158Y-17273436D02*
X5298634Y-17282960D01*
X5298634Y-17282960D02*
X5279586Y-17292484D01*
X5279586Y-17292484D02*
X5260539Y-17292484D01*
X5260539Y-17292484D02*
X5241491Y-17282960D01*
X5241491Y-17282960D02*
X5231967Y-17273436D01*
X5231967Y-17273436D02*
X5222444Y-17254389D01*
X5222444Y-17254389D02*
X5212920Y-17216293D01*
X5212920Y-17216293D02*
X5212920Y-17168674D01*
X5212920Y-17168674D02*
X5222444Y-17130579D01*
X5222444Y-17130579D02*
X5231967Y-17111531D01*
X5231967Y-17111531D02*
X5241491Y-17102008D01*
X5241491Y-17102008D02*
X5260539Y-17092484D01*
X5412920Y-17292484D02*
X5412920Y-17159150D01*
X5412920Y-17178198D02*
X5422444Y-17168674D01*
X5422444Y-17168674D02*
X5441491Y-17159150D01*
X5441491Y-17159150D02*
X5470063Y-17159150D01*
X5470063Y-17159150D02*
X5489110Y-17168674D01*
X5489110Y-17168674D02*
X5498634Y-17187722D01*
X5498634Y-17187722D02*
X5498634Y-17292484D01*
X5498634Y-17187722D02*
X5508158Y-17168674D01*
X5508158Y-17168674D02*
X5527205Y-17159150D01*
X5527205Y-17159150D02*
X5555777Y-17159150D01*
X5555777Y-17159150D02*
X5574825Y-17168674D01*
X5574825Y-17168674D02*
X5584348Y-17187722D01*
X5584348Y-17187722D02*
X5584348Y-17292484D01*
X5679586Y-17292484D02*
X5679586Y-17159150D01*
X5679586Y-17178198D02*
X5689110Y-17168674D01*
X5689110Y-17168674D02*
X5708158Y-17159150D01*
X5708158Y-17159150D02*
X5736729Y-17159150D01*
X5736729Y-17159150D02*
X5755777Y-17168674D01*
X5755777Y-17168674D02*
X5765301Y-17187722D01*
X5765301Y-17187722D02*
X5765301Y-17292484D01*
X5765301Y-17187722D02*
X5774824Y-17168674D01*
X5774824Y-17168674D02*
X5793872Y-17159150D01*
X5793872Y-17159150D02*
X5822443Y-17159150D01*
X5822443Y-17159150D02*
X5841491Y-17168674D01*
X5841491Y-17168674D02*
X5851015Y-17187722D01*
X5851015Y-17187722D02*
X5851015Y-17292484D01*
X6241491Y-17082960D02*
X6070063Y-17340103D01*
X6498634Y-17092484D02*
X6517682Y-17092484D01*
X6517682Y-17092484D02*
X6536729Y-17102008D01*
X6536729Y-17102008D02*
X6546253Y-17111531D01*
X6546253Y-17111531D02*
X6555777Y-17130579D01*
X6555777Y-17130579D02*
X6565301Y-17168674D01*
X6565301Y-17168674D02*
X6565301Y-17216293D01*
X6565301Y-17216293D02*
X6555777Y-17254389D01*
X6555777Y-17254389D02*
X6546253Y-17273436D01*
X6546253Y-17273436D02*
X6536729Y-17282960D01*
X6536729Y-17282960D02*
X6517682Y-17292484D01*
X6517682Y-17292484D02*
X6498634Y-17292484D01*
X6498634Y-17292484D02*
X6479586Y-17282960D01*
X6479586Y-17282960D02*
X6470063Y-17273436D01*
X6470063Y-17273436D02*
X6460539Y-17254389D01*
X6460539Y-17254389D02*
X6451015Y-17216293D01*
X6451015Y-17216293D02*
X6451015Y-17168674D01*
X6451015Y-17168674D02*
X6460539Y-17130579D01*
X6460539Y-17130579D02*
X6470063Y-17111531D01*
X6470063Y-17111531D02*
X6479586Y-17102008D01*
X6479586Y-17102008D02*
X6498634Y-17092484D01*
X6651015Y-17273436D02*
X6660539Y-17282960D01*
X6660539Y-17282960D02*
X6651015Y-17292484D01*
X6651015Y-17292484D02*
X6641491Y-17282960D01*
X6641491Y-17282960D02*
X6651015Y-17273436D01*
X6651015Y-17273436D02*
X6651015Y-17292484D01*
X6784348Y-17092484D02*
X6803396Y-17092484D01*
X6803396Y-17092484D02*
X6822444Y-17102008D01*
X6822444Y-17102008D02*
X6831967Y-17111531D01*
X6831967Y-17111531D02*
X6841491Y-17130579D01*
X6841491Y-17130579D02*
X6851015Y-17168674D01*
X6851015Y-17168674D02*
X6851015Y-17216293D01*
X6851015Y-17216293D02*
X6841491Y-17254389D01*
X6841491Y-17254389D02*
X6831967Y-17273436D01*
X6831967Y-17273436D02*
X6822444Y-17282960D01*
X6822444Y-17282960D02*
X6803396Y-17292484D01*
X6803396Y-17292484D02*
X6784348Y-17292484D01*
X6784348Y-17292484D02*
X6765301Y-17282960D01*
X6765301Y-17282960D02*
X6755777Y-17273436D01*
X6755777Y-17273436D02*
X6746253Y-17254389D01*
X6746253Y-17254389D02*
X6736729Y-17216293D01*
X6736729Y-17216293D02*
X6736729Y-17168674D01*
X6736729Y-17168674D02*
X6746253Y-17130579D01*
X6746253Y-17130579D02*
X6755777Y-17111531D01*
X6755777Y-17111531D02*
X6765301Y-17102008D01*
X6765301Y-17102008D02*
X6784348Y-17092484D01*
X6917682Y-17092484D02*
X7041491Y-17092484D01*
X7041491Y-17092484D02*
X6974825Y-17168674D01*
X6974825Y-17168674D02*
X7003396Y-17168674D01*
X7003396Y-17168674D02*
X7022444Y-17178198D01*
X7022444Y-17178198D02*
X7031967Y-17187722D01*
X7031967Y-17187722D02*
X7041491Y-17206770D01*
X7041491Y-17206770D02*
X7041491Y-17254389D01*
X7041491Y-17254389D02*
X7031967Y-17273436D01*
X7031967Y-17273436D02*
X7022444Y-17282960D01*
X7022444Y-17282960D02*
X7003396Y-17292484D01*
X7003396Y-17292484D02*
X6946253Y-17292484D01*
X6946253Y-17292484D02*
X6927206Y-17282960D01*
X6927206Y-17282960D02*
X6917682Y-17273436D01*
X7136729Y-17292484D02*
X7174825Y-17292484D01*
X7174825Y-17292484D02*
X7193872Y-17282960D01*
X7193872Y-17282960D02*
X7203396Y-17273436D01*
X7203396Y-17273436D02*
X7222444Y-17244865D01*
X7222444Y-17244865D02*
X7231967Y-17206770D01*
X7231967Y-17206770D02*
X7231967Y-17130579D01*
X7231967Y-17130579D02*
X7222444Y-17111531D01*
X7222444Y-17111531D02*
X7212920Y-17102008D01*
X7212920Y-17102008D02*
X7193872Y-17092484D01*
X7193872Y-17092484D02*
X7155777Y-17092484D01*
X7155777Y-17092484D02*
X7136729Y-17102008D01*
X7136729Y-17102008D02*
X7127206Y-17111531D01*
X7127206Y-17111531D02*
X7117682Y-17130579D01*
X7117682Y-17130579D02*
X7117682Y-17178198D01*
X7117682Y-17178198D02*
X7127206Y-17197246D01*
X7127206Y-17197246D02*
X7136729Y-17206770D01*
X7136729Y-17206770D02*
X7155777Y-17216293D01*
X7155777Y-17216293D02*
X7193872Y-17216293D01*
X7193872Y-17216293D02*
X7212920Y-17206770D01*
X7212920Y-17206770D02*
X7222444Y-17197246D01*
X7222444Y-17197246D02*
X7231967Y-17178198D01*
X7403396Y-17159150D02*
X7403396Y-17292484D01*
X7355777Y-17082960D02*
X7308158Y-17225817D01*
X7308158Y-17225817D02*
X7431967Y-17225817D01*
X7498634Y-17092484D02*
X7498634Y-17130579D01*
X7574825Y-17092484D02*
X7574825Y-17130579D01*
X7870063Y-17368674D02*
X7860539Y-17359150D01*
X7860539Y-17359150D02*
X7841491Y-17330579D01*
X7841491Y-17330579D02*
X7831968Y-17311531D01*
X7831968Y-17311531D02*
X7822444Y-17282960D01*
X7822444Y-17282960D02*
X7812920Y-17235341D01*
X7812920Y-17235341D02*
X7812920Y-17197246D01*
X7812920Y-17197246D02*
X7822444Y-17149627D01*
X7822444Y-17149627D02*
X7831968Y-17121055D01*
X7831968Y-17121055D02*
X7841491Y-17102008D01*
X7841491Y-17102008D02*
X7860539Y-17073436D01*
X7860539Y-17073436D02*
X7870063Y-17063912D01*
X8041491Y-17092484D02*
X7946253Y-17092484D01*
X7946253Y-17092484D02*
X7936729Y-17187722D01*
X7936729Y-17187722D02*
X7946253Y-17178198D01*
X7946253Y-17178198D02*
X7965301Y-17168674D01*
X7965301Y-17168674D02*
X8012920Y-17168674D01*
X8012920Y-17168674D02*
X8031968Y-17178198D01*
X8031968Y-17178198D02*
X8041491Y-17187722D01*
X8041491Y-17187722D02*
X8051015Y-17206770D01*
X8051015Y-17206770D02*
X8051015Y-17254389D01*
X8051015Y-17254389D02*
X8041491Y-17273436D01*
X8041491Y-17273436D02*
X8031968Y-17282960D01*
X8031968Y-17282960D02*
X8012920Y-17292484D01*
X8012920Y-17292484D02*
X7965301Y-17292484D01*
X7965301Y-17292484D02*
X7946253Y-17282960D01*
X7946253Y-17282960D02*
X7936729Y-17273436D01*
X8117682Y-17092484D02*
X8251015Y-17092484D01*
X8251015Y-17092484D02*
X8165301Y-17292484D01*
X8479587Y-17292484D02*
X8479587Y-17092484D01*
X8565301Y-17292484D02*
X8565301Y-17187722D01*
X8565301Y-17187722D02*
X8555777Y-17168674D01*
X8555777Y-17168674D02*
X8536730Y-17159150D01*
X8536730Y-17159150D02*
X8508158Y-17159150D01*
X8508158Y-17159150D02*
X8489111Y-17168674D01*
X8489111Y-17168674D02*
X8479587Y-17178198D01*
X8689111Y-17292484D02*
X8670063Y-17282960D01*
X8670063Y-17282960D02*
X8660539Y-17273436D01*
X8660539Y-17273436D02*
X8651015Y-17254389D01*
X8651015Y-17254389D02*
X8651015Y-17197246D01*
X8651015Y-17197246D02*
X8660539Y-17178198D01*
X8660539Y-17178198D02*
X8670063Y-17168674D01*
X8670063Y-17168674D02*
X8689111Y-17159150D01*
X8689111Y-17159150D02*
X8717682Y-17159150D01*
X8717682Y-17159150D02*
X8736730Y-17168674D01*
X8736730Y-17168674D02*
X8746253Y-17178198D01*
X8746253Y-17178198D02*
X8755777Y-17197246D01*
X8755777Y-17197246D02*
X8755777Y-17254389D01*
X8755777Y-17254389D02*
X8746253Y-17273436D01*
X8746253Y-17273436D02*
X8736730Y-17282960D01*
X8736730Y-17282960D02*
X8717682Y-17292484D01*
X8717682Y-17292484D02*
X8689111Y-17292484D01*
X8870063Y-17292484D02*
X8851015Y-17282960D01*
X8851015Y-17282960D02*
X8841492Y-17263912D01*
X8841492Y-17263912D02*
X8841492Y-17092484D01*
X9022444Y-17282960D02*
X9003396Y-17292484D01*
X9003396Y-17292484D02*
X8965301Y-17292484D01*
X8965301Y-17292484D02*
X8946253Y-17282960D01*
X8946253Y-17282960D02*
X8936730Y-17263912D01*
X8936730Y-17263912D02*
X8936730Y-17187722D01*
X8936730Y-17187722D02*
X8946253Y-17168674D01*
X8946253Y-17168674D02*
X8965301Y-17159150D01*
X8965301Y-17159150D02*
X9003396Y-17159150D01*
X9003396Y-17159150D02*
X9022444Y-17168674D01*
X9022444Y-17168674D02*
X9031968Y-17187722D01*
X9031968Y-17187722D02*
X9031968Y-17206770D01*
X9031968Y-17206770D02*
X8936730Y-17225817D01*
X9108158Y-17282960D02*
X9127206Y-17292484D01*
X9127206Y-17292484D02*
X9165301Y-17292484D01*
X9165301Y-17292484D02*
X9184349Y-17282960D01*
X9184349Y-17282960D02*
X9193873Y-17263912D01*
X9193873Y-17263912D02*
X9193873Y-17254389D01*
X9193873Y-17254389D02*
X9184349Y-17235341D01*
X9184349Y-17235341D02*
X9165301Y-17225817D01*
X9165301Y-17225817D02*
X9136730Y-17225817D01*
X9136730Y-17225817D02*
X9117682Y-17216293D01*
X9117682Y-17216293D02*
X9108158Y-17197246D01*
X9108158Y-17197246D02*
X9108158Y-17187722D01*
X9108158Y-17187722D02*
X9117682Y-17168674D01*
X9117682Y-17168674D02*
X9136730Y-17159150D01*
X9136730Y-17159150D02*
X9165301Y-17159150D01*
X9165301Y-17159150D02*
X9184349Y-17168674D01*
X9260539Y-17368674D02*
X9270063Y-17359150D01*
X9270063Y-17359150D02*
X9289111Y-17330579D01*
X9289111Y-17330579D02*
X9298634Y-17311531D01*
X9298634Y-17311531D02*
X9308158Y-17282960D01*
X9308158Y-17282960D02*
X9317682Y-17235341D01*
X9317682Y-17235341D02*
X9317682Y-17197246D01*
X9317682Y-17197246D02*
X9308158Y-17149627D01*
X9308158Y-17149627D02*
X9298634Y-17121055D01*
X9298634Y-17121055D02*
X9289111Y-17102008D01*
X9289111Y-17102008D02*
X9270063Y-17073436D01*
X9270063Y-17073436D02*
X9260539Y-17063912D01*
X4095000Y-17365000D02*
X4295000Y-17565000D01*
X4295000Y-17365000D02*
X4095000Y-17565000D01*
X4295000Y-17465000D02*
G75*
G03*
X4295000Y-17465000I-100000J0D01*
G01*
X4546253Y-17375531D02*
X4555777Y-17366008D01*
X4555777Y-17366008D02*
X4574824Y-17356484D01*
X4574824Y-17356484D02*
X4622444Y-17356484D01*
X4622444Y-17356484D02*
X4641491Y-17366008D01*
X4641491Y-17366008D02*
X4651015Y-17375531D01*
X4651015Y-17375531D02*
X4660539Y-17394579D01*
X4660539Y-17394579D02*
X4660539Y-17413627D01*
X4660539Y-17413627D02*
X4651015Y-17442198D01*
X4651015Y-17442198D02*
X4536729Y-17556484D01*
X4536729Y-17556484D02*
X4660539Y-17556484D01*
X4746253Y-17537436D02*
X4755777Y-17546960D01*
X4755777Y-17546960D02*
X4746253Y-17556484D01*
X4746253Y-17556484D02*
X4736729Y-17546960D01*
X4736729Y-17546960D02*
X4746253Y-17537436D01*
X4746253Y-17537436D02*
X4746253Y-17556484D01*
X4822444Y-17356484D02*
X4955777Y-17356484D01*
X4955777Y-17356484D02*
X4870063Y-17556484D01*
X5070063Y-17356484D02*
X5089110Y-17356484D01*
X5089110Y-17356484D02*
X5108158Y-17366008D01*
X5108158Y-17366008D02*
X5117682Y-17375531D01*
X5117682Y-17375531D02*
X5127205Y-17394579D01*
X5127205Y-17394579D02*
X5136729Y-17432674D01*
X5136729Y-17432674D02*
X5136729Y-17480293D01*
X5136729Y-17480293D02*
X5127205Y-17518389D01*
X5127205Y-17518389D02*
X5117682Y-17537436D01*
X5117682Y-17537436D02*
X5108158Y-17546960D01*
X5108158Y-17546960D02*
X5089110Y-17556484D01*
X5089110Y-17556484D02*
X5070063Y-17556484D01*
X5070063Y-17556484D02*
X5051015Y-17546960D01*
X5051015Y-17546960D02*
X5041491Y-17537436D01*
X5041491Y-17537436D02*
X5031967Y-17518389D01*
X5031967Y-17518389D02*
X5022444Y-17480293D01*
X5022444Y-17480293D02*
X5022444Y-17432674D01*
X5022444Y-17432674D02*
X5031967Y-17394579D01*
X5031967Y-17394579D02*
X5041491Y-17375531D01*
X5041491Y-17375531D02*
X5051015Y-17366008D01*
X5051015Y-17366008D02*
X5070063Y-17356484D01*
X5260539Y-17356484D02*
X5279586Y-17356484D01*
X5279586Y-17356484D02*
X5298634Y-17366008D01*
X5298634Y-17366008D02*
X5308158Y-17375531D01*
X5308158Y-17375531D02*
X5317682Y-17394579D01*
X5317682Y-17394579D02*
X5327205Y-17432674D01*
X5327205Y-17432674D02*
X5327205Y-17480293D01*
X5327205Y-17480293D02*
X5317682Y-17518389D01*
X5317682Y-17518389D02*
X5308158Y-17537436D01*
X5308158Y-17537436D02*
X5298634Y-17546960D01*
X5298634Y-17546960D02*
X5279586Y-17556484D01*
X5279586Y-17556484D02*
X5260539Y-17556484D01*
X5260539Y-17556484D02*
X5241491Y-17546960D01*
X5241491Y-17546960D02*
X5231967Y-17537436D01*
X5231967Y-17537436D02*
X5222444Y-17518389D01*
X5222444Y-17518389D02*
X5212920Y-17480293D01*
X5212920Y-17480293D02*
X5212920Y-17432674D01*
X5212920Y-17432674D02*
X5222444Y-17394579D01*
X5222444Y-17394579D02*
X5231967Y-17375531D01*
X5231967Y-17375531D02*
X5241491Y-17366008D01*
X5241491Y-17366008D02*
X5260539Y-17356484D01*
X5412920Y-17556484D02*
X5412920Y-17423150D01*
X5412920Y-17442198D02*
X5422444Y-17432674D01*
X5422444Y-17432674D02*
X5441491Y-17423150D01*
X5441491Y-17423150D02*
X5470063Y-17423150D01*
X5470063Y-17423150D02*
X5489110Y-17432674D01*
X5489110Y-17432674D02*
X5498634Y-17451722D01*
X5498634Y-17451722D02*
X5498634Y-17556484D01*
X5498634Y-17451722D02*
X5508158Y-17432674D01*
X5508158Y-17432674D02*
X5527205Y-17423150D01*
X5527205Y-17423150D02*
X5555777Y-17423150D01*
X5555777Y-17423150D02*
X5574825Y-17432674D01*
X5574825Y-17432674D02*
X5584348Y-17451722D01*
X5584348Y-17451722D02*
X5584348Y-17556484D01*
X5679586Y-17556484D02*
X5679586Y-17423150D01*
X5679586Y-17442198D02*
X5689110Y-17432674D01*
X5689110Y-17432674D02*
X5708158Y-17423150D01*
X5708158Y-17423150D02*
X5736729Y-17423150D01*
X5736729Y-17423150D02*
X5755777Y-17432674D01*
X5755777Y-17432674D02*
X5765301Y-17451722D01*
X5765301Y-17451722D02*
X5765301Y-17556484D01*
X5765301Y-17451722D02*
X5774824Y-17432674D01*
X5774824Y-17432674D02*
X5793872Y-17423150D01*
X5793872Y-17423150D02*
X5822443Y-17423150D01*
X5822443Y-17423150D02*
X5841491Y-17432674D01*
X5841491Y-17432674D02*
X5851015Y-17451722D01*
X5851015Y-17451722D02*
X5851015Y-17556484D01*
X6241491Y-17346960D02*
X6070063Y-17604103D01*
X6498634Y-17356484D02*
X6517682Y-17356484D01*
X6517682Y-17356484D02*
X6536729Y-17366008D01*
X6536729Y-17366008D02*
X6546253Y-17375531D01*
X6546253Y-17375531D02*
X6555777Y-17394579D01*
X6555777Y-17394579D02*
X6565301Y-17432674D01*
X6565301Y-17432674D02*
X6565301Y-17480293D01*
X6565301Y-17480293D02*
X6555777Y-17518389D01*
X6555777Y-17518389D02*
X6546253Y-17537436D01*
X6546253Y-17537436D02*
X6536729Y-17546960D01*
X6536729Y-17546960D02*
X6517682Y-17556484D01*
X6517682Y-17556484D02*
X6498634Y-17556484D01*
X6498634Y-17556484D02*
X6479586Y-17546960D01*
X6479586Y-17546960D02*
X6470063Y-17537436D01*
X6470063Y-17537436D02*
X6460539Y-17518389D01*
X6460539Y-17518389D02*
X6451015Y-17480293D01*
X6451015Y-17480293D02*
X6451015Y-17432674D01*
X6451015Y-17432674D02*
X6460539Y-17394579D01*
X6460539Y-17394579D02*
X6470063Y-17375531D01*
X6470063Y-17375531D02*
X6479586Y-17366008D01*
X6479586Y-17366008D02*
X6498634Y-17356484D01*
X6651015Y-17537436D02*
X6660539Y-17546960D01*
X6660539Y-17546960D02*
X6651015Y-17556484D01*
X6651015Y-17556484D02*
X6641491Y-17546960D01*
X6641491Y-17546960D02*
X6651015Y-17537436D01*
X6651015Y-17537436D02*
X6651015Y-17556484D01*
X6851015Y-17556484D02*
X6736729Y-17556484D01*
X6793872Y-17556484D02*
X6793872Y-17356484D01*
X6793872Y-17356484D02*
X6774825Y-17385055D01*
X6774825Y-17385055D02*
X6755777Y-17404103D01*
X6755777Y-17404103D02*
X6736729Y-17413627D01*
X6974825Y-17356484D02*
X6993872Y-17356484D01*
X6993872Y-17356484D02*
X7012920Y-17366008D01*
X7012920Y-17366008D02*
X7022444Y-17375531D01*
X7022444Y-17375531D02*
X7031967Y-17394579D01*
X7031967Y-17394579D02*
X7041491Y-17432674D01*
X7041491Y-17432674D02*
X7041491Y-17480293D01*
X7041491Y-17480293D02*
X7031967Y-17518389D01*
X7031967Y-17518389D02*
X7022444Y-17537436D01*
X7022444Y-17537436D02*
X7012920Y-17546960D01*
X7012920Y-17546960D02*
X6993872Y-17556484D01*
X6993872Y-17556484D02*
X6974825Y-17556484D01*
X6974825Y-17556484D02*
X6955777Y-17546960D01*
X6955777Y-17546960D02*
X6946253Y-17537436D01*
X6946253Y-17537436D02*
X6936729Y-17518389D01*
X6936729Y-17518389D02*
X6927206Y-17480293D01*
X6927206Y-17480293D02*
X6927206Y-17432674D01*
X6927206Y-17432674D02*
X6936729Y-17394579D01*
X6936729Y-17394579D02*
X6946253Y-17375531D01*
X6946253Y-17375531D02*
X6955777Y-17366008D01*
X6955777Y-17366008D02*
X6974825Y-17356484D01*
X7212920Y-17356484D02*
X7174825Y-17356484D01*
X7174825Y-17356484D02*
X7155777Y-17366008D01*
X7155777Y-17366008D02*
X7146253Y-17375531D01*
X7146253Y-17375531D02*
X7127206Y-17404103D01*
X7127206Y-17404103D02*
X7117682Y-17442198D01*
X7117682Y-17442198D02*
X7117682Y-17518389D01*
X7117682Y-17518389D02*
X7127206Y-17537436D01*
X7127206Y-17537436D02*
X7136729Y-17546960D01*
X7136729Y-17546960D02*
X7155777Y-17556484D01*
X7155777Y-17556484D02*
X7193872Y-17556484D01*
X7193872Y-17556484D02*
X7212920Y-17546960D01*
X7212920Y-17546960D02*
X7222444Y-17537436D01*
X7222444Y-17537436D02*
X7231967Y-17518389D01*
X7231967Y-17518389D02*
X7231967Y-17470770D01*
X7231967Y-17470770D02*
X7222444Y-17451722D01*
X7222444Y-17451722D02*
X7212920Y-17442198D01*
X7212920Y-17442198D02*
X7193872Y-17432674D01*
X7193872Y-17432674D02*
X7155777Y-17432674D01*
X7155777Y-17432674D02*
X7136729Y-17442198D01*
X7136729Y-17442198D02*
X7127206Y-17451722D01*
X7127206Y-17451722D02*
X7117682Y-17470770D01*
X7298634Y-17356484D02*
X7422444Y-17356484D01*
X7422444Y-17356484D02*
X7355777Y-17432674D01*
X7355777Y-17432674D02*
X7384348Y-17432674D01*
X7384348Y-17432674D02*
X7403396Y-17442198D01*
X7403396Y-17442198D02*
X7412920Y-17451722D01*
X7412920Y-17451722D02*
X7422444Y-17470770D01*
X7422444Y-17470770D02*
X7422444Y-17518389D01*
X7422444Y-17518389D02*
X7412920Y-17537436D01*
X7412920Y-17537436D02*
X7403396Y-17546960D01*
X7403396Y-17546960D02*
X7384348Y-17556484D01*
X7384348Y-17556484D02*
X7327206Y-17556484D01*
X7327206Y-17556484D02*
X7308158Y-17546960D01*
X7308158Y-17546960D02*
X7298634Y-17537436D01*
X7498634Y-17356484D02*
X7498634Y-17394579D01*
X7574825Y-17356484D02*
X7574825Y-17394579D01*
X7870063Y-17632674D02*
X7860539Y-17623150D01*
X7860539Y-17623150D02*
X7841491Y-17594579D01*
X7841491Y-17594579D02*
X7831968Y-17575531D01*
X7831968Y-17575531D02*
X7822444Y-17546960D01*
X7822444Y-17546960D02*
X7812920Y-17499341D01*
X7812920Y-17499341D02*
X7812920Y-17461246D01*
X7812920Y-17461246D02*
X7822444Y-17413627D01*
X7822444Y-17413627D02*
X7831968Y-17385055D01*
X7831968Y-17385055D02*
X7841491Y-17366008D01*
X7841491Y-17366008D02*
X7860539Y-17337436D01*
X7860539Y-17337436D02*
X7870063Y-17327912D01*
X8031968Y-17423150D02*
X8031968Y-17556484D01*
X7984348Y-17346960D02*
X7936729Y-17489817D01*
X7936729Y-17489817D02*
X8060539Y-17489817D01*
X8289110Y-17556484D02*
X8289110Y-17356484D01*
X8374825Y-17556484D02*
X8374825Y-17451722D01*
X8374825Y-17451722D02*
X8365301Y-17432674D01*
X8365301Y-17432674D02*
X8346253Y-17423150D01*
X8346253Y-17423150D02*
X8317682Y-17423150D01*
X8317682Y-17423150D02*
X8298634Y-17432674D01*
X8298634Y-17432674D02*
X8289110Y-17442198D01*
X8498634Y-17556484D02*
X8479587Y-17546960D01*
X8479587Y-17546960D02*
X8470063Y-17537436D01*
X8470063Y-17537436D02*
X8460539Y-17518389D01*
X8460539Y-17518389D02*
X8460539Y-17461246D01*
X8460539Y-17461246D02*
X8470063Y-17442198D01*
X8470063Y-17442198D02*
X8479587Y-17432674D01*
X8479587Y-17432674D02*
X8498634Y-17423150D01*
X8498634Y-17423150D02*
X8527206Y-17423150D01*
X8527206Y-17423150D02*
X8546253Y-17432674D01*
X8546253Y-17432674D02*
X8555777Y-17442198D01*
X8555777Y-17442198D02*
X8565301Y-17461246D01*
X8565301Y-17461246D02*
X8565301Y-17518389D01*
X8565301Y-17518389D02*
X8555777Y-17537436D01*
X8555777Y-17537436D02*
X8546253Y-17546960D01*
X8546253Y-17546960D02*
X8527206Y-17556484D01*
X8527206Y-17556484D02*
X8498634Y-17556484D01*
X8679587Y-17556484D02*
X8660539Y-17546960D01*
X8660539Y-17546960D02*
X8651015Y-17527912D01*
X8651015Y-17527912D02*
X8651015Y-17356484D01*
X8831968Y-17546960D02*
X8812920Y-17556484D01*
X8812920Y-17556484D02*
X8774825Y-17556484D01*
X8774825Y-17556484D02*
X8755777Y-17546960D01*
X8755777Y-17546960D02*
X8746253Y-17527912D01*
X8746253Y-17527912D02*
X8746253Y-17451722D01*
X8746253Y-17451722D02*
X8755777Y-17432674D01*
X8755777Y-17432674D02*
X8774825Y-17423150D01*
X8774825Y-17423150D02*
X8812920Y-17423150D01*
X8812920Y-17423150D02*
X8831968Y-17432674D01*
X8831968Y-17432674D02*
X8841492Y-17451722D01*
X8841492Y-17451722D02*
X8841492Y-17470770D01*
X8841492Y-17470770D02*
X8746253Y-17489817D01*
X8917682Y-17546960D02*
X8936730Y-17556484D01*
X8936730Y-17556484D02*
X8974825Y-17556484D01*
X8974825Y-17556484D02*
X8993873Y-17546960D01*
X8993873Y-17546960D02*
X9003396Y-17527912D01*
X9003396Y-17527912D02*
X9003396Y-17518389D01*
X9003396Y-17518389D02*
X8993873Y-17499341D01*
X8993873Y-17499341D02*
X8974825Y-17489817D01*
X8974825Y-17489817D02*
X8946253Y-17489817D01*
X8946253Y-17489817D02*
X8927206Y-17480293D01*
X8927206Y-17480293D02*
X8917682Y-17461246D01*
X8917682Y-17461246D02*
X8917682Y-17451722D01*
X8917682Y-17451722D02*
X8927206Y-17432674D01*
X8927206Y-17432674D02*
X8946253Y-17423150D01*
X8946253Y-17423150D02*
X8974825Y-17423150D01*
X8974825Y-17423150D02*
X8993873Y-17432674D01*
X9070063Y-17632674D02*
X9079587Y-17623150D01*
X9079587Y-17623150D02*
X9098634Y-17594579D01*
X9098634Y-17594579D02*
X9108158Y-17575531D01*
X9108158Y-17575531D02*
X9117682Y-17546960D01*
X9117682Y-17546960D02*
X9127206Y-17499341D01*
X9127206Y-17499341D02*
X9127206Y-17461246D01*
X9127206Y-17461246D02*
X9117682Y-17413627D01*
X9117682Y-17413627D02*
X9108158Y-17385055D01*
X9108158Y-17385055D02*
X9098634Y-17366008D01*
X9098634Y-17366008D02*
X9079587Y-17337436D01*
X9079587Y-17337436D02*
X9070063Y-17327912D01*
M02*
