M48
; DRILL file {KiCad 7.0.7-7.0.7~ubuntu20.04.1} date Fri 01 Sep 2023 09:13:10 PM PDT
; FORMAT={-:-/ absolute / metric / decimal}
; #@! TF.CreationDate,2023-09-01T21:13:10-07:00
; #@! TF.GenerationSoftware,Kicad,Pcbnew,7.0.7-7.0.7~ubuntu20.04.1
; #@! TF.FileFunction,NonPlated,1,4,NPTH
FMAT,2
METRIC
; #@! TA.AperFunction,NonPlated,NPTH,ComponentDrill
T1C0.700
; #@! TA.AperFunction,NonPlated,NPTH,ComponentDrill
T2C3.000
; #@! TA.AperFunction,NonPlated,NPTH,ComponentDrill
T3C3.988
%
G90
G05
T1
X64.4Y-93.75
X72.4Y-93.75
X132.672Y-110.698
X132.672Y-118.698
T2
X58.96Y-42.92
X58.96Y-71.42
X58.96Y-109.42
X65.31Y-45.46
X65.31Y-73.96
X65.31Y-111.96
X77.96Y-42.92
X77.96Y-61.92
X77.96Y-80.92
X77.96Y-99.92
X77.96Y-118.92
X84.31Y-45.46
X84.31Y-64.46
X84.31Y-83.46
X84.31Y-102.46
X84.31Y-121.46
X96.96Y-42.92
X96.96Y-61.92
X96.96Y-80.92
X96.96Y-99.92
X103.31Y-45.46
X103.31Y-64.46
X103.31Y-83.46
X103.31Y-102.46
X106.46Y-118.92
X112.81Y-121.46
X115.96Y-42.92
X115.96Y-61.92
X115.96Y-80.92
X115.96Y-99.92
X122.31Y-45.46
X122.31Y-64.46
X122.31Y-83.46
X122.31Y-102.46
T3
X61.5Y-48.0
X61.5Y-76.5
X61.5Y-114.5
X80.5Y-48.0
X80.5Y-67.0
X80.5Y-86.0
X80.5Y-105.0
X80.5Y-124.0
X99.5Y-48.0
X99.5Y-67.0
X99.5Y-86.0
X99.5Y-105.0
X109.0Y-124.0
X118.5Y-48.0
X118.5Y-67.0
X118.5Y-86.0
X118.5Y-105.0
T0
M30
